<svg width="80" height="80" viewBox="0 0 80 80" fill="none" xmlns="http://www.w3.org/2000/svg">
    <path d="M32.5 57.5V47.5C32.5 46.5054 32.1049 45.5516 31.4016 44.8484C30.6984 44.1451 29.7445 43.75 28.75 43.75C27.7554 43.75 26.8016 44.1451 26.0983 44.8484C25.3951 45.5516 25 46.5054 25 47.5V57.5C24.059 58.2118 23.3387 59.1753 22.9224 60.2793C22.5061 61.3832 22.4107 62.5825 22.6474 63.7383C22.8841 64.8942 23.4431 65.9594 24.2598 66.8109C25.0765 67.6624 26.1175 68.2653 27.2625 68.55C27.7493 68.6721 28.2482 68.7392 28.75 68.75C30.0617 68.75 31.3402 68.3373 32.4044 67.5703C33.4686 66.8033 34.2644 65.7209 34.6792 64.4764C35.0941 63.232 35.1068 61.8886 34.7157 60.6365C34.3245 59.3844 33.5494 58.2871 32.5 57.5ZM31.075 65.4125C30.6742 65.7532 30.2062 66.0058 29.7014 66.1538C29.1967 66.3019 28.6664 66.3421 28.1451 66.2718C27.6238 66.2015 27.1231 66.0223 26.6755 65.7459C26.228 65.4695 25.8436 65.102 25.5473 64.6673C25.2511 64.2326 25.0496 63.7405 24.956 63.2229C24.8623 62.7052 24.8787 62.1737 25.0039 61.6628C25.1291 61.1519 25.3604 60.673 25.6827 60.2573C26.0051 59.8417 26.4113 59.4984 26.875 59.25C27.0657 59.1399 27.224 58.9813 27.3337 58.7903C27.4435 58.5993 27.5008 58.3828 27.5 58.1625V47.5C27.5 47.1685 27.6317 46.8505 27.8661 46.6161C28.1005 46.3817 28.4184 46.25 28.75 46.25C29.0815 46.25 29.3994 46.3817 29.6339 46.6161C29.8683 46.8505 30 47.1685 30 47.5V58.1875C29.9991 58.4078 30.0564 58.6243 30.1662 58.8153C30.2759 59.0063 30.4342 59.1649 30.625 59.275C31.1497 59.5823 31.5919 60.0125 31.9133 60.5287C32.2348 61.0449 32.4259 61.6315 32.4701 62.2379C32.5144 62.8444 32.4106 63.4525 32.1675 64.0099C31.9245 64.5673 31.5495 65.0573 31.075 65.4375V65.4125Z" fill="#283D4C"/>
    <path d="M76.525 47.5L72.3875 46.5875C70.3189 46.1132 68.3672 45.2267 66.6491 43.981C64.9309 42.7354 63.4815 41.156 62.3875 39.3375C62.2768 39.151 62.1195 38.9965 61.931 38.8891C61.7426 38.7818 61.5294 38.7254 61.3125 38.7254C61.0956 38.7254 60.8824 38.7818 60.694 38.8891C60.5055 38.9965 60.3482 39.151 60.2375 39.3375C58.6872 41.8993 56.436 43.964 53.75 45.2875V40C53.7494 38.7844 53.3943 37.5954 52.7282 36.5786C52.0622 35.5618 51.1141 34.7612 50 34.275V22.5C50 16.8641 47.7612 11.4591 43.776 7.47398C39.7909 3.48883 34.3858 1.25 28.75 1.25C23.1141 1.25 17.7091 3.48883 13.724 7.47398C9.73883 11.4591 7.5 16.8641 7.5 22.5V34.275C6.38592 34.7612 5.43781 35.5618 4.77176 36.5786C4.10571 37.5954 3.75063 38.7844 3.75 40V43.75H2.5C2.16848 43.75 1.85054 43.8817 1.61612 44.1161C1.3817 44.3505 1.25 44.6685 1.25 45V67.5C1.25 67.8315 1.3817 68.1495 1.61612 68.3839C1.85054 68.6183 2.16848 68.75 2.5 68.75H3.75V72.5C3.75 74.1576 4.40848 75.7473 5.58058 76.9194C6.75269 78.0915 8.3424 78.75 10 78.75H47.5C49.1576 78.75 50.7473 78.0915 51.9194 76.9194C53.0915 75.7473 53.75 74.1576 53.75 72.5V72.3375C55.4644 74.3451 57.3925 76.16 59.5 77.75L60.5 78.5C60.7164 78.6623 60.9795 78.75 61.25 78.75C61.5205 78.75 61.7836 78.6623 62 78.5L63 77.75C67.4914 74.3634 71.1377 69.9829 73.6533 64.9517C76.1689 59.9204 77.4855 54.3751 77.5 48.75C77.5071 48.461 77.4138 48.1786 77.236 47.9507C77.0582 47.7228 76.807 47.5635 76.525 47.5ZM10 22.5C10 17.5272 11.9754 12.7581 15.4917 9.24175C19.0081 5.72544 23.7772 3.75 28.75 3.75C33.7228 3.75 38.4919 5.72544 42.0083 9.24175C45.5246 12.7581 47.5 17.5272 47.5 22.5V33.75H42.5V22.5C42.5 18.8533 41.0513 15.3559 38.4727 12.7773C35.8941 10.1987 32.3967 8.75 28.75 8.75C25.1033 8.75 21.6059 10.1987 19.0273 12.7773C16.4487 15.3559 15 18.8533 15 22.5V33.75H10V22.5ZM40 33.75H17.5V22.5C17.5 19.5163 18.6853 16.6548 20.795 14.545C22.9048 12.4353 25.7663 11.25 28.75 11.25C31.7337 11.25 34.5952 12.4353 36.7049 14.545C38.8147 16.6548 40 19.5163 40 22.5V33.75ZM16.25 46.25V51.25H3.75V46.25H16.25ZM3.75 66.25V61.25H16.25V66.25H3.75ZM16.25 58.75H3.75V53.75H16.25V58.75ZM51.25 72.5C51.25 73.4946 50.8549 74.4484 50.1516 75.1516C49.4484 75.8549 48.4946 76.25 47.5 76.25H10C9.00544 76.25 8.05161 75.8549 7.34835 75.1516C6.64509 74.4484 6.25 73.4946 6.25 72.5V68.75H17.5C17.8315 68.75 18.1495 68.6183 18.3839 68.3839C18.6183 68.1495 18.75 67.8315 18.75 67.5V45C18.75 44.6685 18.6183 44.3505 18.3839 44.1161C18.1495 43.8817 17.8315 43.75 17.5 43.75H6.25V40C6.25 39.0054 6.64509 38.0516 7.34835 37.3484C8.05161 36.6451 9.00544 36.25 10 36.25H47.5C48.4946 36.25 49.4484 36.6451 50.1516 37.3484C50.8549 38.0516 51.25 39.0054 51.25 40V46.25C50.875 46.3625 50.5 46.475 50.1125 46.5625L45.975 47.5C45.693 47.5635 45.4418 47.7228 45.264 47.9507C45.0862 48.1786 44.9929 48.461 45 48.75C45.0204 55.9873 47.1962 63.0545 51.25 69.05V72.5ZM61.5 75.75L61.25 75.9375L61 75.75C56.9507 72.6997 53.6362 68.781 51.3 64.2817C48.9639 59.7824 47.6654 54.8169 47.5 49.75L50.6375 49.05C54.8708 48.1093 58.6321 45.6948 61.25 42.2375C63.8647 45.6923 67.6212 48.1066 71.85 49.05L75 49.75C74.8346 54.8169 73.5361 59.7824 71.2 64.2817C68.8638 68.781 65.5493 72.6997 61.5 75.75Z" fill="#283D4C"/>
    <path d="M68.6125 50.5625L66.3875 49.4375L65.5375 51.125C63.6081 49.9845 61.3182 49.6174 59.1289 50.0977C56.9396 50.5779 55.0137 51.8698 53.7388 53.7132C52.4639 55.5566 51.9348 57.8145 52.258 60.0324C52.5812 62.2503 53.7328 64.2633 55.4808 65.6662C57.2287 67.069 59.4433 67.7575 61.6786 67.5929C63.9139 67.4283 66.0037 66.423 67.5274 64.7792C69.0511 63.1355 69.8954 60.9755 69.8903 58.7342C69.8852 56.4929 69.0311 54.3368 67.5 52.7L68.6125 50.5625ZM67.5 58.75C67.5142 60.1457 67.0654 61.5067 66.2239 62.6202C65.3824 63.7337 64.1955 64.5369 62.849 64.9042C61.5024 65.2715 60.0721 65.1822 58.7817 64.6502C57.4914 64.1182 56.4137 63.1735 55.7173 61.9639C55.0208 60.7543 54.7449 59.3481 54.9327 57.965C55.1205 56.5819 55.7613 55.3001 56.755 54.32C57.7487 53.3399 59.0392 52.7167 60.4248 52.548C61.8103 52.3793 63.2126 52.6745 64.4125 53.3875L61.0375 60.1375L58.5375 56.75L56.5375 58.25L60.2875 63.25C60.4039 63.4052 60.5549 63.5312 60.7285 63.618C60.9021 63.7048 61.0934 63.75 61.2875 63.75H61.4C61.6114 63.7298 61.8141 63.656 61.989 63.5357C62.164 63.4155 62.3054 63.2526 62.4 63.0625L66.3625 55.1375C67.1122 56.192 67.5103 57.4562 67.5 58.75Z" fill="#283D4C"/>
</svg>
