<svg width="50" height="50" viewBox="0 0 50 50" fill="none" xmlns="http://www.w3.org/2000/svg">
    <path d="M44.7115 2.40381H5.28848C2.37236 2.40381 0 4.77627 0 7.69229V29.3269V32.6923C0 35.6083 2.37236 37.9808 5.28848 37.9808H18.0579L16.5194 45.673H11.5385C11.0074 45.673 10.577 46.1035 10.577 46.6346C10.577 47.1656 11.0074 47.5961 11.5385 47.5961H38.4615C38.9926 47.5961 39.423 47.1656 39.423 46.6346C39.423 46.1035 38.9926 45.673 38.4615 45.673H33.4806L31.9421 37.9808H44.7115C47.6275 37.9808 50 35.6084 50 32.6923V29.3269V7.69229C50 4.77627 47.6276 2.40381 44.7115 2.40381ZM18.4806 45.673L20.019 37.9808H29.981L31.5194 45.673H18.4806ZM48.077 32.6923C48.077 34.548 46.5673 36.0577 44.7115 36.0577H5.28848C3.43281 36.0577 1.92305 34.548 1.92305 32.6923V30.2885H48.0769V32.6923H48.077ZM48.077 28.3654H1.92305V26.4424H7.69229C8.22334 26.4424 8.65381 26.0119 8.65381 25.4809C8.65381 24.9498 8.22334 24.5193 7.69229 24.5193H1.92305V7.69229C1.92305 5.83662 3.43271 4.32686 5.28848 4.32686H44.7115C46.5672 4.32686 48.077 5.83652 48.077 7.69229V28.3654Z" fill="#283D4C"/>
    <path d="M25.0002 31.25C23.9398 31.25 23.0771 32.1127 23.0771 33.173C23.0771 34.2334 23.9398 35.0961 25.0002 35.0961C26.0606 35.0961 26.9232 34.2334 26.9232 33.173C26.9232 32.1127 26.0606 31.25 25.0002 31.25Z" fill="#283D4C"/>
    <path d="M32.8722 20.8188L30.8324 18.7791L32.5322 17.0794C32.7794 16.8322 32.873 16.4704 32.7766 16.1344C32.6802 15.7984 32.4091 15.5412 32.0685 15.4625L23.2296 13.4227C22.9066 13.3484 22.568 13.4453 22.3334 13.6798C22.099 13.9142 22.0019 14.2528 22.0764 14.576L24.1163 23.4147C24.1949 23.7553 24.4522 24.0265 24.7882 24.1228C25.1243 24.2191 25.4859 24.1256 25.7332 23.8785L27.4329 22.1787L29.4727 24.2184C29.6605 24.4062 29.9066 24.5001 30.1526 24.5001C30.3985 24.5001 30.6447 24.4062 30.8324 24.2184L32.8722 22.1787C33.2476 21.8032 33.2476 21.1944 32.8722 20.8188ZM30.1526 22.1787L28.1128 20.139C27.925 19.9512 27.6789 19.8573 27.4329 19.8573C27.1869 19.8573 26.9407 19.9512 26.753 20.139L25.6001 21.292L24.2964 15.6427L29.9457 16.9463L28.7927 18.0992C28.4172 18.4747 28.4172 19.0836 28.7927 19.4591L30.8324 21.4988L30.1526 22.1787Z" fill="#283D4C"/>
    <path d="M21.0425 11.0283L20.0809 10.0668C19.7054 9.69128 19.0966 9.69128 18.7211 10.0668C18.3456 10.4423 18.3456 11.0511 18.7211 11.4266L19.6827 12.3882C19.8705 12.576 20.1166 12.6698 20.3626 12.6698C20.6086 12.6698 20.8548 12.576 21.0425 12.3882C21.4179 12.0128 21.4179 11.4039 21.0425 11.0283Z" fill="#283D4C"/>
    <path d="M19.167 13.6316H17.8072C17.2762 13.6316 16.8457 14.0621 16.8457 14.5931C16.8457 15.1242 17.2762 15.5546 17.8072 15.5546H19.167C19.698 15.5546 20.1285 15.1242 20.1285 14.5931C20.1285 14.0621 19.698 13.6316 19.167 13.6316Z" fill="#283D4C"/>
    <path d="M21.0424 16.7977C20.667 16.4222 20.0582 16.4222 19.6826 16.7977L18.7211 17.7593C18.3456 18.1347 18.3456 18.7436 18.7211 19.1191C18.9089 19.3069 19.155 19.4007 19.401 19.4007C19.6469 19.4007 19.8931 19.3069 20.0808 19.1191L21.0424 18.1576C21.4178 17.7822 21.4178 17.1733 21.0424 16.7977Z" fill="#283D4C"/>
    <path d="M27.7729 10.0668C27.3974 9.69128 26.7887 9.69128 26.4131 10.0668L25.4515 11.0283C25.076 11.4038 25.076 12.0127 25.4515 12.3882C25.6393 12.576 25.8854 12.6698 26.1315 12.6698C26.3776 12.6698 26.6237 12.576 26.8114 12.3882L27.7729 11.4266C28.1484 11.0512 28.1484 10.4424 27.7729 10.0668Z" fill="#283D4C"/>
    <path d="M23.2467 8.19214C22.7156 8.19214 22.2852 8.62261 22.2852 9.15366V10.5134C22.2852 11.0445 22.7156 11.4749 23.2467 11.4749C23.7777 11.4749 24.2082 11.0445 24.2082 10.5134V9.15366C24.2082 8.62261 23.7777 8.19214 23.2467 8.19214Z" fill="#283D4C"/>
    <path d="M11.519 25.2932C11.5075 25.2316 11.4883 25.1711 11.4643 25.1124C11.4402 25.0547 11.4104 24.9989 11.3758 24.947C11.3412 24.894 11.3008 24.845 11.2565 24.8008C11.2123 24.7565 11.1633 24.7162 11.1104 24.6815C11.0584 24.647 11.0026 24.6171 10.944 24.5931C10.8863 24.569 10.8258 24.5498 10.7643 24.5383C10.6402 24.5133 10.5133 24.5133 10.3893 24.5383C10.3277 24.5498 10.2672 24.569 10.2095 24.5931C10.1508 24.6171 10.095 24.6469 10.0432 24.6815C9.99023 24.7161 9.94121 24.7565 9.89697 24.8008C9.85273 24.845 9.8124 24.894 9.77773 24.947C9.74316 24.9989 9.71328 25.0547 9.68926 25.1124C9.66523 25.1711 9.646 25.2316 9.63447 25.2932C9.62197 25.3547 9.61523 25.4182 9.61523 25.4807C9.61523 25.5432 9.62197 25.6066 9.63447 25.6682C9.646 25.7297 9.66523 25.7902 9.68926 25.8479C9.71328 25.9066 9.74307 25.9624 9.77773 26.0143C9.8123 26.0672 9.85273 26.1162 9.89697 26.1605C9.94121 26.2047 9.99023 26.245 10.0432 26.2797C10.0951 26.3143 10.1509 26.3441 10.2095 26.3682C10.2672 26.3922 10.3277 26.4114 10.3893 26.4239C10.4508 26.4364 10.5143 26.4422 10.5768 26.4422C10.6393 26.4422 10.7027 26.4364 10.7643 26.4239C10.8258 26.4114 10.8863 26.3922 10.944 26.3682C11.0027 26.3441 11.0585 26.3144 11.1104 26.2797C11.1633 26.2451 11.2123 26.2047 11.2565 26.1605C11.3008 26.1162 11.3411 26.0672 11.3758 26.0143C11.4104 25.9623 11.4402 25.9065 11.4643 25.8479C11.4883 25.7902 11.5075 25.7297 11.519 25.6682C11.5315 25.6066 11.5383 25.5432 11.5383 25.4807C11.5383 25.4182 11.5315 25.3547 11.519 25.2932Z" fill="#283D4C"/>
</svg>
