<svg width="80" height="80" viewBox="0 0 80 80" fill="none" xmlns="http://www.w3.org/2000/svg">
    <g clip-path="url(#clip0_266:1989)">
        <path d="M78.8258 21.2916C76.7108 21.2916 74.9902 19.5711 74.9902 17.456C74.9902 16.8074 74.4645 16.2817 73.8159 16.2817C73.1673 16.2817 72.6417 16.8074 72.6417 17.456C72.6417 19.571 70.9212 21.2916 68.8061 21.2916C68.1575 21.2916 67.6319 21.8172 67.6319 22.4658C67.6319 23.1144 68.1575 23.64 68.8061 23.64C70.9211 23.64 72.6417 25.3606 72.6417 27.4756C72.6417 28.1242 73.1673 28.6499 73.8159 28.6499C74.4645 28.6499 74.9902 28.1242 74.9902 27.4756C74.9902 25.3606 76.7106 23.64 78.8258 23.64C79.4744 23.64 80 23.1144 80 22.4658C80 21.8172 79.4744 21.2916 78.8258 21.2916ZM73.8161 23.8539C73.4298 23.3213 72.9605 22.8521 72.428 22.4658C72.9606 22.0796 73.43 21.6102 73.8161 21.0777C74.2023 21.6103 74.6717 22.0796 75.2042 22.4658C74.6716 22.8521 74.2023 23.3214 73.8161 23.8539Z" fill="#283D4C"/>
        <path d="M11.1938 21.2916C9.07891 21.2916 7.35813 19.5711 7.35813 17.456C7.35813 16.8074 6.83235 16.2817 6.18391 16.2817C5.53547 16.2817 5.00969 16.8074 5.00969 17.456C5.00969 19.571 3.28891 21.2916 1.17407 21.2916C0.525629 21.2916 -0.000152588 21.8172 -0.000152588 22.4658C-0.000152588 23.1144 0.525629 23.64 1.17407 23.64C3.28891 23.64 5.00969 25.3606 5.00969 27.4756C5.00969 28.1242 5.53547 28.6499 6.18391 28.6499C6.83235 28.6499 7.35813 28.1242 7.35813 27.4756C7.35813 25.3606 9.07891 23.64 11.1938 23.64C11.8422 23.64 12.368 23.1144 12.368 22.4658C12.368 21.8172 11.8422 21.2916 11.1938 21.2916ZM6.18391 23.8539C5.79766 23.3213 5.32844 22.8521 4.79578 22.4658C5.3286 22.0796 5.79782 21.6102 6.18391 21.0777C6.57016 21.6103 7.03938 22.0796 7.57203 22.4658C7.03953 22.8521 6.57016 23.3214 6.18391 23.8539Z" fill="#283D4C"/>
        <path d="M46.2622 6.26219C43.4566 6.26219 41.1741 3.97984 41.1741 1.17406C41.1742 0.525625 40.6486 0 40 0C39.3516 0 38.8258 0.525625 38.8258 1.17422C38.8258 3.97984 36.5431 6.26234 33.7377 6.26234C33.0892 6.26234 32.5634 6.78797 32.5634 7.43656C32.5634 8.08516 33.0892 8.61078 33.7377 8.61078C36.5431 8.61078 38.8258 10.8933 38.8258 13.6989C38.8258 14.3475 39.3516 14.8731 40 14.8731C40.6486 14.8731 41.1742 14.3475 41.1742 13.6989C41.1742 10.8933 43.4567 8.61078 46.2624 8.61078C46.9109 8.61078 47.4366 8.08516 47.4366 7.43656C47.4366 6.78797 46.9108 6.26219 46.2622 6.26219ZM40 9.69172C39.4195 8.78797 38.6484 8.01687 37.7445 7.43641C38.6484 6.85594 39.4195 6.08484 40 5.18109C40.5805 6.08484 41.3516 6.85594 42.2553 7.43641C41.3516 8.01687 40.5805 8.78797 40 9.69172Z" fill="#283D4C"/>
        <path d="M64.4462 39.6093L59.8787 26.668C59.537 25.6996 58.6173 25.049 57.5905 25.049H22.0964C21.0694 25.049 20.1498 25.6996 19.8081 26.6679L15.2406 39.6093C14.9753 40.361 15.5519 41.1743 16.3478 41.1743H63.3391C63.72 41.1743 64.0773 40.9893 64.2973 40.6783C64.5175 40.3672 64.5731 39.9686 64.4462 39.6093ZM18.0073 38.8258L22.0225 27.4494C22.0331 27.4193 22.0642 27.3972 22.0962 27.3972H57.5905C57.6225 27.3972 57.6536 27.4193 57.6644 27.4496L61.6795 38.8258H18.0073Z" fill="#283D4C"/>
        <path d="M62.3875 55.1077C58.2175 55.1077 54.9511 57.2739 54.9511 60.0392C54.9511 62.8045 58.2175 64.9708 62.3875 64.9708C66.5575 64.9708 69.8239 62.8045 69.8239 60.0392C69.8239 57.2739 66.5575 55.1077 62.3875 55.1077ZM62.3875 62.6224C59.4753 62.6224 57.2994 61.2586 57.2994 60.0392C57.2994 58.8199 59.4752 57.4561 62.3875 57.4561C65.2997 57.4561 67.4756 58.8199 67.4756 60.0392C67.4756 61.2586 65.2997 62.6224 62.3875 62.6224Z" fill="#283D4C"/>
        <path d="M17.2994 55.1077C13.1294 55.1077 9.86298 57.2739 9.86298 60.0392C9.86298 62.8045 13.1294 64.9708 17.2994 64.9708C21.4694 64.9708 24.7358 62.8045 24.7358 60.0392C24.7358 57.2739 21.4694 55.1077 17.2994 55.1077ZM17.2994 62.6224C14.3874 62.6224 12.2113 61.2586 12.2113 60.0392C12.2113 58.8199 14.3872 57.4561 17.2994 57.4561C20.2116 57.4561 22.3875 58.8199 22.3875 60.0392C22.3875 61.2586 20.2116 62.6224 17.2994 62.6224Z" fill="#283D4C"/>
        <path d="M77.4169 37.5734H71.1547C70.616 37.5734 70.1463 37.9401 70.0156 38.4628L69.1908 41.762L63.4219 25.4173C62.551 22.9496 60.2075 21.2915 57.5905 21.2915H22.0964C19.4794 21.2915 17.136 22.9496 16.265 25.4174L10.4963 41.7621L9.67142 38.4628C9.54064 37.9399 9.07095 37.5734 8.53236 37.5734H2.27001C1.62158 37.5734 1.09579 38.099 1.09579 38.7476V43.7574C1.09579 44.406 1.62158 44.9317 2.27001 44.9317H8.75548L4.75251 50.5357C3.99908 51.5906 3.60079 52.8337 3.60079 54.1301V68.8064C3.60079 70.8399 4.58783 72.6471 6.10767 73.7748C6.1072 73.7885 6.10564 73.8021 6.10564 73.816V77.5734C6.10564 78.9115 7.19423 80 8.5322 80H16.0469C17.385 80 18.4735 78.9114 18.4735 77.5734V74.9903H61.2131V77.5734C61.2131 78.9115 62.3017 80 63.6397 80H71.1544C72.4925 80 73.581 78.9114 73.581 77.5734V73.816C73.581 73.8021 73.5794 73.7885 73.5789 73.7748C75.0988 72.6471 76.0858 70.8399 76.0858 68.8064V54.1301C76.0858 52.8335 75.6874 51.5904 74.9339 50.5357L70.931 44.9317H77.4166C78.0652 44.9317 78.5908 44.406 78.5908 43.7574V38.7476C78.591 38.0989 78.0655 37.5734 77.4169 37.5734ZM3.44423 42.5831V39.9217H7.61548L8.2808 42.5831H3.44423ZM16.1253 77.5734C16.1253 77.6165 16.0903 77.6517 16.047 77.6517H8.53236C8.48923 77.6517 8.45408 77.6165 8.45408 77.5734V74.9903H9.78486H16.1253V77.5734ZM71.2328 77.5734C71.2328 77.6165 71.1977 77.6517 71.1546 77.6517H63.6399C63.5967 77.6517 63.5616 77.6165 63.5616 77.5734V74.9903H69.902H71.2328V77.5734ZM69.9022 72.6418H9.7847C8.07923 72.6418 6.6308 71.5228 6.13361 69.9804H73.5531C73.056 71.5228 71.6077 72.6418 69.9022 72.6418ZM49.9413 59.9609V62.6223H29.7456V59.9609H49.9413ZM29.9302 57.6124C30.4274 56.0701 31.8756 54.951 33.5813 54.951H46.1058C47.8113 54.951 49.2597 56.0701 49.7569 57.6124H29.9302ZM49.9413 64.9706V67.632H29.7456V64.9706H49.9413ZM73.0235 51.9006C73.4908 52.5548 73.7378 53.3257 73.7378 54.1299V67.6321H52.2897V58.7867C52.2897 55.3768 49.5155 52.6028 46.1058 52.6028H33.5813C30.1714 52.6028 27.3974 55.377 27.3974 58.7867V67.6321H5.94908V54.1299C5.94908 53.3257 6.19611 52.5548 6.66345 51.9006L11.6414 44.9315H54.8727C55.5213 44.9315 56.0469 44.4059 56.0469 43.7573C56.0469 43.1087 55.5213 42.5831 54.8727 42.5831H12.6967L18.4794 26.1988C19.0197 24.6684 20.4731 23.6398 22.0964 23.6398H57.5906C59.2138 23.6398 60.6672 24.6682 61.2077 26.1988L66.9902 42.5831H59.8825C59.2339 42.5831 58.7083 43.1087 58.7083 43.7573C58.7083 44.4059 59.2339 44.9315 59.8825 44.9315H68.0455L73.0235 51.9006ZM76.2427 42.5831H71.406L72.0713 39.9217H76.2427V42.5831Z" fill="#283D4C"/>
        <path d="M21.0567 51.3503H13.542C12.8936 51.3503 12.3678 51.876 12.3678 52.5246C12.3678 53.1732 12.8936 53.6988 13.542 53.6988H21.0567C21.7052 53.6988 22.231 53.1732 22.231 52.5246C22.231 51.876 21.7052 51.3503 21.0567 51.3503Z" fill="#283D4C"/>
        <path d="M66.1448 51.3503H58.6301C57.9815 51.3503 57.4559 51.876 57.4559 52.5246C57.4559 53.1732 57.9815 53.6988 58.6301 53.6988H66.1448C66.7934 53.6988 67.319 53.1732 67.319 52.5246C67.319 51.876 66.7934 51.3503 66.1448 51.3503Z" fill="#283D4C"/>
    </g>
    <defs>
        <clipPath id="clip0_266:1989">
            <rect width="80" height="80" fill="white"/>
        </clipPath>
    </defs>
</svg>
