<svg width="78" height="78" viewBox="0 0 78 78" fill="none" xmlns="http://www.w3.org/2000/svg">
    <path d="M30.2523 47.7301L32.7523 47.7688C32.7648 46.9913 32.8298 46.2051 32.9473 45.4338L30.4748 45.0601C30.3411 45.9426 30.2661 46.8401 30.2523 47.7301Z" fill="#C7AB8E"/>
    <path d="M39.2962 31.4814C35.3349 34.0276 32.4149 37.9001 31.0762 42.3826L33.4712 43.0976C34.6399 39.1864 37.1887 35.8089 40.6487 33.5839L42.2424 32.5601L40.8912 30.4576L39.2962 31.4814Z" fill="#C7AB8E"/>
    <path d="M72.7476 47.7263L70.2475 47.7726L70.25 48.0513C70.25 48.7101 70.2125 49.3776 70.1363 50.0326L72.6201 50.3188C72.7063 49.5688 72.7501 48.8063 72.7501 48.0526L72.7476 47.7263Z" fill="#C7AB8E"/>
    <path d="M58.5962 64.3337L59.4037 66.6999C65.6499 64.5674 70.3912 59.4899 72.0874 53.1212L69.6712 52.4762C68.1924 58.0374 64.0512 62.4699 58.5962 64.3337Z" fill="#C7AB8E"/>
    <path d="M66.4075 27.2763L62.8487 24.9888C64.25 24.445 65.25 23.0913 65.25 21.5C65.25 19.5925 63.8138 18.0313 61.97 17.7975L67.75 12.0175V11.5C67.75 8.73377 65.68 6.38752 62.9338 6.04502L60.6325 5.75752L61.8325 1.85877L54.7487 0.0875244L51.56 4.33752L49.575 1.36002L41.115 3.05252L42.0312 5.80002L40.065 6.04502C37.32 6.38752 35.25 8.73377 35.25 11.5V12.0175L41.03 17.7975C39.1862 18.0313 37.75 19.5925 37.75 21.5C37.75 23.0913 38.75 24.445 40.1513 24.9888L36.5925 27.2763C29.49 31.84 25.25 39.6075 25.25 48.0513C25.25 48.785 25.2938 49.5188 25.3575 50.25H15.25V40.25H6.5C3.05375 40.25 0.25 43.0538 0.25 46.5V71.5C0.25 74.9463 3.05375 77.75 6.5 77.75H50.25V72.75H53.0513C66.67 72.75 77.75 61.6713 77.75 48.0513C77.75 39.6075 73.51 31.84 66.4075 27.2763ZM62.6237 8.52502C63.9587 8.69252 65.0025 9.72878 65.2113 11.02L58.4825 17.75H56.9425L59.8862 8.18252L62.6237 8.52502ZM48.425 4.14002L51.4412 8.66252L55.7537 2.91252L58.6688 3.64127L54.3275 17.75H48.6513L44.3838 4.94877L48.425 4.14002ZM40.3763 8.52502L42.8375 8.21752L46.015 17.75H44.5175L37.7887 11.02C37.9975 9.72878 39.0413 8.69252 40.3763 8.52502ZM41.5 20.25H61.5C62.1888 20.25 62.75 20.81 62.75 21.5C62.75 22.19 62.1888 22.75 61.5 22.75H41.5C40.8112 22.75 40.25 22.19 40.25 21.5C40.25 20.81 40.8112 20.25 41.5 20.25ZM6.5 42.75H12.75V50.25H6.5C4.4325 50.25 2.75 48.5675 2.75 46.5C2.75 44.4325 4.4325 42.75 6.5 42.75ZM6.5 75.25C4.4325 75.25 2.75 73.5675 2.75 71.5V51.4975C3.795 52.2838 5.09375 52.75 6.5 52.75H12.3687C8.82625 55.24 6.5 59.35 6.5 64C6.5 68.65 8.82625 72.76 12.3687 75.25H6.5ZM20.25 52.75C26.4525 52.75 31.5 57.7963 31.5 64C31.5 70.2038 26.4525 75.25 20.25 75.25C14.0475 75.25 9 70.2038 9 64C9 57.7963 14.0475 52.75 20.25 52.75ZM47.75 75.25H28.1313C31.6737 72.76 34 68.65 34 64C34 59.35 31.6737 55.24 28.1313 52.75H47.75V75.25ZM50.25 52.22C51.0175 52.5575 51.86 52.75 52.75 52.75C54.8175 52.75 56.5 54.4325 56.5 56.5C56.5 58.5675 54.8175 60.25 52.75 60.25H50.25V52.22ZM53.0513 70.25H50.25V62.75H52.75C56.1963 62.75 59 59.9463 59 56.5C59 53.0538 56.1963 50.25 52.75 50.25C50.6825 50.25 49 48.5675 49 46.5C49 44.4325 50.6825 42.75 52.75 42.75H56.5V46.5H59V40.25H54V37.75H51.5V40.3763C48.6512 40.9575 46.5 43.4813 46.5 46.5C46.5 47.9125 46.9888 49.2025 47.7825 50.25H27.8713C27.8 49.52 27.75 48.7863 27.75 48.0513C27.75 40.4625 31.5613 33.4825 37.9438 29.3788L44.3662 25.25H58.6338L65.0563 29.3788C71.4388 33.4825 75.25 40.4625 75.25 48.0513C75.25 60.2913 65.2913 70.25 53.0513 70.25Z" fill="#C7AB8E"/>
    <path d="M19 72.75H21.5V70.25C23.5675 70.25 25.25 68.5675 25.25 66.5C25.25 64.4325 23.5675 62.75 21.5 62.75H19C18.3112 62.75 17.75 62.19 17.75 61.5C17.75 60.81 18.3112 60.25 19 60.25H22.75V61.5H25.25V57.75H21.5V55.25H19V57.75C16.9325 57.75 15.25 59.4325 15.25 61.5C15.25 63.5675 16.9325 65.25 19 65.25H21.5C22.1887 65.25 22.75 65.81 22.75 66.5C22.75 67.19 22.1887 67.75 21.5 67.75H17.75V66.5H15.25V70.25H19V72.75Z" fill="#C7AB8E"/>
    <path d="M42.75 61.5H45.25V55.25H39V57.75H42.75V61.5Z" fill="#C7AB8E"/>
    <path d="M45.25 66.5H42.75V70.25H39V72.75H45.25V66.5Z" fill="#C7AB8E"/>
</svg>
