<svg width="80" height="80" viewBox="0 0 80 80" fill="none" xmlns="http://www.w3.org/2000/svg">
    <g clip-path="url(#clip0_266:272)">
        <path d="M65.8527 49.0941C63.4628 48.03 59.6242 47.0695 54.4456 46.2383C54.143 46.1158 53.8288 46.0152 53.5024 45.9447L49.853 45.1577C49.7139 44.953 49.6386 44.7123 49.6386 44.4583V38.1172C52.3377 35.6323 54.0878 32.3534 54.4813 29.0858H55.0455C57.0972 29.0858 58.7666 27.4166 58.7666 25.3648V22.5398C58.7666 21.4022 58.2539 20.3502 57.3927 19.6519C57.3925 18.9587 57.3922 17.6598 57.3919 15.6169C57.3917 14.9697 56.8671 14.4452 56.2199 14.4453C55.5727 14.4455 55.0481 14.9702 55.0483 15.6172C55.0486 17.2102 55.0488 18.3516 55.0489 19.1059C54.3592 19.0909 54.1266 19.1477 53.7511 19.0327C53.7483 19.0317 53.7456 19.0309 53.7428 19.0302C53.0436 18.8114 52.5739 18.172 52.5739 17.438V12.0195C52.5739 9.86641 50.8222 8.11469 48.6691 8.11469H48.3503C45.322 8.11469 44.461 9.53 40.1349 9.53C35.8503 9.53 34.9233 8.11469 31.9194 8.11469H31.3308C29.1777 8.11469 27.426 9.86641 27.426 12.0195V17.438C27.426 18.1698 26.9581 18.8086 26.2622 19.0286C26.2594 19.0295 26.2566 19.0305 26.2536 19.0312C25.875 19.1484 25.6383 19.0908 24.9506 19.1059V11.5961C24.9506 6.49422 29.1013 2.34359 34.2031 2.34359H45.7936C50.383 2.34359 54.3227 5.76547 54.9575 10.3031C55.0472 10.9439 55.6389 11.39 56.2803 11.3013C56.9213 11.2116 57.3681 10.6192 57.2785 9.97844C56.4827 4.28984 51.5452 0 45.7938 0H34.2033C27.8091 0 22.6072 5.20187 22.6072 11.5961V19.6522C21.7461 20.3503 21.2335 21.4023 21.2335 22.54V25.365C21.2335 27.4169 22.9027 29.0859 24.9544 29.0859H25.5069C25.8758 32.6917 27.6071 36.0494 30.3611 38.4412V44.4586C30.3611 44.7128 30.2858 44.9533 30.1467 45.158L26.4972 45.945C26.1708 46.0155 25.8566 46.1161 25.5539 46.2386C20.3755 47.0698 16.5367 48.0303 14.1469 49.0944C9.4758 51.1741 6.45752 55.8219 6.45752 60.9352V64.3994C6.45752 65.0466 6.98221 65.5711 7.62924 65.5711C8.27627 65.5711 8.80096 65.0466 8.80096 64.3994V60.9352C8.80096 56.7466 11.2735 52.9391 15.1 51.2353C16.7341 50.5078 19.2544 49.8033 22.4908 49.1634C22.3074 49.5634 22.1663 49.9873 22.0775 50.4313L21.2356 54.6387C20.8556 56.5387 22.1739 58.3653 24.0972 58.6025C24.7794 58.6866 25.0603 59.5266 24.5569 60.0025L23.8431 60.6773C22.4091 62.0334 22.5078 64.2952 23.7989 65.4792L37.0011 77.6567H20.4596V72.6492C20.4596 72.002 19.9349 71.4775 19.2878 71.4775C18.6406 71.4775 18.1161 72.002 18.1161 72.6492V77.6567H11.0375C9.80439 77.6567 8.80111 76.6536 8.80111 75.4205V69.8938C8.80111 69.2466 8.27643 68.722 7.62939 68.722C6.98236 68.722 6.45768 69.2466 6.45768 69.8938V75.4205C6.45768 77.9455 8.51221 80 11.0375 80H68.9621C71.4874 80 73.5421 77.9455 73.5421 75.4202V60.935C73.5421 55.8216 70.5238 51.1739 65.8527 49.0941ZM53.0083 48.2356C54.3317 48.5211 55.3586 49.5633 55.6242 50.8909L56.466 55.0984C56.5789 55.6625 56.1903 56.2055 55.6156 56.2764C52.9627 56.6034 51.8928 59.8711 53.8327 61.705L54.5463 62.3798C54.9458 62.7578 54.96 63.3834 54.5874 63.7789L42.7996 74.6519L49.2964 57.1428C49.2991 57.1355 49.3017 57.1281 49.3044 57.1206C50.3533 54.1105 50.781 50.8875 50.5624 47.7081L53.0083 48.2356ZM39.9869 42.4583H39.9999C39.9999 42.4583 40.0086 42.4583 40.0128 42.4583C43.3769 42.4208 45.52 41.3703 47.295 40.0631V44.4584C47.295 44.9869 47.4144 45.5055 47.6347 45.9777L39.9999 51.9134L32.365 45.9777C32.5853 45.5055 32.7047 44.9869 32.7047 44.4584V40.2652C34.5461 41.4903 36.7917 42.4225 39.9869 42.4583ZM38.5269 59.2978L37.0692 56.1892L39.9999 54.7102L42.9305 56.1892L41.4728 59.2978H38.5269ZM44.1421 64.2966L43.4399 60.6228L45.0236 57.2455L46.4849 57.983L44.1421 64.2966ZM47.2858 55.7622L42.1813 53.1861L48.2547 48.4642C48.355 50.9286 48.0283 53.4098 47.2858 55.7622ZM37.8185 53.1861L32.7139 55.7622C31.9713 53.4098 31.6447 50.9286 31.745 48.4641L37.8185 53.1861ZM34.9761 57.2455L36.5599 60.6228L35.8577 64.2966L33.5149 57.983L34.9761 57.2455ZM38.7513 61.6414H41.2486L42.5674 68.5408L39.9999 75.4598L37.4325 68.5408L38.7513 61.6414ZM55.885 21.4495C56.2208 21.708 56.4228 22.1066 56.4228 22.5398V25.3648C56.4228 26.1244 55.8049 26.7423 55.0453 26.7423H54.565L54.5691 21.4497H55.885V21.4495ZM23.5769 25.3648V22.5398C23.5769 22.1066 23.7791 21.7077 24.115 21.4494L25.4352 21.4495L25.4355 26.7422H24.9544C24.1949 26.7422 23.5769 26.1244 23.5769 25.3648ZM27.7792 27.9009L27.7788 20.9037C28.9963 20.1978 29.7694 18.8956 29.7694 17.4381V12.0195C29.7694 11.1586 30.4699 10.4583 31.3306 10.4583H31.9192C34.2 10.4583 35.6352 11.8736 40.1347 11.8736C44.6497 11.8736 46.017 10.4583 48.3502 10.4583H48.6689C49.5299 10.4583 50.2302 11.1586 50.2302 12.0195V17.438C50.2302 18.8986 51.0053 20.2016 52.226 20.9066L52.2205 27.9006C52.1491 31.0394 50.4605 34.33 47.7022 36.7052C45.5199 38.5841 43.7956 40.0689 39.9999 40.1145C36.4946 40.0723 34.2885 38.7311 31.9356 36.7052C29.3697 34.4959 27.8552 31.2877 27.7792 27.9009ZM25.4535 62.3798L26.1672 61.705C28.1089 59.8692 27.0339 56.603 24.3842 56.2764C23.8149 56.2061 23.4199 55.6675 23.5338 55.0984L24.3756 50.8909C24.6413 49.5634 25.6681 48.5211 26.9914 48.2356L29.4377 47.7081C29.2191 50.8875 29.6467 54.1105 30.6956 57.1206C30.6983 57.1281 30.701 57.1355 30.7036 57.1428L37.2005 74.6519L25.4127 63.7789C25.0406 63.3842 25.0535 62.7584 25.4535 62.3798ZM71.1986 75.4202C71.1986 76.6533 70.1953 77.6564 68.9622 77.6564H61.8838V72.6489C61.8838 72.0017 61.3591 71.4772 60.7121 71.4772C60.065 71.4772 59.5403 72.0017 59.5403 72.6489V77.6564H42.9985L56.2006 65.4789C57.4853 64.3006 57.5978 62.04 56.1563 60.677L55.4425 60.002C54.9431 59.53 55.2147 58.6869 55.9024 58.6022C57.8255 58.365 59.1441 56.5386 58.7638 54.6384L57.9219 50.4309C57.8331 49.987 57.6921 49.5631 57.5086 49.1631C60.7449 49.803 63.2653 50.5075 64.8992 51.235C68.7258 52.9387 71.1983 56.7463 71.1983 60.9348V75.4202H71.1986Z" fill="#283D4C"/>
    </g>
    <defs>
        <clipPath id="clip0_266:272">
            <rect width="80" height="80" fill="white"/>
        </clipPath>
    </defs>
</svg>
