<svg width="50" height="50" viewBox="0 0 50 50" fill="none" xmlns="http://www.w3.org/2000/svg">
    <path d="M28.3329 46.6632C38.4574 46.6632 46.6649 38.4557 46.6649 28.3312C46.6649 18.2068 38.4574 9.99927 28.3329 9.99927C18.2085 9.99927 10.001 18.2068 10.001 28.3312C10.0124 38.4509 18.2132 46.6517 28.3329 46.6632ZM14.1673 27.498H11.71C12.1444 18.9639 18.9656 12.1426 27.4997 11.7083V14.1656C27.4997 14.6258 27.8728 14.9989 28.3329 14.9989C28.7931 14.9989 29.1662 14.6258 29.1662 14.1656V11.7083C37.7003 12.1426 44.5215 18.9639 44.9559 27.498H41.6653C41.2051 27.498 40.832 27.871 40.832 28.3312C40.832 28.7914 41.2051 29.1645 41.6653 29.1645H44.9559C44.5215 37.6984 37.7003 44.5198 29.1662 44.9541V42.4968C29.1662 42.0367 28.7931 41.6636 28.3329 41.6636C27.8728 41.6636 27.4997 42.0367 27.4997 42.4968V44.9541C18.9657 44.5198 12.1444 37.6985 11.71 29.1645H14.1673C14.6275 29.1645 15.0006 28.7914 15.0006 28.3312C15.0006 27.871 14.6275 27.498 14.1673 27.498Z" fill="#283D4C"/>
    <path d="M47.094 17.5131C46.8456 17.0827 46.5824 16.661 46.3049 16.2488L48.3623 14.1914C48.6875 13.866 48.6875 13.3386 48.3623 13.0132L43.6543 8.30521C43.3289 7.97992 42.8014 7.97992 42.476 8.30521L40.4154 10.3592C37.0821 8.10877 33.1853 6.83667 29.1662 6.687V1.66654H34.9991C35.4593 1.66654 35.8324 1.29344 35.8324 0.833271C35.8324 0.373097 35.4593 0 34.9991 0H21.6668C21.2066 0 20.8335 0.373097 20.8335 0.833271C20.8335 1.29344 21.2066 1.66654 21.6668 1.66654H27.4997V6.6945C20.0681 6.97823 13.3028 11.0581 9.58433 17.4987H5.00134C4.54117 17.4987 4.16807 17.8718 4.16807 18.332C4.16807 18.7921 4.54117 19.1652 5.00134 19.1652H10.001C10.0226 19.1652 10.041 19.1544 10.0626 19.1527C10.3629 19.1566 10.6414 18.997 10.7901 18.7361C16.0917 9.04682 28.2441 5.4898 37.9335 10.7913C47.6228 16.0928 51.1797 28.2454 45.8782 37.9347C40.5766 47.6239 28.4242 51.181 18.7348 45.8795C15.3817 44.0448 12.6246 41.2877 10.79 37.9347C10.6428 37.6727 10.3647 37.5115 10.0642 37.5139C10.0425 37.5139 10.0234 37.5014 10.0009 37.5014H5.00124C4.54107 37.5014 4.16797 37.8745 4.16797 38.3346C4.16797 38.7948 4.54107 39.1679 5.00124 39.1679H9.58423C15.5641 49.5259 28.8085 53.0752 39.1665 47.0953C49.5246 41.1155 53.0738 27.871 47.094 17.5131ZM41.777 11.3606L43.0651 10.0726L46.5948 13.6023L45.3049 14.8922C44.2675 13.5844 43.0838 12.3995 41.777 11.3606Z" fill="#283D4C"/>
    <path d="M8.33466 28.3313C8.33466 27.8711 7.96156 27.498 7.50139 27.498H0.835224C0.37505 27.498 0.00195312 27.8711 0.00195312 28.3313C0.00195312 28.7915 0.37505 29.1646 0.835224 29.1646H7.50139C7.96156 29.1646 8.33466 28.7915 8.33466 28.3313Z" fill="#283D4C"/>
    <path d="M2.50222 24.1648H8.33511C8.79529 24.1648 9.16838 23.7917 9.16838 23.3316C9.16838 22.8714 8.79529 22.4983 8.33511 22.4983H2.50222C2.04204 22.4983 1.66895 22.8714 1.66895 23.3316C1.66895 23.7917 2.04194 24.1648 2.50222 24.1648Z" fill="#283D4C"/>
    <path d="M9.16838 33.3308C9.16838 32.8707 8.79529 32.4976 8.33511 32.4976H2.50222C2.04204 32.4976 1.66895 32.8707 1.66895 33.3308C1.66895 33.791 2.04204 34.1641 2.50222 34.1641H8.33511C8.79529 34.1641 9.16838 33.791 9.16838 33.3308Z" fill="#283D4C"/>
    <path d="M26.0778 33.9199C26.4032 34.2452 26.9307 34.2452 27.2561 33.9199L38.8386 22.3374C39.1583 22.0064 39.1492 21.4789 38.8181 21.1592C38.4952 20.8473 37.9833 20.8473 37.6603 21.1592L26.667 32.1525L21.709 27.1946C21.378 26.8749 20.8504 26.884 20.5308 27.215C20.2189 27.5379 20.2189 28.0498 20.5308 28.3728L26.0778 33.9199Z" fill="#283D4C"/>
</svg>
