<svg width="80" height="80" viewBox="0 0 80 80" fill="none" xmlns="http://www.w3.org/2000/svg">
    <g clip-path="url(#clip0_52:504)">
        <path d="M78.0489 72.1933H71.1586V28.2121C71.1586 27.1363 70.2833 26.261 69.2075 26.261H64.7558C64.1092 26.261 63.5852 26.785 63.5852 27.4316C63.5852 28.0782 64.1092 28.6022 64.7558 28.6022H68.8173V72.1933H57.6975V28.6022H59.2511C59.8977 28.6022 60.4217 28.0782 60.4217 27.4316C60.4217 26.785 59.8977 26.261 59.2511 26.261H57.3073C56.2316 26.261 55.3563 27.1363 55.3563 28.2121V72.1935H47.9014V43.033C47.9014 41.9572 47.0261 41.0819 45.9503 41.0819H34.05C32.9742 41.0819 32.0989 41.9572 32.0989 43.033V72.1933H24.6439V55.8366C24.6439 54.7608 23.7686 53.8855 22.6928 53.8855H10.7927C9.71688 53.8855 8.84156 54.7608 8.84156 55.8366V61.0718C8.84156 61.7183 9.36563 62.2424 10.0122 62.2424C10.6588 62.2424 11.1828 61.7183 11.1828 61.0718V56.2269H22.3025V72.1935H11.1828V66.5157C11.1828 65.8691 10.6588 65.345 10.0122 65.345C9.36563 65.345 8.84156 65.8691 8.84156 66.5157V72.1935H1.95109C0.875313 72.1933 0 73.0686 0 74.1446V77.8775C0 78.9533 0.875313 79.8286 1.95109 79.8286H78.0489C79.1247 79.8286 80 78.9533 80 77.8775V74.1446C80 73.0686 79.1247 72.1933 78.0489 72.1933ZM34.4402 43.4233H45.56V72.1935H34.4402V43.4233ZM77.6586 77.4874H2.34141V74.5349H10.0123H23.4734H33.2697H46.7308H56.5269H69.988H77.6588V77.4874H77.6586Z" fill="#283D4C"/>
        <path d="M9.72595 43.0394L9.05626 46.9439C8.86954 48.0327 9.30876 49.1122 10.2024 49.7614C10.7074 50.1283 11.2981 50.3149 11.8928 50.3149C12.3506 50.3149 12.8108 50.2043 13.2361 49.9808L16.7425 48.1374L20.2489 49.9808C21.2264 50.4947 22.3888 50.4107 23.2827 49.7616C24.1763 49.1122 24.6155 48.0325 24.4288 46.9439L23.7591 43.0394L26.5958 40.2743C27.3867 39.5033 27.6661 38.3718 27.3249 37.3213C26.9834 36.2707 26.0925 35.5194 24.9994 35.3605L21.0791 34.7908L19.3259 31.2385C18.837 30.2478 17.8472 29.6327 16.7425 29.6327C15.638 29.6327 14.6481 30.248 14.1594 31.2385L12.4063 34.7908L8.48579 35.3605C7.39267 35.5194 6.50173 36.2705 6.16032 37.3213C5.81907 38.3719 6.09829 39.5033 6.88923 40.2741L9.72595 43.0394ZM8.38704 38.0447C8.41829 37.9488 8.52298 37.7211 8.82251 37.6775L12.9219 37.0818C13.5724 36.9875 14.1344 36.5791 14.4255 35.9896L16.2589 32.2747C16.3928 32.0033 16.6417 31.9739 16.7425 31.9739C16.8433 31.9739 17.0922 32.0032 17.2263 32.2747L19.0597 35.9894C19.3506 36.5789 19.9127 36.9874 20.563 37.0818L24.6627 37.6775C24.9622 37.7211 25.0669 37.9488 25.0981 38.0447C25.1294 38.1407 25.1784 38.3864 24.9616 38.5975L21.9953 41.4891C21.5244 41.9477 21.3097 42.6086 21.4209 43.2564L22.1213 47.3396C22.1724 47.6378 21.9881 47.808 21.9066 47.8672C21.8249 47.9264 21.6061 48.0493 21.3386 47.9082L17.6717 45.9803C17.3808 45.8274 17.0616 45.751 16.7425 45.751C16.4234 45.751 16.1042 45.8275 15.8133 45.9803L12.1464 47.9082C11.8784 48.0491 11.66 47.9264 11.5784 47.8672C11.4969 47.8078 11.3127 47.6378 11.3638 47.3396L12.0641 43.2566C12.1753 42.6086 11.9605 41.9478 11.49 41.4893L8.52345 38.5977C8.30673 38.3864 8.35579 38.1407 8.38704 38.0447Z" fill="#283D4C"/>
        <path d="M32.9833 28.7961L32.3136 32.7008C32.1269 33.7894 32.5659 34.8689 33.4595 35.5182C33.9645 35.885 34.5553 36.0714 35.1501 36.0714C35.608 36.0714 36.0681 35.961 36.4934 35.7375L39.9998 33.8941L43.5062 35.7375C44.4839 36.2517 45.6464 36.1675 46.5403 35.5182C47.4339 34.8689 47.873 33.7892 47.6862 32.7008L47.0164 28.7961L49.8533 26.031C50.6442 25.26 50.9234 24.1285 50.5822 23.078C50.2409 22.0274 49.3498 21.2763 48.2565 21.1174L44.3364 20.5477L42.5831 16.9952C42.0942 16.0047 41.1044 15.3894 39.9998 15.3894C38.8953 15.3894 37.9055 16.0047 37.4166 16.9952L35.6634 20.5477L31.743 21.1174C30.65 21.2763 29.7589 22.0274 29.4175 23.078C29.0761 24.1283 29.3553 25.26 30.1464 26.0311L32.9833 28.7961ZM31.6442 23.8014C31.6755 23.7055 31.7802 23.478 32.0797 23.4344L36.1797 22.8386C36.83 22.7439 37.3917 22.3358 37.6826 21.7464L39.5161 18.0314C39.65 17.76 39.8989 17.7308 39.9997 17.7308C40.1005 17.7308 40.3494 17.76 40.4833 18.0314L42.317 21.7469C42.6078 22.336 43.1697 22.7439 43.8201 22.8386L47.9198 23.4344C48.2194 23.478 48.324 23.7058 48.3553 23.8016C48.3864 23.8975 48.4355 24.1432 48.2187 24.3544L45.2522 27.2461C44.7817 27.7049 44.5672 28.3653 44.6781 29.0133L45.3784 33.0964C45.4295 33.3947 45.2453 33.5647 45.1637 33.6239C45.0822 33.683 44.8634 33.8061 44.5956 33.6649L40.9289 31.7372C40.6381 31.5842 40.3189 31.5077 39.9997 31.5077C39.6806 31.5077 39.3614 31.5842 39.0705 31.7371L35.4036 33.6649C35.1355 33.806 34.917 33.683 34.8356 33.6239C34.7541 33.5647 34.57 33.3947 34.6211 33.0964L35.3214 29.0133C35.4325 28.3657 35.218 27.705 34.7472 27.246L31.7806 24.3546C31.5641 24.1432 31.6131 23.8975 31.6442 23.8014Z" fill="#283D4C"/>
        <path d="M56.2406 13.578L55.5709 17.4825C55.384 18.5711 55.8233 19.6508 56.7169 20.3C57.6106 20.9492 58.7728 21.0331 59.7508 20.5194L63.2572 18.676L66.7636 20.5194C67.1889 20.7428 67.649 20.8533 68.107 20.8533C68.7019 20.8533 69.2926 20.6669 69.7975 20.3C70.6912 19.6508 71.1303 18.5711 70.9434 17.4825L70.2737 13.578L73.1104 10.8128C73.9015 10.0419 74.1808 8.91033 73.8395 7.86002C73.4983 6.80939 72.6072 6.05814 71.514 5.89923L67.5937 5.32939L65.8404 1.77705C65.3515 0.786577 64.3617 0.171265 63.2572 0.171265C62.1526 0.171265 61.1628 0.786577 60.6739 1.77705L58.9206 5.32939L55.0004 5.89923C53.9073 6.05798 53.0162 6.80923 52.6748 7.85986C52.3336 8.91017 52.6128 10.0419 53.4037 10.8128L56.2406 13.578ZM54.9017 8.58345C54.9328 8.48752 55.0375 8.25986 55.3372 8.21627L59.4364 7.62048C60.0873 7.52611 60.6495 7.11783 60.9401 6.5283L62.7736 2.81345C62.9076 2.54205 63.1565 2.51283 63.2572 2.51283C63.3578 2.51283 63.607 2.54205 63.7408 2.81345L65.5743 6.52845C65.8653 7.11783 66.4275 7.52627 67.0775 7.62048L71.1773 8.21627C71.4769 8.25986 71.5817 8.48767 71.6128 8.58345C71.6439 8.67939 71.6929 8.92502 71.4762 9.13627L68.5095 12.0281C68.0392 12.4869 67.8245 13.1474 67.9354 13.7953L68.6358 17.8783C68.6869 18.1767 68.5026 18.3467 68.4211 18.406C68.3397 18.4653 68.1209 18.588 67.8529 18.4469L64.1862 16.5192C63.8953 16.3663 63.5761 16.2897 63.257 16.2897C62.9378 16.2897 62.6187 16.3663 62.3279 16.5191L58.6611 18.4469C58.3933 18.588 58.1745 18.465 58.0929 18.406C58.0114 18.3466 57.8273 18.1767 57.8783 17.8783L58.5786 13.7956C58.6898 13.1478 58.4753 12.4872 58.0045 12.028L55.0379 9.13627C54.8212 8.92502 54.8704 8.67923 54.9017 8.58345Z" fill="#283D4C"/>
    </g>
    <defs>
        <clipPath id="clip0_52:504">
            <rect width="80" height="80" fill="white"/>
        </clipPath>
    </defs>
</svg>
