<svg width="60" height="60" viewBox="0 0 60 60" fill="none" xmlns="http://www.w3.org/2000/svg">
    <g clip-path="url(#clip0_52:229)">
        <path d="M55.384 8.46832C55.2484 7.13895 54.1356 6.1077 52.7955 6.06949C41.5236 5.74816 34.0602 1.9834 31.3746 0.379687C30.5266 -0.12668 29.4731 -0.126445 28.6255 0.379687C27.0327 1.3309 23.6073 3.12539 18.5613 4.45711C18.0928 4.58086 17.8132 5.06098 17.9368 5.52949C18.0605 5.99801 18.5408 6.27738 19.0092 6.15398C24.2634 4.76719 27.8532 2.88492 29.5254 1.88648C29.8182 1.71141 30.182 1.71141 30.475 1.88648C33.2787 3.56063 41.0612 7.49074 52.7456 7.82379C53.2079 7.83691 53.5916 8.19059 53.6381 8.64633C54.0267 12.4555 54.6363 22.4215 51.9121 32.672C50.3838 38.4223 48.0289 43.3945 44.9129 47.4506C41.1633 52.3315 36.2565 55.943 30.3289 58.1848C30.1168 58.2649 29.8834 58.2649 29.6711 58.1848C23.7437 55.943 18.837 52.3315 15.0873 47.4506C11.9713 43.3945 9.61641 38.4223 8.08805 32.672C5.36367 22.4215 5.9734 12.4553 6.36199 8.64633C6.40852 8.19059 6.79219 7.83691 7.25461 7.82379C9.85641 7.74961 12.4447 7.48793 14.9479 7.04578C15.425 6.96152 15.7436 6.50625 15.6593 6.02894C15.575 5.55176 15.1199 5.23301 14.6426 5.3175C12.2236 5.74477 9.72105 5.99777 7.20469 6.06949C5.86465 6.1077 4.75184 7.13895 4.61613 8.46832C4.21781 12.3732 3.59332 22.5926 6.39211 33.1228C7.98035 39.0984 10.4375 44.2788 13.6957 48.5198C17.6471 53.6633 22.8132 57.4675 29.0501 59.8262C29.3564 59.9422 29.6783 60.0001 30.0001 60.0001C30.3219 60.0001 30.6437 59.9422 30.9499 59.8262C37.187 57.4675 42.3531 53.6633 46.3045 48.5198C49.5626 44.2788 52.0199 39.0984 53.6081 33.1228C56.4067 22.5926 55.7823 12.3732 55.384 8.46832Z" fill="white"/>
        <path d="M9.64487 12.3377C9.39315 14.806 8.75096 23.5563 11.0598 32.5217C12.3282 37.4469 14.2902 41.7074 16.891 45.185C20.055 49.4153 24.1899 52.5173 29.1814 54.4052C29.4453 54.5049 29.7226 54.5549 30 54.5549C30.2773 54.5549 30.5548 54.5049 30.8187 54.4051C35.8099 52.5173 39.945 49.4154 43.1089 45.185C45.7098 41.7074 47.6717 37.447 48.9402 32.5217C51.249 23.5563 50.6068 14.806 50.3551 12.3377C50.2382 11.1915 49.2789 10.3024 48.1237 10.2695C39.2065 10.0153 33.3073 7.03979 31.185 5.77252C30.4541 5.33588 29.546 5.336 28.8151 5.7724C26.6927 7.03979 20.7935 10.0153 11.8762 10.2695C10.7211 10.3024 9.76182 11.1915 9.64487 12.3377ZM29.715 7.27908C29.8029 7.22658 29.9014 7.20033 30 7.20033C30.0985 7.20033 30.1971 7.22658 30.2851 7.2792C32.5255 8.61713 38.7439 11.7578 48.0737 12.0238C48.3512 12.0316 48.5814 12.2431 48.6091 12.5157C48.8535 14.9108 49.4769 23.4004 47.2406 32.0839C44.5458 42.5479 38.8118 49.5056 30.1979 52.7634C30.0704 52.8119 29.9298 52.8118 29.8022 52.7635C21.1882 49.5055 15.4542 42.5479 12.7594 32.0839C10.5231 23.4006 11.1465 14.9109 11.3908 12.5157C11.4186 12.2433 11.6488 12.0316 11.9264 12.0238C21.256 11.7578 27.4745 8.61713 29.715 7.27908Z" fill="white"/>
        <path d="M30 41.181C34.0035 41.181 37.7756 39.2272 40.0905 35.9548C40.3704 35.5591 40.2765 35.0116 39.8809 34.7317C39.4854 34.4517 38.9377 34.5456 38.6578 34.9413C36.6714 37.7495 33.4348 39.4261 30 39.4261C24.1567 39.4261 19.4029 34.6723 19.4029 28.8289C19.4029 22.9856 24.1567 18.2318 30 18.2318C35.8433 18.2318 40.5972 22.9856 40.5972 28.8289C40.5972 29.7428 40.4809 30.6497 40.2514 31.5246C40.1285 31.9934 40.4089 32.473 40.8777 32.5959C41.3463 32.7184 41.8261 32.4384 41.949 31.9697C42.2164 30.9495 42.352 29.8929 42.352 28.8289C42.352 22.018 36.8109 16.4768 29.9999 16.4768C23.1888 16.4768 17.6477 22.0179 17.6477 28.8289C17.6477 35.64 23.1891 41.181 30 41.181Z" fill="white"/>
        <path d="M34.6022 22.6671C33.8694 22.6964 33.192 23.0093 32.6946 23.548L28.2876 28.3212L27.1963 27.2666C26.1079 26.2148 24.3663 26.2444 23.3142 27.3328C22.2624 28.4212 22.2919 30.1627 23.3804 31.2149L26.4912 34.2213C27.0058 34.7188 27.6833 34.9928 28.3991 34.9928C28.4263 34.9928 28.4535 34.9924 28.4773 34.9916C29.2116 34.9707 29.9183 34.6492 30.4163 34.1097L36.7287 27.2727C37.7557 26.1605 37.6864 24.4201 36.574 23.3931C36.0353 22.8957 35.3342 22.6383 34.6022 22.6671ZM35.4393 26.0823C35.4393 26.0823 29.1269 32.9193 29.1267 32.9194C28.7506 33.3268 28.1091 33.3445 27.7108 32.9596C27.7089 32.9577 24.6 29.953 24.6 29.953C24.2072 29.5733 24.1965 28.9451 24.576 28.5525C24.7701 28.3518 25.029 28.2507 25.2885 28.2507C25.5365 28.2507 25.7847 28.3431 25.9767 28.5285C25.9767 28.5285 27.711 30.2046 27.7133 30.207C28.058 30.54 28.6421 30.5242 28.9678 30.1713C28.9678 30.1713 33.9681 24.7557 33.9839 24.7386C34.8314 23.8208 36.3125 25.1368 35.4393 26.0823Z" fill="white"/>
    </g>
    <defs>
        <clipPath id="clip0_52:229">
            <rect width="60" height="60" fill="white"/>
        </clipPath>
    </defs>
</svg>
