<svg width="80" height="80" viewBox="0 0 80 80" fill="none" xmlns="http://www.w3.org/2000/svg">
    <path d="M66.25 13.75H59.5962L56.35 5.63625C55.285 2.97125 52.7412 1.25 49.8725 1.25C48.0075 1.25 46.255 1.97625 44.9388 3.29375C43.8375 4.39375 42.375 5 40.8187 5H39.18C37.625 5 36.1625 4.39375 35.0612 3.29375C33.7437 1.975 31.9912 1.25 30.1275 1.25C27.2587 1.25 24.715 2.97125 23.6488 5.63625L20.4037 13.75H13.75C11.6825 13.75 10 15.4325 10 17.5C10 19.5675 11.6825 21.25 13.75 21.25H22.5V23.8762C19.6512 24.4575 17.5 26.9813 17.5 30C17.5 33.0375 19.68 35.57 22.5575 36.13C22.8687 40.9688 25.1438 45.275 28.6063 48.2562L19.9263 50.9263C16.2325 52.0625 13.75 55.425 13.75 59.29V77.5C13.75 78.1913 14.31 78.75 15 78.75H65C65.69 78.75 66.25 78.1913 66.25 77.5V59.29C66.25 55.425 63.7675 52.0638 60.0737 50.9263L51.3938 48.2562C54.8563 45.275 57.1325 40.97 57.4425 36.13C60.32 35.57 62.5 33.0375 62.5 30C62.5 26.9825 60.3488 24.4575 57.5 23.8762V21.25H66.25C68.3175 21.25 70 19.5675 70 17.5C70 15.4325 68.3175 13.75 66.25 13.75ZM25.97 6.56375C26.655 4.855 28.2862 3.75 30.1275 3.75C31.3237 3.75 32.4475 4.215 33.2925 5.06125C34.8675 6.635 36.9575 7.5 39.1812 7.5H40.82C43.0425 7.5 45.1338 6.635 46.7075 5.06125C47.5525 4.215 48.6762 3.75 49.8725 3.75C51.7137 3.75 53.345 4.855 54.0287 6.56375L56.9037 13.75H23.0962L25.97 6.56375ZM20 30C20 28.3725 21.0487 26.9975 22.5 26.48V33.5187C21.0487 33.0025 20 31.6275 20 30ZM50.0675 50.4637L51.0288 55.27L47.2625 56.0225L49.4938 50.2863L50.0675 50.4637ZM29.9325 50.4637L30.5075 50.2875L32.7388 56.0238L28.9725 55.2712L29.9325 50.4637ZM33.9287 59.0887L36.68 66.1637L31.7675 61.25L33.9287 59.0887ZM46.0712 59.0887L48.2325 61.25L43.32 66.1625L46.0712 59.0887ZM40 67.8013L33.5675 51.2588C35.5613 52.0513 37.7275 52.5 40 52.5C42.2725 52.5 44.4388 52.0513 46.4325 51.2588L40 67.8013ZM16.25 59.29C16.25 56.5287 18.0225 54.1275 20.6612 53.3162L27.215 51.3L26.2737 56.005C26.1387 56.6825 26.5775 57.34 27.2537 57.4762L31.2138 58.2688L29.115 60.3675C28.6262 60.8562 28.6262 61.6463 29.115 62.135L38.75 71.7675V76.25H25V62.5H22.5V76.25H16.25V59.29ZM63.75 59.29V76.25H57.5V62.5H55V76.25H41.25V71.7675L50.8838 62.1338C51.3725 61.645 51.3725 60.855 50.8838 60.3662L48.785 58.2675L52.745 57.475C53.4225 57.34 53.8612 56.6813 53.725 56.0038L52.7838 51.2988L59.3375 53.315C61.9775 54.1275 63.75 56.5287 63.75 59.29ZM60 30C60 31.6275 58.9512 33.0025 57.5 33.52V26.4812C58.9512 26.9975 60 28.3725 60 30ZM55 35C55 43.2713 48.2713 50 40 50C31.7288 50 25 43.2713 25 35V21.25H55V35ZM66.25 18.75H13.75C13.0612 18.75 12.5 18.19 12.5 17.5C12.5 16.81 13.0612 16.25 13.75 16.25H21.25H58.75H66.25C66.9388 16.25 67.5 16.81 67.5 17.5C67.5 18.19 66.9388 18.75 66.25 18.75Z" fill="#283D4C"/>
    <path d="M35.4163 33.25C35.14 32.6188 35 31.9462 35 31.25C35 28.4925 37.2425 26.25 40 26.25C42.7575 26.25 45 28.4925 45 31.25C45 34.0075 42.7575 36.25 40 36.25C39.31 36.25 38.75 36.8088 38.75 37.5V42.5H41.25V38.6462C44.7925 38.0487 47.5 34.96 47.5 31.25C47.5 27.1137 44.1362 23.75 40 23.75C35.8637 23.75 32.5 27.1137 32.5 31.25C32.5 32.2925 32.71 33.3025 33.125 34.25L35.4163 33.25Z" fill="#283D4C"/>
    <path d="M38.75 45H41.25V47.5H38.75V45Z" fill="#283D4C"/>
    <path d="M45 71.25H52.5V73.75H45V71.25Z" fill="#283D4C"/>
</svg>
