<svg width="60" height="60" viewBox="0 0 60 60" fill="none" xmlns="http://www.w3.org/2000/svg">
    <g clip-path="url(#clip0_52:236)">
        <path d="M49.3896 36.8205C47.5972 36.0225 44.7183 35.3021 40.8344 34.6787C40.6074 34.5868 40.3717 34.5114 40.1269 34.4585L37.3899 33.8682C37.2856 33.7147 37.2291 33.5343 37.2291 33.3437V28.5879C39.2534 26.7243 40.566 24.2651 40.8611 21.8143H41.2842C42.823 21.8143 44.0751 20.5624 44.0751 19.0236V16.9049C44.0751 16.0516 43.6906 15.2626 43.0446 14.7389C43.0445 14.2191 43.0443 13.2449 43.044 11.7127C43.0439 11.2273 42.6504 10.8339 42.165 10.834C41.6796 10.8341 41.2862 11.2276 41.2863 11.7129C41.2866 12.9076 41.2867 13.7637 41.2868 14.3295C40.7696 14.3182 40.5951 14.3607 40.3135 14.2745C40.3113 14.2738 40.3094 14.2732 40.3072 14.2726C39.7828 14.1086 39.4306 13.629 39.4306 13.0785V9.01465C39.4306 7.39981 38.1168 6.08602 36.5019 6.08602H36.2629C33.9917 6.08602 33.3458 7.1475 30.1013 7.1475C26.8879 7.1475 26.1926 6.08602 23.9397 6.08602H23.4982C21.8834 6.08602 20.5696 7.39981 20.5696 9.01465V13.0785C20.5696 13.6274 20.2187 14.1064 19.6968 14.2714C19.6947 14.2721 19.6926 14.2729 19.6903 14.2734C19.4064 14.3613 19.2288 14.3181 18.7131 14.3295V8.69707C18.7131 4.87066 21.8261 1.7577 25.6525 1.7577H34.3453C37.7874 1.7577 40.7421 4.3241 41.2183 7.72734C41.2855 8.20793 41.7293 8.5425 42.2104 8.47594C42.6911 8.40867 43.0262 7.96441 42.959 7.48383C42.3621 3.21738 38.659 0 34.3454 0H25.6526C20.8569 0 16.9555 3.90141 16.9555 8.69707V14.7391C16.3097 15.2627 15.9252 16.0518 15.9252 16.905V19.0238C15.9252 20.5627 17.1771 21.8145 18.7159 21.8145H19.1303C19.407 24.5188 20.7054 27.037 22.771 28.8309V33.3439C22.771 33.5346 22.7145 33.715 22.6102 33.8685L19.873 34.4588C19.6282 34.5116 19.3926 34.5871 19.1656 34.6789C15.2817 35.3024 12.4027 36.0227 10.6103 36.8208C7.10697 38.3805 4.84326 41.8664 4.84326 45.7014V48.2995C4.84326 48.7849 5.23678 49.1783 5.72205 49.1783C6.20732 49.1783 6.60084 48.7849 6.60084 48.2995V45.7014C6.60084 42.5599 8.45521 39.7043 11.3251 38.4265C12.5507 37.8809 14.4409 37.3525 16.8682 36.8726C16.7306 37.1726 16.6248 37.4905 16.5583 37.8234L15.9269 40.9791C15.6419 42.4041 16.6306 43.774 18.073 43.9519C18.5847 44.0149 18.7954 44.6449 18.4178 45.0019L17.8825 45.508C16.8069 46.5251 16.881 48.2214 17.8493 49.1094L27.751 58.2425H15.3448V54.4869C15.3448 54.0015 14.9513 53.6081 14.466 53.6081C13.9806 53.6081 13.5872 54.0015 13.5872 54.4869V58.2425H8.27826C7.35342 58.2425 6.60096 57.4902 6.60096 56.5654V52.4203C6.60096 51.9349 6.20744 51.5415 5.72217 51.5415C5.23689 51.5415 4.84338 51.9349 4.84338 52.4203V56.5654C4.84338 58.4591 6.38428 60 8.27826 60H51.7217C53.6156 60 55.1567 58.4591 55.1567 56.5651V45.7013C55.1567 41.8662 52.8929 38.3804 49.3896 36.8205ZM39.7563 36.1767C40.7489 36.3908 41.5191 37.1725 41.7183 38.1682L42.3496 41.3238C42.4343 41.7469 42.1429 42.1541 41.7119 42.2073C39.7221 42.4526 38.9197 44.9033 40.3746 46.2787L40.9098 46.7849C41.2095 47.0684 41.2201 47.5376 40.9406 47.8342L32.0998 55.9889L36.9724 42.8571C36.9744 42.8516 36.9764 42.8461 36.9784 42.8405C37.7651 40.5829 38.0858 38.1656 37.9219 35.7811L39.7563 36.1767ZM29.9903 31.8437H30C30 31.8437 30.0066 31.8437 30.0097 31.8437C32.5328 31.8156 34.1401 31.0277 35.4714 30.0473V33.3438C35.4714 33.7402 35.5609 34.1291 35.7262 34.4832L30 38.9351L24.2739 34.4832C24.4391 34.1291 24.5287 33.7402 24.5287 33.3438V30.1989C25.9097 31.1177 27.5939 31.8169 29.9903 31.8437ZM28.8953 44.4734L27.8021 42.1419L30 41.0326L32.198 42.1419L31.1047 44.4734H28.8953ZM33.1067 48.2224L32.58 45.4671L33.7678 42.9341L34.8638 43.4872L33.1067 48.2224ZM35.4645 41.8216L31.6361 39.8896L36.1912 36.3482C36.2664 38.1964 36.0213 40.0574 35.4645 41.8216ZM28.364 39.8896L24.5356 41.8216C23.9786 40.0574 23.7337 38.1964 23.8089 36.348L28.364 39.8896ZM26.2322 42.9341L27.42 45.4671L26.8934 48.2224L25.1363 43.4872L26.2322 42.9341ZM29.0636 46.2311H30.9366L31.9256 51.4056L30 56.5949L28.0745 51.4056L29.0636 46.2311ZM41.9139 16.0871C42.1657 16.281 42.3172 16.5799 42.3172 16.9049V19.0236C42.3172 19.5933 41.8538 20.0568 41.2841 20.0568H40.9239L40.9269 16.0873H41.9139V16.0871ZM17.6828 19.0236V16.9049C17.6828 16.5799 17.8344 16.2807 18.0864 16.087L19.0765 16.0871L19.0767 20.0566H18.7159C18.1463 20.0566 17.6828 19.5933 17.6828 19.0236ZM20.8346 20.9257L20.8342 15.6778C21.7473 15.1484 22.3272 14.1717 22.3272 13.0786V9.01465C22.3272 8.36895 22.8525 7.84371 23.4981 7.84371H23.9396C25.6501 7.84371 26.7265 8.9052 30.1012 8.9052C33.4874 8.9052 34.5129 7.84371 36.2628 7.84371H36.5018C37.1475 7.84371 37.6728 8.36895 37.6728 9.01465V13.0785C37.6728 14.1739 38.2541 15.1512 39.1696 15.6799L39.1655 20.9255C39.1119 23.2795 37.8455 25.7475 35.7768 27.5289C34.14 28.938 32.8469 30.0517 30 30.0859C27.371 30.0543 25.7165 29.0483 23.9519 27.5289C22.0274 25.872 20.8915 23.4657 20.8346 20.9257ZM19.0902 46.7849L19.6255 46.2787C21.0818 44.9019 20.2756 42.4522 18.2883 42.2073C17.8613 42.1546 17.565 41.7506 17.6505 41.3238L18.2819 38.1682C18.4811 37.1726 19.2512 36.3908 20.2437 36.1767L22.0784 35.7811C21.9144 38.1656 22.2352 40.5829 23.0219 42.8405C23.0238 42.8461 23.0258 42.8516 23.0278 42.8571L27.9005 55.9889L19.0596 47.8342C18.7806 47.5382 18.7902 47.0688 19.0902 46.7849ZM53.3991 56.5651C53.3991 57.49 52.6466 58.2423 51.7218 58.2423H46.4129V54.4867C46.4129 54.0013 46.0194 53.6079 45.5342 53.6079C45.0489 53.6079 44.6554 54.0013 44.6554 54.4867V58.2423H32.249L42.1506 49.1092C43.1141 48.2255 43.1985 46.53 42.1173 45.5078L41.582 45.0015C41.2075 44.6475 41.4112 44.0152 41.9269 43.9516C43.3692 43.7737 44.3582 42.4039 44.0729 40.9788L43.4415 37.8232C43.375 37.4903 43.2692 37.1723 43.1316 36.8723C45.5588 37.3522 47.4491 37.8806 48.6745 38.4263C51.5445 39.7041 53.3988 42.5597 53.3988 45.7011V56.5651H53.3991Z" fill="white"/>
    </g>
    <defs>
        <clipPath id="clip0_52:236">
            <rect width="60" height="60" fill="white"/>
        </clipPath>
    </defs>
</svg>
