<svg width="60" height="60" viewBox="0 0 60 60" fill="none" xmlns="http://www.w3.org/2000/svg">
    <g clip-path="url(#clip0_52:240)">
        <path d="M57.1394 35.1438H56.2415V27.0561C56.2415 25.7757 55.6042 24.642 54.631 23.9532V22.852C54.631 21.2546 53.3315 19.9551 51.7341 19.9551H51.0637L53.6288 16.1911C54.4886 14.9294 54.1617 13.2034 52.9 12.3434L35.494 0.481728C34.8829 0.0651264 34.1463 -0.0886236 33.4192 0.0493061C32.6926 0.187001 32.0629 0.599384 31.6464 1.21063L16.6229 23.2563H12.4422L13.4508 13.0458C13.4622 12.9307 13.537 12.8309 13.6413 12.7917C14.9408 12.3017 16.0669 11.3867 16.8123 10.2153C16.871 10.1231 16.9817 10.0704 17.0963 10.082L23.6535 10.7298C24.1237 10.7754 24.5419 10.4329 24.5883 9.96302C24.6348 9.4931 24.2915 9.07462 23.8216 9.02821L17.2644 8.3804C16.5032 8.30587 15.7774 8.65661 15.3696 9.29739C14.8216 10.1587 13.9935 10.8314 13.0381 11.1916C12.3189 11.4628 11.8251 12.1087 11.7492 12.8776L10.724 23.2562H9.63382L11.229 7.10728C11.2864 6.52602 11.8052 6.09899 12.3871 6.15724L25.638 7.46622C26.1079 7.51157 26.5264 7.16938 26.5728 6.69946C26.6192 6.22954 26.276 5.81106 25.806 5.76466L12.5552 4.45567C11.036 4.30579 9.67741 5.41966 9.52729 6.93911L8.24151 19.9551H6.05187C4.4546 19.9551 3.15499 21.2546 3.15499 22.852V23.6032C1.84823 24.2048 0.938389 25.5258 0.938389 27.0561V56.2001C0.938389 58.2954 2.643 60 4.73843 60H52.4416C54.5369 60 56.2415 58.2954 56.2415 56.2001V48.1125H57.1394C58.1992 48.1125 59.0614 47.2503 59.0614 46.1906V37.0658C59.0615 36.006 58.1992 35.1438 57.1394 35.1438ZM51.7341 21.6651C52.3887 21.665 52.9211 22.1975 52.9211 22.8521V23.2877C52.7639 23.2678 52.6041 23.2564 52.4416 23.2564H48.814L49.8984 21.6651H51.7341ZM33.0594 2.17345C33.2187 1.93966 33.4596 1.78192 33.7375 1.72919C33.804 1.71665 33.8707 1.71032 33.9369 1.71032C34.1474 1.71032 34.3532 1.77337 34.5311 1.89454L51.9371 13.7563C52.4197 14.0852 52.5448 14.7454 52.216 15.228L46.745 23.2561H45.432L48.1143 19.3201C48.5493 18.6818 48.5852 17.8694 48.2076 17.1999C47.7058 16.3105 47.5024 15.2632 47.6348 14.2508C47.7332 13.4976 47.4018 12.7624 46.77 12.3318L37.7467 6.18278C37.1148 5.75212 36.3092 5.71263 35.6443 6.07978C34.7507 6.57313 33.7015 6.76685 32.6902 6.62528C31.9402 6.52005 31.1796 6.85872 30.751 7.48743L20.005 23.2562H18.6921L33.0594 2.17345ZM33.4359 16.6919C29.7127 16.6919 26.6565 19.595 26.4074 23.2562H22.074L32.1637 8.45036C32.1638 8.45036 32.1638 8.45036 32.1638 8.45036C32.2211 8.3661 32.3162 8.31595 32.4138 8.31595C32.4268 8.31595 32.4398 8.31688 32.4528 8.31864C33.8283 8.51106 35.2551 8.24786 36.4706 7.57673C36.5662 7.52376 36.689 7.53138 36.7837 7.59583L45.807 13.745C45.9015 13.8095 45.9534 13.921 45.9393 14.0293C45.7592 15.4061 46.036 16.8304 46.7184 18.04C46.7731 18.1372 46.7664 18.2617 46.7015 18.3572L43.3631 23.2561H40.4647C40.2154 19.595 37.1593 16.6919 33.4359 16.6919ZM38.7501 23.2563H28.1218C28.3667 20.5388 30.6558 18.4019 33.4359 18.4019C36.216 18.4018 38.5053 20.5388 38.7501 23.2563ZM4.86487 22.852C4.86487 22.1974 5.39726 21.6649 6.05187 21.6649H8.07265L7.9155 23.2562H4.86487V22.852ZM2.64827 27.0561C2.64827 25.9037 3.58589 24.9661 4.73843 24.9661H52.4416C53.5941 24.9661 54.5316 25.9037 54.5316 27.0561V29.4284H2.64827V27.0561ZM54.5316 56.2001C54.5316 57.3525 53.5941 58.2901 52.4416 58.2901H4.73843C3.58589 58.2901 2.64827 57.3525 2.64827 56.2001V53.8277H7.25866C7.73093 53.8277 8.11354 53.445 8.11354 52.9728C8.11354 52.5007 7.73081 52.1179 7.25866 52.1179H2.64827V31.1383H54.5316V35.1438H46.4028H46.4027C43.8414 35.1438 41.6228 36.6368 40.5699 38.7978C40.5664 38.8051 40.5624 38.8121 40.5588 38.8194C40.5499 38.8378 40.5421 38.8569 40.5335 38.8754C40.4081 39.1418 40.2991 39.4175 40.2104 39.702C40.2101 39.7029 40.2099 39.7036 40.2097 39.7044C40.0204 40.3125 39.9183 40.9585 39.9183 41.6281C39.9183 45.2036 42.8272 48.1125 46.4026 48.1125H46.4027H54.5315V52.1179H12.733C12.2607 52.1179 11.8781 52.5007 11.8781 52.9728C11.8781 53.445 12.2608 53.8277 12.733 53.8277H54.5316V56.2001ZM57.3516 46.1905C57.3516 46.3074 57.2565 46.4026 57.1394 46.4026H46.4029C44.593 46.4026 43.0149 45.3902 42.2055 43.902C42.1687 43.8344 42.1335 43.7658 42.0999 43.6963C42.0328 43.5572 41.9722 43.4143 41.9186 43.2681C41.7309 42.7564 41.6285 42.204 41.6285 41.6281C41.6285 41.0523 41.731 40.4999 41.9186 39.9882C41.9723 39.8421 42.0329 39.6992 42.0999 39.56C42.1335 39.4905 42.1687 39.4218 42.2055 39.3542C43.0149 37.8661 44.593 36.8537 46.4029 36.8537H57.1394C57.2564 36.8537 57.3516 36.9488 57.3516 37.0658V46.1905Z" fill="white"/>
        <path d="M46.6032 38.1594C44.6905 38.1594 43.1344 39.7156 43.1344 41.6282C43.1344 43.5408 44.6905 45.0968 46.6032 45.0968C48.5159 45.0968 50.0719 43.5408 50.0719 41.6282C50.0719 39.7156 48.5159 38.1594 46.6032 38.1594ZM46.6032 43.3869C45.6333 43.3869 44.8443 42.5979 44.8443 41.6282C44.8443 40.6584 45.6333 39.8693 46.6032 39.8693C47.573 39.8693 48.3621 40.6583 48.3621 41.6282C48.3621 42.598 47.573 43.3869 46.6032 43.3869Z" fill="white"/>
    </g>
    <defs>
        <clipPath id="clip0_52:240">
            <rect width="60" height="60" fill="white"/>
        </clipPath>
    </defs>
</svg>
