<svg width="60" height="60" viewBox="0 0 60 60" fill="none" xmlns="http://www.w3.org/2000/svg">
    <path d="M53.5981 11.477H55.452C56.0987 11.477 56.6231 10.9525 56.6231 10.3059C56.6231 9.65917 56.0987 9.13475 55.452 9.13475H51.0018C50.3551 9.13475 49.8307 9.65917 49.8307 10.3059V14.7561C49.8307 15.4027 50.3551 15.9272 51.0018 15.9272C51.6485 15.9272 52.1729 15.4027 52.1729 14.7561V13.4675C55.7263 18.2246 57.6578 23.9967 57.6578 30C57.6578 45.2506 45.2506 57.6578 30 57.6578C14.7494 57.6578 2.34221 45.2506 2.34221 30C2.34221 14.7494 14.7494 2.34221 30 2.34221C31.1279 2.34221 32.263 2.41072 33.3742 2.54575C34.0154 2.62328 34.6001 2.16666 34.6781 1.52455C34.7562 0.882546 34.299 0.298632 33.6569 0.220636C32.4523 0.0742481 31.222 0 30 0C21.9867 0 14.453 3.12053 8.78681 8.78681C3.12053 14.453 0 21.9867 0 30C0 38.0133 3.12053 45.547 8.78681 51.2132C14.453 56.8795 21.9867 60 30 60C38.0133 60 45.547 56.8795 51.2132 51.2132C56.8795 45.547 60 38.0133 60 30C60 23.2379 57.7409 16.7462 53.5981 11.477Z" fill="white"/>
    <path d="M12.7032 17.6852C12.1567 17.3392 11.4333 17.502 11.0872 18.0482C8.4137 22.2708 7.23018 27.3489 7.75472 32.3473C8.28698 37.4199 10.5701 42.2034 14.1834 45.8168C18.544 50.1774 24.272 52.3578 30.0001 52.3578C35.7282 52.3578 41.4561 50.1775 45.8168 45.8168C54.5382 37.0955 54.5382 22.9047 45.8168 14.1835C42.209 10.5757 37.4334 8.29349 32.3693 7.75713C27.3801 7.22837 22.3075 8.40264 18.0867 11.063C17.5394 11.4079 17.3756 12.1311 17.7204 12.6782C18.0653 13.2255 18.7884 13.3893 19.3356 13.0446C27.2918 8.02988 37.5 9.17909 44.1606 15.8396C51.9687 23.6478 51.9687 36.3524 44.1606 44.1605C36.3526 51.9687 23.6477 51.9687 15.8397 44.1605C9.27118 37.592 8.10476 27.1372 13.0663 19.3013C13.4121 18.7548 13.2497 18.0312 12.7032 17.6852Z" fill="white"/>
    <path d="M45.2245 31.1901H46.6687C47.3154 31.1901 47.8398 30.6657 47.8398 30.019C47.8398 29.3723 47.3154 28.8479 46.6687 28.8479H45.2245C44.5778 28.8479 44.0534 29.3723 44.0534 30.019C44.0534 30.6657 44.5777 31.1901 45.2245 31.1901Z" fill="white"/>
    <path d="M12.1602 29.9809C12.1602 30.6276 12.6846 31.152 13.3313 31.152H14.7755C15.4222 31.152 15.9466 30.6276 15.9466 29.9809C15.9466 29.3342 15.4222 28.8098 14.7755 28.8098H13.3313C12.6846 28.8098 12.1602 29.3341 12.1602 29.9809Z" fill="white"/>
    <path d="M31.1901 14.7756V13.3314C31.1901 12.6847 30.6657 12.1603 30.019 12.1603C29.3723 12.1603 28.8479 12.6847 28.8479 13.3314V14.7756C28.8479 15.4223 29.3723 15.9467 30.019 15.9467C30.6657 15.9467 31.1901 15.4223 31.1901 14.7756Z" fill="white"/>
    <path d="M28.8099 45.2245V46.6687C28.8099 47.3153 29.3343 47.8398 29.981 47.8398C30.6277 47.8398 31.1521 47.3153 31.1521 46.6687V45.2245C31.1521 44.5778 30.6277 44.0533 29.981 44.0533C29.3343 44.0533 28.8099 44.5776 28.8099 45.2245Z" fill="white"/>
    <path d="M24.1299 22.4737C23.6725 22.0165 22.9312 22.0165 22.4736 22.4737C22.0163 22.931 22.0163 23.6726 22.4736 24.13L26.4426 28.099C26.1385 28.6658 25.9655 29.3131 25.9655 30.0001C25.9655 32.2247 27.7753 34.0345 30 34.0345C32.2246 34.0345 34.0344 32.2247 34.0344 30.0001C34.0344 29.3131 33.8614 28.6658 33.5573 28.099L41.5657 20.0906C42.023 19.6333 42.023 18.8918 41.5657 18.4343C41.1083 17.9771 40.367 17.9771 39.9094 18.4343L31.901 26.4427C31.3342 26.1386 30.687 25.9656 30 25.9656C29.313 25.9656 28.6657 26.1387 28.0989 26.4427L24.1299 22.4737ZM31.6922 30.0001C31.6922 30.9332 30.9331 31.6923 30 31.6923C29.0668 31.6923 28.3077 30.9332 28.3077 30.0001C28.3077 29.0669 29.0668 28.3078 30 28.3078C30.9331 28.3078 31.6922 29.0669 31.6922 30.0001Z" fill="white"/>
    <path d="M15.839 15.839C16.058 15.6212 16.1832 15.3191 16.1832 15.0111C16.1832 14.7031 16.058 14.4021 15.839 14.1831C15.6212 13.9654 15.3201 13.84 15.011 13.84C14.703 13.84 14.4009 13.9653 14.183 14.1831C13.9653 14.4009 13.8399 14.7031 13.8399 15.0111C13.8399 15.3202 13.9652 15.6212 14.183 15.839C14.4009 16.0568 14.703 16.1822 15.011 16.1822C15.3201 16.1822 15.6212 16.0568 15.839 15.839Z" fill="white"/>
    <path d="M38.1123 3.49895C38.4215 3.49895 38.7237 3.3747 38.9414 3.15582C39.1592 2.93799 39.2846 2.6369 39.2846 2.32784C39.2846 2.01984 39.1593 1.7177 38.9414 1.49987C38.7237 1.28216 38.4215 1.15674 38.1123 1.15674C37.8043 1.15674 37.5021 1.28205 37.2844 1.49987C37.0666 1.7177 36.9411 2.01984 36.9411 2.32784C36.9411 2.63702 37.0665 2.93799 37.2844 3.15582C37.5021 3.3747 37.8043 3.49895 38.1123 3.49895Z" fill="white"/>
</svg>
