<svg width="80" height="80" viewBox="0 0 80 80" fill="none" xmlns="http://www.w3.org/2000/svg">
    <g clip-path="url(#clip0_266:263)">
        <path d="M77.9167 57.26C76.4243 55.0669 73.8929 54.5314 71.1429 55.8255L69.6854 56.4672C71.9836 51.5688 72.2687 46.1083 71.1247 40.9505C69.8108 35.0266 66.6372 29.2879 61.6922 23.8936C61.255 23.4166 60.5139 23.3844 60.0367 23.8218C59.5597 24.259 59.5275 25 59.9648 25.4772C64.6283 30.5641 67.6133 35.9408 68.837 41.4579C70.1259 47.2693 69.3761 53.2624 66.0868 58.0516L51.5022 64.4733L51.5142 62.8261C51.5145 62.7846 51.5126 62.743 51.5084 62.7016C51.1717 59.3161 48.5839 56.6188 45.2153 56.1422C45.2053 56.1407 45.1953 56.1394 45.1851 56.1383L32.2225 54.6458C27.2379 53.9363 25.9542 50.9493 19.2036 49.246C18.7372 45.2882 19.3589 41.0743 21.0629 36.8497C23.6294 30.4875 28.6501 24.3063 35.6104 18.9261C38.2047 20.7655 49.7786 20.9944 52.3686 18.6216C53.6954 19.6293 54.9618 20.6677 56.1415 21.7188C56.3648 21.9179 56.6433 22.0157 56.9206 22.0157C57.2431 22.0157 57.5644 21.8833 57.7958 21.6235C58.2262 21.1404 58.1834 20.3997 57.7003 19.9693C56.4072 18.8172 55.0162 17.6805 53.5573 16.5819C53.8992 15.1322 53.4208 13.4355 52.1583 12.4255C55.8268 6.86114 56.8939 3.21911 55.42 1.31098C54.4076 0.000201583 53.1483 0.615358 52.6104 0.87817C51.6989 1.32317 51.2019 1.34661 50.3631 0.797858C48.7629 -0.249173 47.0811 -0.282923 45.4293 0.797858C44.58 1.35364 43.9111 1.35364 43.062 0.797858C41.4617 -0.249173 39.7804 -0.282923 38.1284 0.797858C37.28 1.35317 36.7811 1.3188 35.8839 0.872858C35.3467 0.605827 34.0887 -0.019486 33.07 1.29145C31.6292 3.14583 32.5931 6.67301 36.0142 12.0482C35.8047 12.1615 35.605 12.2944 35.4186 12.4463C34.0579 11.0094 31.8287 9.51083 28.605 9.87083C25.9311 10.17 23.9594 9.28645 22.7759 8.4927C22.2384 8.1327 21.5106 8.27614 21.1503 8.81333C20.79 9.35083 20.9336 10.0786 21.4709 10.439C22.9795 11.4504 25.4867 12.5763 28.865 12.1996C31.3556 11.9202 33.0456 13.193 34.0976 14.4883C34.0833 14.5383 34.07 14.5886 34.0576 14.639C33.1603 14.653 31.8192 14.7368 30.3423 15.044C26.7904 15.7829 24.1539 17.4708 22.7175 19.9258C22.3908 20.4843 22.5786 21.2021 23.137 21.529C23.6956 21.8557 24.4133 21.6677 24.74 21.1093C26.8765 17.4579 32.0917 17.0113 34.1631 16.9833C34.172 17.0091 34.1825 17.0346 34.1919 17.0602C26.8 22.7622 21.6537 29.1211 18.89 35.9727C17.1431 40.3035 16.4453 44.6422 16.7995 48.7655C15.6759 48.5993 14.5394 48.51 13.3973 48.5022V47.7936C13.3973 45.9188 11.872 44.3936 9.99717 44.3936H4.61842C2.74357 44.3936 1.21826 45.9189 1.21826 47.7936V75.0818C1.21826 76.9568 2.74357 78.4819 4.61842 78.4819H9.99701C11.8719 78.4819 13.3972 76.9566 13.3972 75.0818V74.748L25.1301 79.115C26.7069 79.7018 28.3594 79.9994 30.0417 79.9994H47.5239C50.1967 79.9994 52.8028 79.2432 55.0603 77.8127C78.382 63.0283 76.9658 63.9482 77.1004 63.8288C78.979 62.1613 79.33 59.3372 77.9167 57.26ZM50.1698 17.2332C45.8851 18.315 41.7192 18.315 37.4336 17.2332C35.5947 16.7683 36.1275 13.4886 38.1037 13.9843C41.9378 14.9468 45.6653 14.9468 49.4997 13.9843C51.4415 13.4968 52.0383 16.761 50.1698 17.2332ZM34.8137 2.95801C34.8229 2.96255 34.8322 2.96723 34.8409 2.97161C36.4267 3.75973 37.8162 3.80255 39.4114 2.75895C41.4076 1.45223 41.6244 3.54739 44.2454 3.54739C45.5073 3.54739 46.2037 3.09176 46.7122 2.75895C47.5617 2.20301 48.2308 2.20333 49.0801 2.75895C50.6823 3.80739 52.0383 3.75567 53.6701 2.96864C53.9112 3.8377 53.3656 6.42848 49.8912 11.6013C48.1659 11.5719 45.6622 13.2665 38.5744 11.6891C35.1075 6.44942 34.5714 3.83348 34.8137 2.95801ZM75.6083 62.019L53.8061 75.8341C51.9244 77.0265 49.752 77.6569 47.524 77.6569H30.0419C28.6395 77.6569 27.262 77.4088 25.9476 76.9196L13.3972 72.2482V59.6302C13.3972 58.983 12.8726 58.4585 12.2256 58.4585C11.5786 58.4585 11.054 58.983 11.054 59.6302V75.0824C11.054 75.6652 10.5798 76.1393 9.99717 76.1393H4.61842C4.03561 76.1393 3.56154 75.665 3.56154 75.0824V47.7943C3.56154 47.2114 4.03561 46.7375 4.61842 46.7375H9.99701C10.5798 46.7375 11.0539 47.2116 11.0539 47.7943V54.1527C11.0539 54.7999 11.5784 55.3244 12.2254 55.3244C12.8725 55.3244 13.397 54.7999 13.397 54.1527V50.8461C23.0894 50.9204 25.2686 56.029 31.9089 56.9682C31.9189 56.9697 31.9289 56.971 31.9389 56.9721L44.9009 58.4644C47.1706 58.7921 48.9173 60.5994 49.1701 62.8749L49.1539 65.1036H37.0656C36.4186 65.1036 35.8939 65.6282 35.8939 66.2754C35.8939 66.9225 36.4184 67.4471 37.0656 67.4471H50.317C50.465 67.4471 50.6359 67.4143 50.7847 67.3494C50.8086 67.3388 72.0758 57.9752 72.1006 57.9643C73.6336 57.283 75.0312 57.1857 75.979 58.5785C76.7159 59.6608 76.5528 61.1241 75.6083 62.019Z" fill="#283D4C"/>
        <path d="M44.1104 53.1594C44.7574 53.1594 45.2821 52.6348 45.2821 51.9877V50.0455C48.5714 49.5117 50.4906 46.8494 50.9081 44.3656C51.4296 41.263 49.8045 38.5647 46.7679 37.4914C46.2314 37.3017 45.7376 37.1203 45.282 36.9452V29.4745C46.6681 29.7044 47.5003 30.4217 47.5609 30.4753C48.0368 30.9081 48.7734 30.8761 49.2101 30.4027C49.6489 29.927 49.6189 29.1858 49.1432 28.747C49.0606 28.6708 47.6256 27.3788 45.282 27.1086V25.4423C45.282 24.7952 44.7574 24.2706 44.1103 24.2706C43.4632 24.2706 42.9387 24.7952 42.9387 25.4423V27.2033C42.6562 27.2573 42.3668 27.3261 42.0695 27.4156C40.082 28.0142 38.5963 29.7184 38.1921 31.863C37.8254 33.8091 38.4424 35.6806 39.8023 36.7472C40.5831 37.3595 41.5659 37.9202 42.9387 38.5195V47.7853C41.5837 47.728 40.7496 47.4736 39.2946 46.5217C38.7532 46.1677 38.027 46.3191 37.6728 46.8608C37.3185 47.4022 37.4702 48.1284 38.0118 48.4827C39.9245 49.7339 41.2031 50.0603 42.9387 50.1278V51.9877C42.9387 52.6348 43.4632 53.1594 44.1104 53.1594ZM41.2485 34.9034C40.5796 34.3788 40.2907 33.38 40.4949 32.297C40.6843 31.2927 41.3748 30.0723 42.7454 29.6595C42.8106 29.6398 42.8746 29.623 42.9387 29.6058V35.9347C42.2371 35.5844 41.687 35.2473 41.2485 34.9034ZM45.987 39.7008C48.9026 40.7313 48.722 43.2347 48.5971 43.9773C48.3387 45.515 47.2099 47.1566 45.282 47.6506V39.4469C45.5101 39.5303 45.7431 39.6145 45.987 39.7008Z" fill="#283D4C"/>
    </g>
    <defs>
        <clipPath id="clip0_266:263">
            <rect width="80" height="80" fill="white"/>
        </clipPath>
    </defs>
</svg>
