<svg width="80" height="80" viewBox="0 0 80 80" fill="none" xmlns="http://www.w3.org/2000/svg">
    <path d="M60.9212 51.2053L47.742 46.8114V44.1381C50.5936 42.2738 52.7275 39.4115 53.6631 36.0515C56.8593 35.671 59.3549 32.9744 59.3549 29.6774V19.3548C59.3549 8.68259 50.6723 0 40.0001 0C29.3278 0 20.6453 8.68259 20.6453 19.3548V29.6774C20.6453 32.9744 23.1408 35.671 26.337 36.0515C27.2708 39.4128 29.4066 42.2738 32.2582 44.1381V46.8114L19.079 51.204C15.3857 52.4364 12.9033 55.8802 12.9033 59.7744V80H67.0969V59.7744C67.0969 55.8802 64.6145 52.4364 60.9212 51.2053ZM52.3741 51.0761L48.6184 58.59L42.0231 52.9379L46.7113 49.1885L52.3741 51.0761ZM38.5126 64.5161H41.4876L43.6386 77.4193H36.3616L38.5126 64.5161ZM41.5242 61.9355H38.4773L37.4491 56.7899L40.0001 54.6024L42.5524 56.7899L41.5242 61.9355ZM43.2335 34.3599L40.0001 31.9355L36.7667 34.3599L37.5536 30.4234L34.0506 27.7961L38.3576 26.9355L40.0001 22.8283L41.6413 26.9342L45.9483 27.7949L42.4453 30.4221L43.2335 34.3599ZM28.3872 26.2966V23.2258H37.0622L36.4813 24.6774L28.3872 26.2966ZM43.5201 24.6774L42.938 23.2258H51.613V26.2966L43.5201 24.6774ZM54.1395 33.3279C54.1665 32.9732 54.1936 32.6191 54.1936 32.2581V26.044C55.6919 26.5783 56.7743 27.9977 56.7743 29.6774C56.7743 31.3766 55.666 32.8087 54.1395 33.3279ZM40.0001 2.58065C49.2491 2.58065 56.7743 10.1058 56.7743 19.3548V24.5495C56.0208 23.9793 55.1526 23.5522 54.1936 23.3575V20.6452H41.906L40.0001 15.8814L38.0942 20.6452H25.8065V23.3562C24.8476 23.5522 23.9794 23.9781 23.2259 24.5483V19.3548C23.2259 10.1058 30.7511 2.58065 40.0001 2.58065ZM23.2259 29.6774C23.2259 27.9977 24.3083 26.5783 25.8065 26.044V32.2581C25.8065 32.6191 25.8336 32.9732 25.8607 33.3279C24.3341 32.8087 23.2259 31.3766 23.2259 29.6774ZM28.3872 32.2581V26.7742L34.7046 31.5121L32.9109 40.4788L40.0001 35.1613L47.0893 40.4788L45.2956 31.5121L51.613 26.7742V32.2581C51.613 38.6605 46.4038 43.871 40.0001 43.871C33.5964 43.871 28.3872 38.6605 28.3872 32.2581ZM40.0001 46.4516C41.8222 46.4516 43.5586 46.0944 45.1614 45.4656V47.1213L40.0001 51.2506L34.8388 47.1213V45.4656C36.4416 46.0944 38.178 46.4516 40.0001 46.4516ZM33.2902 49.1885L37.9783 52.9379L31.383 58.59L27.6274 51.0761L33.2902 49.1885ZM15.484 59.7744C15.484 56.9922 17.2569 54.5331 19.8955 53.653L25.1526 51.9008L30.5526 62.7004L35.2011 58.716L36.1071 63.2466L33.7457 77.4193H24.5162V63.2258H21.9356V77.4193H15.484V59.7744ZM64.5162 77.4193H58.0646V63.2258H55.484V77.4193H46.2545L43.8918 63.2453L44.7972 58.7147L49.4463 62.6991L54.8464 51.8996L60.1034 53.6517C62.7433 54.5331 64.5162 56.9922 64.5162 59.7744V77.4193Z" fill="#283D4C"/>
</svg>
