<svg width="50" height="50" viewBox="0 0 50 50" fill="none" xmlns="http://www.w3.org/2000/svg">
    <g clip-path="url(#clip0_109:4949)">
        <path d="M41.6663 36.0298L39.5439 34.7582C38.8969 34.3713 38.1568 34.167 37.4028 34.1666H34.2086C33.5547 34.1654 32.9037 34.2496 32.2713 34.4164L22.6473 36.9998C21.5951 37.2904 20.7499 38.0741 20.3813 39.1015L11.9161 34.5218C11.2297 34.1312 10.426 33.9985 9.65049 34.1475C9.35792 34.1991 9.07431 34.2923 8.80779 34.4242C8.20599 34.7122 7.70672 35.1777 7.37631 35.7576C7.08742 36.2625 6.93564 36.8342 6.93564 37.4157C6.92669 38.603 7.55576 39.7033 8.58278 40.2982L23.7545 49.3757C24.4137 49.7839 25.1729 49.9999 25.9481 49.9999H37.6896C38.2141 50.0003 38.7337 49.901 39.2212 49.7082L41.6663 48.7426V49.9999H49.9996V33.3333H41.6663V36.0298ZM38.6088 48.1583C38.3171 48.2734 38.0058 48.3329 37.6921 48.3333H25.9481C25.4785 48.3329 25.0183 48.2006 24.6204 47.9516L9.42791 38.8634C8.91155 38.5652 8.59539 38.0126 8.59946 37.4165C8.60068 37.1244 8.67758 36.8371 8.82285 36.5832C8.98886 36.2955 9.2387 36.0648 9.53859 35.9224C9.67083 35.8581 9.8108 35.8125 9.95525 35.7873C10.0606 35.7677 10.1677 35.7576 10.2747 35.7576C10.5611 35.7568 10.8427 35.8316 11.0913 35.974L20.2706 40.9342C20.2812 40.985 20.2812 41.0351 20.2946 41.0859C20.6893 42.5406 22.0089 43.5509 23.5165 43.5526C23.9803 43.5103 24.4397 43.4281 24.8897 43.3076L33.5478 40.9907L33.1181 39.3806L24.4881 41.6873C24.1081 41.7748 23.6178 41.8749 23.5165 41.8835C22.7637 41.8847 22.1037 41.3818 21.9055 40.6558C21.8787 40.5549 21.8628 40.4516 21.8571 40.3474C21.8571 40.3474 21.8506 40.1456 21.8571 40.0748C21.9206 39.3778 22.4089 38.7926 23.0831 38.6051L32.7031 36.0314C33.1942 35.9 33.7004 35.8333 34.2086 35.8333H37.4028C37.8552 35.8333 38.2992 35.9561 38.6869 36.1885L41.6663 37.9723V46.9498L38.6088 48.1583ZM43.3329 34.9999H48.3329V48.3333H43.3329V34.9999Z" fill="#283D4C"/>
        <path d="M34.3701 6.66645L29.8999 2.19665C28.4965 0.785105 26.5869 -0.0059102 24.5968 -0.000213584H14.1199C13.4733 0.000600218 12.8357 0.15156 12.2567 0.439646L10.389 1.37389C10.0146 1.56229 9.5988 1.65221 9.18009 1.63553L8.33333 1.60582V-0.000213584H0V18.3331H8.33333V15.8331H9.75016L10.2543 16.1664C11.665 17.1031 13.3077 17.632 15 17.6939V28.3331H50V6.66645H34.3701ZM6.66667 16.6665H1.66667V1.66645H6.66667V16.6665ZM11.1768 14.7797L10.2498 14.1665H8.33333V3.27331L9.11906 3.30138C9.81689 3.3262 10.5094 3.17606 11.134 2.86478L13.0001 1.93053C13.3476 1.75679 13.7313 1.66645 14.1199 1.66645H24.5968C26.1446 1.66198 27.6302 2.27721 28.7215 3.37462L32.0133 6.66645H25.1367L23.114 4.64416L21.936 5.82213L27.8227 11.7092C28.4766 12.3602 28.4786 13.4182 27.8276 14.0725C27.1761 14.7263 26.1182 14.7284 25.4643 14.0773L20.5477 9.16076L19.9642 9.66084C18.3533 11.0288 15.9985 11.0638 14.3473 9.74385L13.8643 9.35241L12.8141 10.6472L13.3024 11.0431C13.8131 11.4512 14.3864 11.7743 15 11.9997V16.0264C13.6361 15.9658 12.314 15.5349 11.1768 14.7797ZM23.031 13.9996L24.2883 15.2574C25.5937 16.5432 27.6892 16.5452 28.9966 15.2614C27.7734 17.1555 28.256 19.6763 30.0924 20.9845C31.9287 22.2927 34.469 21.9252 35.8594 20.1507C37.2498 18.3758 36.9987 15.8213 35.2889 14.3516C33.5795 12.8819 31.016 13.0166 29.4702 14.6572C30.0395 13.7632 30.1412 12.6491 29.7432 11.6665H40.9025C41.261 13.7632 42.9032 15.4055 45 15.7639V19.2356C42.9032 19.5941 41.261 21.2364 40.9025 23.3331H24.0975C23.739 21.2364 22.0968 19.5941 20 19.2356V15.7639C21.191 15.5633 22.2681 14.9363 23.031 13.9996ZM30 17.4998C30 16.1192 31.1194 14.9998 32.5 14.9998C33.8806 14.9998 35 16.1192 35 17.4998C35 18.8804 33.8806 19.9998 32.5 19.9998C31.1194 19.9998 30 18.8804 30 17.4998ZM48.3333 26.6665H16.6667V12.3488C17.9879 12.4481 19.305 12.1112 20.4167 11.3906L21.8384 12.8123C21.213 13.6619 20.2218 14.1644 19.1667 14.1665H18.3333V20.8331H19.1667C21.0075 20.8331 22.5 22.3256 22.5 24.1665V24.9998H42.5V24.1665C42.5 22.3256 43.9925 20.8331 45.8333 20.8331H46.6667V14.1665H45.8333C43.9925 14.1665 42.5 12.6739 42.5 10.8331V9.99979H28.4701L26.8034 8.33312H48.3333V26.6665Z" fill="#283D4C"/>
    </g>
    <defs>
        <clipPath id="clip0_109:4949">
            <rect width="50" height="50" fill="white"/>
        </clipPath>
    </defs>
</svg>
