<svg width="80" height="80" viewBox="0 0 80 80" fill="none" xmlns="http://www.w3.org/2000/svg">
    <path d="M69.8799 10.6023H63.1329V3.85546C63.133 1.73484 61.3979 0 59.2783 0H10.1209C8.00047 0 6.26562 1.73484 6.26562 3.85546V65.5421C6.26562 67.6625 8.00047 69.3975 10.1211 69.3975H16.8681V76.1445C16.8681 78.265 18.6022 80 20.7236 80H53.4937C55.6132 80 58.6127 78.8106 60.1558 77.3581L70.926 67.2203C72.471 65.7678 73.7336 62.8435 73.7336 60.723L73.7355 14.4581C73.7353 12.3373 72.0003 10.6023 69.8799 10.6023ZM16.8678 14.4579V66.506H10.1209C9.59859 66.506 9.15718 66.0646 9.15718 65.5422V3.85546C9.15718 3.33312 9.59859 2.89171 10.1209 2.89171H59.2785C59.7999 2.89171 60.2422 3.33312 60.2422 3.85546V10.6025H20.7233C18.6019 10.6025 16.8678 12.3373 16.8678 14.4579ZM68.9441 65.115L58.174 75.252C57.9533 75.4594 57.666 75.6627 57.3488 75.8563V66.9878C57.3488 66.3257 57.6158 65.7299 58.0563 65.2866C58.5007 64.8461 59.0963 64.5783 59.7585 64.5783H69.4019C69.2524 64.7814 69.0993 64.9685 68.9441 65.115ZM70.8418 60.7227C70.8418 61.0089 70.7896 61.3405 70.7106 61.6864H59.7583C56.8332 61.6922 54.463 64.0624 54.4571 66.9877V76.9914C54.113 77.0609 53.7815 77.108 53.4933 77.108H20.7233V77.1081C20.1998 77.1081 19.7595 76.6667 19.7595 76.1444V14.4578C19.7595 13.9354 20.2 13.494 20.7233 13.494H69.8797C70.4021 13.494 70.8435 13.9354 70.8435 14.4578L70.8418 60.7227Z" fill="#283D4C"/>
    <path d="M59.2783 24.0961H31.3266C30.5276 24.0961 29.8809 24.7428 29.8809 25.5418C29.8809 26.3409 30.5277 26.9876 31.3266 26.9876H59.2783C60.0764 26.9876 60.7241 26.3409 60.7241 25.5418C60.7241 24.7428 60.0764 24.0961 59.2783 24.0961Z" fill="#283D4C"/>
    <path d="M59.2783 43.3732H31.3266C30.5276 43.3732 29.8809 44.0199 29.8809 44.8189C29.8809 45.618 30.5277 46.2647 31.3266 46.2647H59.2783C60.0764 46.2647 60.7241 45.618 60.7241 44.8189C60.7241 44.0197 60.0764 43.3732 59.2783 43.3732Z" fill="#283D4C"/>
    <path d="M46.7482 53.0117H31.3266C30.5276 53.0117 29.8809 53.6584 29.8809 54.4575C29.8809 55.2566 30.5276 55.9033 31.3266 55.9033H46.7482C47.5463 55.9033 48.193 55.2566 48.193 54.4575C48.193 53.6584 47.5463 53.0117 46.7482 53.0117Z" fill="#283D4C"/>
    <path d="M59.2783 33.7346H31.3266C30.5276 33.7346 29.8809 34.3813 29.8809 35.1804C29.8809 35.9795 30.5277 36.6262 31.3266 36.6262H59.2783C60.0764 36.6262 60.7241 35.9795 60.7241 35.1804C60.7241 34.3813 60.0764 33.7346 59.2783 33.7346Z" fill="#283D4C"/>
</svg>
