<svg width="60" height="78" viewBox="0 0 60 78" fill="none" xmlns="http://www.w3.org/2000/svg">
    <path d="M56.25 12.75H49.5962L46.35 4.63625C45.285 1.97125 42.7412 0.25 39.8725 0.25C38.0075 0.25 36.255 0.97625 34.9388 2.29375C33.8375 3.39375 32.375 4 30.8187 4H29.18C27.625 4 26.1625 3.39375 25.0612 2.29375C23.7437 0.975 21.9912 0.25 20.1275 0.25C17.2587 0.25 14.715 1.97125 13.6488 4.63625L10.4037 12.75H3.75C1.6825 12.75 0 14.4325 0 16.5C0 18.5675 1.6825 20.25 3.75 20.25H12.5V22.8762C9.65125 23.4575 7.5 25.9813 7.5 29C7.5 32.0375 9.68 34.57 12.5575 35.13C12.8687 39.9688 15.1438 44.275 18.6063 47.2562L9.92625 49.9263C6.2325 51.0625 3.75 54.425 3.75 58.29V76.5C3.75 77.1913 4.31 77.75 5 77.75H55C55.69 77.75 56.25 77.1913 56.25 76.5V58.29C56.25 54.425 53.7675 51.0638 50.0737 49.9263L41.3938 47.2562C44.8563 44.275 47.1325 39.97 47.4425 35.13C50.32 34.57 52.5 32.0375 52.5 29C52.5 25.9825 50.3488 23.4575 47.5 22.8762V20.25H56.25C58.3175 20.25 60 18.5675 60 16.5C60 14.4325 58.3175 12.75 56.25 12.75ZM15.97 5.56375C16.655 3.855 18.2862 2.75 20.1275 2.75C21.3237 2.75 22.4475 3.215 23.2925 4.06125C24.8675 5.635 26.9575 6.5 29.1812 6.5H30.82C33.0425 6.5 35.1338 5.635 36.7075 4.06125C37.5525 3.215 38.6762 2.75 39.8725 2.75C41.7137 2.75 43.345 3.855 44.0287 5.56375L46.9037 12.75H13.0962L15.97 5.56375ZM10 29C10 27.3725 11.0487 25.9975 12.5 25.48V32.5187C11.0487 32.0025 10 30.6275 10 29ZM40.0675 49.4637L41.0288 54.27L37.2625 55.0225L39.4938 49.2863L40.0675 49.4637ZM19.9325 49.4637L20.5075 49.2875L22.7388 55.0238L18.9725 54.2712L19.9325 49.4637ZM23.9287 58.0887L26.68 65.1637L21.7675 60.25L23.9287 58.0887ZM36.0712 58.0887L38.2325 60.25L33.32 65.1625L36.0712 58.0887ZM30 66.8013L23.5675 50.2588C25.5613 51.0513 27.7275 51.5 30 51.5C32.2725 51.5 34.4388 51.0513 36.4325 50.2588L30 66.8013ZM6.25 58.29C6.25 55.5287 8.0225 53.1275 10.6612 52.3162L17.215 50.3L16.2737 55.005C16.1387 55.6825 16.5775 56.34 17.2537 56.4762L21.2138 57.2688L19.115 59.3675C18.6262 59.8562 18.6262 60.6463 19.115 61.135L28.75 70.7675V75.25H15V61.5H12.5V75.25H6.25V58.29ZM53.75 58.29V75.25H47.5V61.5H45V75.25H31.25V70.7675L40.8838 61.1338C41.3725 60.645 41.3725 59.855 40.8838 59.3662L38.785 57.2675L42.745 56.475C43.4225 56.34 43.8612 55.6813 43.725 55.0038L42.7838 50.2988L49.3375 52.315C51.9775 53.1275 53.75 55.5287 53.75 58.29ZM50 29C50 30.6275 48.9512 32.0025 47.5 32.52V25.4812C48.9512 25.9975 50 27.3725 50 29ZM45 34C45 42.2713 38.2713 49 30 49C21.7288 49 15 42.2713 15 34V20.25H45V34ZM56.25 17.75H3.75C3.06125 17.75 2.5 17.19 2.5 16.5C2.5 15.81 3.06125 15.25 3.75 15.25H11.25H48.75H56.25C56.9388 15.25 57.5 15.81 57.5 16.5C57.5 17.19 56.9388 17.75 56.25 17.75Z" fill="#C7AB8E"/>
    <path d="M25.4163 32.25C25.14 31.6188 25 30.9462 25 30.25C25 27.4925 27.2425 25.25 30 25.25C32.7575 25.25 35 27.4925 35 30.25C35 33.0075 32.7575 35.25 30 35.25C29.31 35.25 28.75 35.8088 28.75 36.5V41.5H31.25V37.6462C34.7925 37.0487 37.5 33.96 37.5 30.25C37.5 26.1137 34.1362 22.75 30 22.75C25.8637 22.75 22.5 26.1137 22.5 30.25C22.5 31.2925 22.71 32.3025 23.125 33.25L25.4163 32.25Z" fill="#C7AB8E"/>
    <path d="M28.75 44H31.25V46.5H28.75V44Z" fill="#C7AB8E"/>
    <path d="M35 70.25H42.5V72.75H35V70.25Z" fill="#C7AB8E"/>
</svg>
