<svg width="80" height="80" viewBox="0 0 80 80" fill="none" xmlns="http://www.w3.org/2000/svg">
    <path d="M31.252 48.7301L33.752 48.7688C33.7645 47.9913 33.8295 47.2051 33.947 46.4338L31.4745 46.0601C31.3407 46.9426 31.2657 47.8401 31.252 48.7301Z" fill="#283D4C"/>
    <path d="M40.2962 32.4814C36.3349 35.0276 33.4149 38.9001 32.0762 43.3826L34.4712 44.0976C35.6399 40.1864 38.1887 36.8089 41.6487 34.5839L43.2424 33.5601L41.8912 31.4576L40.2962 32.4814Z" fill="#283D4C"/>
    <path d="M73.748 48.7263L71.248 48.7726L71.2505 49.0513C71.2505 49.7101 71.213 50.3776 71.1367 51.0326L73.6205 51.3188C73.7067 50.5688 73.7505 49.8063 73.7505 49.0526L73.748 48.7263Z" fill="#283D4C"/>
    <path d="M59.5967 65.3337L60.4042 67.6999C66.6504 65.5674 71.3917 60.4899 73.0879 54.1212L70.6717 53.4762C69.1929 59.0374 65.0517 63.4699 59.5967 65.3337Z" fill="#283D4C"/>
    <path d="M67.4075 28.2763L63.8487 25.9888C65.25 25.445 66.25 24.0913 66.25 22.5C66.25 20.5925 64.8138 19.0313 62.97 18.7975L68.75 13.0175V12.5C68.75 9.73377 66.68 7.38752 63.9338 7.04502L61.6325 6.75752L62.8325 2.85877L55.7487 1.08752L52.56 5.33752L50.575 2.36002L42.115 4.05252L43.0312 6.80002L41.065 7.04502C38.32 7.38752 36.25 9.73377 36.25 12.5V13.0175L42.03 18.7975C40.1862 19.0313 38.75 20.5925 38.75 22.5C38.75 24.0913 39.75 25.445 41.1513 25.9888L37.5925 28.2763C30.49 32.84 26.25 40.6075 26.25 49.0513C26.25 49.785 26.2938 50.5188 26.3575 51.25H16.25V41.25H7.5C4.05375 41.25 1.25 44.0538 1.25 47.5V72.5C1.25 75.9463 4.05375 78.75 7.5 78.75H51.25V73.75H54.0513C67.67 73.75 78.75 62.6713 78.75 49.0513C78.75 40.6075 74.51 32.84 67.4075 28.2763ZM63.6237 9.52502C64.9587 9.69252 66.0025 10.7288 66.2113 12.02L59.4825 18.75H57.9425L60.8862 9.18252L63.6237 9.52502ZM49.425 5.14002L52.4412 9.66252L56.7537 3.91252L59.6688 4.64127L55.3275 18.75H49.6513L45.3838 5.94877L49.425 5.14002ZM41.3763 9.52502L43.8375 9.21752L47.015 18.75H45.5175L38.7887 12.02C38.9975 10.7288 40.0413 9.69252 41.3763 9.52502ZM42.5 21.25H62.5C63.1888 21.25 63.75 21.81 63.75 22.5C63.75 23.19 63.1888 23.75 62.5 23.75H42.5C41.8112 23.75 41.25 23.19 41.25 22.5C41.25 21.81 41.8112 21.25 42.5 21.25ZM7.5 43.75H13.75V51.25H7.5C5.4325 51.25 3.75 49.5675 3.75 47.5C3.75 45.4325 5.4325 43.75 7.5 43.75ZM7.5 76.25C5.4325 76.25 3.75 74.5675 3.75 72.5V52.4975C4.795 53.2838 6.09375 53.75 7.5 53.75H13.3687C9.82625 56.24 7.5 60.35 7.5 65C7.5 69.65 9.82625 73.76 13.3687 76.25H7.5ZM21.25 53.75C27.4525 53.75 32.5 58.7963 32.5 65C32.5 71.2038 27.4525 76.25 21.25 76.25C15.0475 76.25 10 71.2038 10 65C10 58.7963 15.0475 53.75 21.25 53.75ZM48.75 76.25H29.1313C32.6737 73.76 35 69.65 35 65C35 60.35 32.6737 56.24 29.1313 53.75H48.75V76.25ZM51.25 53.22C52.0175 53.5575 52.86 53.75 53.75 53.75C55.8175 53.75 57.5 55.4325 57.5 57.5C57.5 59.5675 55.8175 61.25 53.75 61.25H51.25V53.22ZM54.0513 71.25H51.25V63.75H53.75C57.1963 63.75 60 60.9463 60 57.5C60 54.0538 57.1963 51.25 53.75 51.25C51.6825 51.25 50 49.5675 50 47.5C50 45.4325 51.6825 43.75 53.75 43.75H57.5V47.5H60V41.25H55V38.75H52.5V41.3763C49.6512 41.9575 47.5 44.4813 47.5 47.5C47.5 48.9125 47.9888 50.2025 48.7825 51.25H28.8713C28.8 50.52 28.75 49.7863 28.75 49.0513C28.75 41.4625 32.5613 34.4825 38.9438 30.3788L45.3662 26.25H59.6338L66.0563 30.3788C72.4388 34.4825 76.25 41.4625 76.25 49.0513C76.25 61.2913 66.2913 71.25 54.0513 71.25Z" fill="#283D4C"/>
    <path d="M20 73.75H22.5V71.25C24.5675 71.25 26.25 69.5675 26.25 67.5C26.25 65.4325 24.5675 63.75 22.5 63.75H20C19.3112 63.75 18.75 63.19 18.75 62.5C18.75 61.81 19.3112 61.25 20 61.25H23.75V62.5H26.25V58.75H22.5V56.25H20V58.75C17.9325 58.75 16.25 60.4325 16.25 62.5C16.25 64.5675 17.9325 66.25 20 66.25H22.5C23.1887 66.25 23.75 66.81 23.75 67.5C23.75 68.19 23.1887 68.75 22.5 68.75H18.75V67.5H16.25V71.25H20V73.75Z" fill="#283D4C"/>
    <path d="M43.75 62.5H46.25V56.25H40V58.75H43.75V62.5Z" fill="#283D4C"/>
    <path d="M46.25 67.5H43.75V71.25H40V73.75H46.25V67.5Z" fill="#283D4C"/>
</svg>
