<svg width="80" height="80" viewBox="0 0 80 80" fill="none" xmlns="http://www.w3.org/2000/svg">
    <path d="M69.8794 10.6023H63.1324V3.85546C63.1325 1.73484 61.3974 0 59.2778 0H10.1204C7.99998 0 6.26514 1.73484 6.26514 3.85546V65.5421C6.26514 67.6625 7.99998 69.3975 10.1206 69.3975H16.8676V76.1445C16.8676 78.265 18.6017 80 20.7231 80H53.4932C55.6127 80 58.6122 78.8106 60.1553 77.3581L70.9255 67.2203C72.4705 65.7678 73.7331 62.8435 73.7331 60.723L73.735 14.4581C73.7348 12.3373 71.9999 10.6023 69.8794 10.6023ZM16.8673 14.4579V66.506H10.1204C9.5981 66.506 9.15669 66.0646 9.15669 65.5422V3.85546C9.15669 3.33312 9.5981 2.89171 10.1204 2.89171H59.278C59.7994 2.89171 60.2417 3.33312 60.2417 3.85546V10.6025H20.7228C18.6014 10.6025 16.8673 12.3373 16.8673 14.4579ZM68.9436 65.115L58.1735 75.252C57.9528 75.4594 57.6655 75.6627 57.3483 75.8563V66.9878C57.3483 66.3257 57.6153 65.7299 58.0558 65.2866C58.5002 64.8461 59.0958 64.5783 59.758 64.5783H69.4014C69.2519 64.7814 69.0988 64.9685 68.9436 65.115ZM70.8413 60.7227C70.8413 61.0089 70.7891 61.3405 70.7102 61.6864H59.7578C56.8327 61.6922 54.4625 64.0624 54.4566 66.9877V76.9914C54.1125 77.0609 53.781 77.108 53.4929 77.108H20.7228V77.1081C20.1993 77.1081 19.759 76.6667 19.759 76.1444V14.4578C19.759 13.9354 20.1995 13.494 20.7228 13.494H69.8792C70.4016 13.494 70.843 13.9354 70.843 14.4578L70.8413 60.7227Z" fill="#C7AB8E"/>
    <path d="M59.2779 24.0961H31.3262C30.5272 24.0961 29.8804 24.7428 29.8804 25.5418C29.8804 26.3409 30.5273 26.9876 31.3262 26.9876H59.2779C60.076 26.9876 60.7237 26.3409 60.7237 25.5418C60.7237 24.7428 60.076 24.0961 59.2779 24.0961Z" fill="#C7AB8E"/>
    <path d="M59.2779 43.3732H31.3262C30.5272 43.3732 29.8804 44.0199 29.8804 44.8189C29.8804 45.618 30.5273 46.2647 31.3262 46.2647H59.2779C60.076 46.2647 60.7237 45.618 60.7237 44.8189C60.7237 44.0197 60.076 43.3732 59.2779 43.3732Z" fill="#C7AB8E"/>
    <path d="M46.7479 53.0117H31.3264C30.5273 53.0117 29.8806 53.6584 29.8806 54.4575C29.8806 55.2566 30.5273 55.9033 31.3264 55.9033H46.7479C47.546 55.9033 48.1928 55.2566 48.1928 54.4575C48.1928 53.6584 47.546 53.0117 46.7479 53.0117Z" fill="#C7AB8E"/>
    <path d="M59.2779 33.7346H31.3262C30.5272 33.7346 29.8804 34.3813 29.8804 35.1804C29.8804 35.9795 30.5273 36.6262 31.3262 36.6262H59.2779C60.076 36.6262 60.7237 35.9795 60.7237 35.1804C60.7237 34.3813 60.076 33.7346 59.2779 33.7346Z" fill="#C7AB8E"/>
</svg>
