<svg width="60" height="60" viewBox="0 0 60 60" fill="none" xmlns="http://www.w3.org/2000/svg">
    <path d="M57.1875 41.6408V8.26172C57.1875 6.29086 55.584 4.6875 53.6133 4.6875H45.1172V3.51562C45.1172 1.57711 43.5401 0 41.6016 0C39.663 0 38.0859 1.57711 38.0859 3.51562V4.6875H19.1016V3.51562C19.1016 1.57711 17.5245 0 15.5859 0C13.6474 0 12.0703 1.57711 12.0703 3.51562V4.6875H3.57422C1.60348 4.6875 0 6.29086 0 8.26172V51.7383C0 53.7091 1.60348 55.3125 3.57422 55.3125H19.547C20.1941 55.3125 20.7189 54.7879 20.7189 54.1406C20.7189 53.4934 20.1941 52.9688 19.547 52.9688H3.57422C2.8957 52.9688 2.34375 52.4168 2.34375 51.7383V8.26172C2.34375 7.5832 2.8957 7.03125 3.57422 7.03125H12.0703V8.20312C12.0703 10.1416 13.6474 11.7188 15.5859 11.7188C17.5245 11.7188 19.1016 10.1416 19.1016 8.20312V7.03125H38.0859V8.20312C38.0859 10.1416 39.663 11.7188 41.6016 11.7188C43.5401 11.7188 45.1172 10.1416 45.1172 8.20312V7.03125H53.6133C54.2918 7.03125 54.8438 7.5832 54.8438 8.26172V14.0625H10.5469C9.89977 14.0625 9.375 14.5871 9.375 15.2344C9.375 15.8816 9.89977 16.4062 10.5469 16.4062H54.8438V39.6606C53.846 39.0313 52.7409 38.5578 51.5625 38.2741V20.8594C51.5625 20.2121 51.0377 19.6875 50.3906 19.6875H6.79688C6.14977 19.6875 5.625 20.2121 5.625 20.8594V48.5156C5.625 49.1629 6.14977 49.6875 6.79688 49.6875H37.9918C38.0646 50.8377 38.3143 51.9404 38.7148 52.9688H28.9219C28.2748 52.9688 27.75 53.4934 27.75 54.1406C27.75 54.7879 28.2748 55.3125 28.9219 55.3125H39.973C41.9684 58.1454 45.2637 60 48.9844 60C55.0584 60 60 55.0584 60 48.9844C60 46.1655 58.9352 43.5912 57.1875 41.6408ZM16.7578 8.20312C16.7578 8.8493 16.2321 9.375 15.5859 9.375C14.9398 9.375 14.4141 8.8493 14.4141 8.20312V3.51562C14.4141 2.86945 14.9398 2.34375 15.5859 2.34375C16.2321 2.34375 16.7578 2.86945 16.7578 3.51562V8.20312ZM42.7734 8.20312C42.7734 8.8493 42.2477 9.375 41.6016 9.375C40.9554 9.375 40.4297 8.8493 40.4297 8.20312V3.51562C40.4297 2.86945 40.9554 2.34375 41.6016 2.34375C42.2477 2.34375 42.7734 2.86945 42.7734 3.51562V8.20312ZM48.9844 37.9688C48.4396 37.9688 47.904 38.0092 47.3801 38.0859H42.8438V31.2891H49.2188V37.9717C49.1408 37.97 49.0628 37.9688 48.9844 37.9688ZM38.091 47.3438H34.125V40.4297H40.5V41.9665C39.2504 43.4746 38.3945 45.32 38.091 47.3438ZM7.96875 31.2891H14.3438V38.0859H7.96875V31.2891ZM16.6875 31.2891H23.0625V38.0859H16.6875V31.2891ZM34.125 31.2891H40.5V38.0859H34.125V31.2891ZM31.7813 38.0859H25.4062V31.2891H31.7813V38.0859ZM34.125 28.9453V22.0312H40.5V28.9453H34.125ZM31.7813 28.9453H25.4062V22.0312H31.7813V28.9453ZM23.0625 28.9453H16.6875V22.0312H23.0625V28.9453ZM23.0625 40.4297V47.3438H16.6875V40.4297H23.0625ZM25.4062 40.4297H31.7813V47.3438H25.4062V40.4297ZM49.2188 28.9453H42.8438V22.0312H49.2188V28.9453ZM14.3438 22.0312V28.9453H7.96875V22.0312H14.3438ZM7.96875 40.4297H14.3438V47.3438H7.96875V40.4297ZM48.9844 57.6562C44.2027 57.6562 40.3125 53.7661 40.3125 48.9844C40.3125 44.2027 44.2027 40.3125 48.9844 40.3125C53.7661 40.3125 57.6562 44.2027 57.6562 48.9844C57.6562 53.7661 53.7661 57.6562 48.9844 57.6562Z" fill="#283D4C"/>
    <path d="M52.3745 46.144L48.75 49.7685L47.1373 48.1557C46.6798 47.6981 45.938 47.6981 45.4799 48.1557C45.0223 48.6134 45.0223 49.3554 45.4799 49.813L47.9212 52.2544C48.1411 52.4741 48.4391 52.5976 48.7499 52.5976C49.0607 52.5976 49.3587 52.4741 49.5785 52.2544L54.0316 47.8013C54.4892 47.3436 54.4892 46.6016 54.0316 46.1439C53.574 45.6864 52.8322 45.6864 52.3745 46.144Z" fill="#283D4C"/>
    <path d="M24.2344 52.9688C23.9262 52.9688 23.6238 53.0941 23.4059 53.3121C23.188 53.5301 23.0625 53.8324 23.0625 54.1406C23.0625 54.4488 23.1879 54.7512 23.4059 54.9691C23.6238 55.1871 23.9262 55.3125 24.2344 55.3125C24.5426 55.3125 24.8449 55.1871 25.0629 54.9691C25.2807 54.7512 25.4062 54.4488 25.4062 54.1406C25.4062 53.8324 25.2809 53.5301 25.0629 53.3121C24.8449 53.0941 24.5426 52.9688 24.2344 52.9688Z" fill="#283D4C"/>
    <path d="M6.68777 16.0629C6.90586 15.8449 7.03125 15.5426 7.03125 15.2344C7.03125 14.9262 6.90586 14.6238 6.68777 14.4059C6.46992 14.1879 6.16758 14.0625 5.85938 14.0625C5.54988 14.0625 5.24883 14.1879 5.03086 14.4059C4.81289 14.6238 4.6875 14.9262 4.6875 15.2344C4.6875 15.5426 4.81277 15.8449 5.03086 16.0629C5.24895 16.2809 5.54988 16.4062 5.85938 16.4062C6.16758 16.4062 6.46992 16.2809 6.68777 16.0629Z" fill="#283D4C"/>
</svg>
