<svg width="1273" height="540" viewBox="0 0 1273 540" fill="none" xmlns="http://www.w3.org/2000/svg">
    <path opacity="0.3" d="M915.916 234.185V175.511L865.088 146.185L814.271 175.511V234.185L865.088 263.522L915.916 234.185Z" stroke="#231F20" stroke-miterlimit="10"/>
    <path opacity="0.3" d="M865.09 146.544V87.8697L814.273 58.5327L763.445 87.8697V146.544L814.273 175.87L865.09 146.544Z" stroke="#231F20" stroke-miterlimit="10"/>
    <path opacity="0.3" d="M763.444 87.8805V29.2066L712.627 -0.130371L661.799 29.2066V87.8805L712.627 117.207L763.444 87.8805Z" stroke="#231F20" stroke-miterlimit="10"/>
    <path opacity="0.3" d="M763.444 205.207V146.543L712.627 117.207L661.799 146.543V205.207L712.627 234.544L763.444 205.207Z" stroke="#231F20" stroke-miterlimit="10"/>
    <path opacity="0.3" d="M712.627 116.848V58.1739L661.799 28.8369L610.982 58.1739V116.848L661.799 146.185L712.627 116.848Z" stroke="#231F20" stroke-miterlimit="10"/>
    <path opacity="0.3" d="M661.799 87.8805V29.2066L610.982 -0.130371L560.154 29.2066V87.8805L610.982 117.207L661.799 87.8805Z" stroke="#231F20" stroke-miterlimit="10"/>
    <path opacity="0.3" d="M712.627 175.511V116.848L661.799 87.5107L610.982 116.848V175.511L661.799 204.848L712.627 175.511Z" stroke="#231F20" stroke-miterlimit="10"/>
    <path opacity="0.3" d="M915.916 0.217291V-58.4458L865.088 -87.7827L814.271 -58.4458V0.217291L865.088 29.5542L915.916 0.217291Z" stroke="#231F20" stroke-miterlimit="10"/>
    <path opacity="0.3" d="M865.09 29.2064V-29.4675L814.273 -58.8044L763.445 -29.4675V29.2064L814.273 58.5434L865.09 29.2064Z" stroke="#231F20" stroke-miterlimit="10"/>
    <path opacity="0.3" d="M814.272 -0.500003V-59.163L763.444 -88.5L712.627 -59.163V-0.500003L763.444 28.837L814.272 -0.500003Z" stroke="#231F20" stroke-miterlimit="10"/>
    <path opacity="0.3" d="M814.272 116.848V58.1739L763.444 28.8369L712.627 58.1739V116.848L763.444 146.185L814.272 116.848Z" stroke="#231F20" stroke-miterlimit="10"/>
    <path opacity="0.3" d="M661.799 205.207V146.543L610.982 117.207L560.154 146.543V205.207L610.982 234.544L661.799 205.207Z" stroke="#231F20" stroke-miterlimit="10"/>
    <path opacity="0.3" d="M610.983 234.185V175.511L560.155 146.185L509.338 175.511V234.185L560.155 263.522L610.983 234.185Z" stroke="#231F20" stroke-miterlimit="10"/>
    <path opacity="0.3" d="M865.09 263.881V205.207L814.273 175.87L763.445 205.207V263.881L814.273 293.217L865.09 263.881Z" stroke="#231F20" stroke-miterlimit="10"/>
    <path opacity="0.3" d="M763.444 263.881V205.207L712.627 175.87L661.799 205.207V263.881L712.627 293.217L763.444 263.881Z" stroke="#231F20" stroke-miterlimit="10"/>
    <path opacity="0.3" d="M966.735 322.554V263.88L915.918 234.543L865.09 263.88V322.554L915.918 351.891L966.735 322.554Z" stroke="#231F20" stroke-miterlimit="10"/>
    <path opacity="0.3" d="M915.916 351.522V292.859L865.088 263.522L814.271 292.859V351.522L865.088 380.859L915.916 351.522Z" stroke="#231F20" stroke-miterlimit="10"/>
    <path opacity="0.3" d="M966.735 205.207V146.543L915.918 117.207L865.09 146.543V205.207L915.918 234.544L966.735 205.207Z" stroke="#231F20" stroke-miterlimit="10"/>
    <path opacity="0.3" d="M1017.56 116.848V58.1739L966.735 28.8369L915.918 58.1739V116.848L966.735 146.185L1017.56 116.848Z" stroke="#231F20" stroke-miterlimit="10"/>
    <path opacity="0.3" d="M560.155 263.881V205.207L509.338 175.87L458.51 205.207V263.881L509.338 293.217L560.155 263.881Z" stroke="#231F20" stroke-miterlimit="10"/>
    <path opacity="0.3" d="M966.735 146.544V87.8697L915.918 58.5327L865.09 87.8697V146.544L915.918 175.87L966.735 146.544Z" stroke="#231F20" stroke-miterlimit="10"/>
    <path opacity="0.3" d="M865.09 322.554V263.88L814.273 234.543L763.445 263.88V322.554L814.273 351.891L865.09 322.554Z" stroke="#231F20" stroke-miterlimit="10"/>
    <g opacity="0.6">
        <path d="M1170.16 557.043V498.369L1119.35 469.032L1068.52 498.369V557.043L1119.35 586.38L1170.16 557.043Z" stroke="#231F20" stroke-miterlimit="10"/>
        <path d="M1119.35 469.391V410.728L1068.52 381.391L1017.7 410.728V469.391L1068.52 498.728L1119.35 469.391Z" stroke="#231F20" stroke-miterlimit="10"/>
        <path d="M1017.7 410.728V352.065L966.876 322.728L916.059 352.065V410.728L966.876 440.065L1017.7 410.728Z" stroke="#231F20" stroke-miterlimit="10"/>
        <path d="M1017.7 528.065V469.391L966.876 440.065L916.059 469.391V528.065L966.876 557.402L1017.7 528.065Z" stroke="#231F20" stroke-miterlimit="10"/>
        <path d="M966.875 439.706V381.033L916.058 351.696L865.23 381.033V439.706L916.058 469.033L966.875 439.706Z" stroke="#231F20" stroke-miterlimit="10"/>
        <path d="M916.059 410.728V352.065L865.231 322.728L814.414 352.065V410.728L865.231 440.065L916.059 410.728Z" stroke="#231F20" stroke-miterlimit="10"/>
        <path d="M966.875 498.369V439.706L916.058 410.369L865.23 439.706V498.369L916.058 527.706L966.875 498.369Z" stroke="#231F20" stroke-miterlimit="10"/>
        <path d="M1170.16 323.076V264.413L1119.35 235.076L1068.52 264.413V323.076L1119.35 352.413L1170.16 323.076Z" stroke="#231F20" stroke-miterlimit="10"/>
        <path d="M1119.35 352.065V293.391L1068.52 264.054L1017.7 293.391V352.065L1068.52 381.402L1119.35 352.065Z" stroke="#231F20" stroke-miterlimit="10"/>
        <path d="M1068.52 322.359V263.685L1017.7 234.359L966.875 263.685V322.359L1017.7 351.696L1068.52 322.359Z" stroke="#231F20" stroke-miterlimit="10"/>
        <path d="M1068.52 439.706V381.033L1017.7 351.696L966.875 381.033V439.706L1017.7 469.033L1068.52 439.706Z" stroke="#231F20" stroke-miterlimit="10"/>
        <path d="M916.059 528.065V469.391L865.231 440.065L814.414 469.391V528.065L865.231 557.402L916.059 528.065Z" stroke="#231F20" stroke-miterlimit="10"/>
        <path d="M865.231 557.043V498.369L814.414 469.032L763.586 498.369V557.043L814.414 586.38L865.231 557.043Z" stroke="#231F20" stroke-miterlimit="10"/>
        <path d="M1119.35 586.739V528.065L1068.52 498.728L1017.7 528.065V586.739L1068.52 616.076L1119.35 586.739Z" stroke="#231F20" stroke-miterlimit="10"/>
        <path d="M1017.7 586.739V528.065L966.876 498.728L916.059 528.065V586.739L966.876 616.076L1017.7 586.739Z" stroke="#231F20" stroke-miterlimit="10"/>
        <path d="M1220.99 528.065V469.391L1170.16 440.065L1119.35 469.391V528.065L1170.16 557.402L1220.99 528.065Z" stroke="#231F20" stroke-miterlimit="10"/>
        <path d="M1271.81 439.706V381.033L1220.99 351.696L1170.17 381.033V439.706L1220.99 469.033L1271.81 439.706Z" stroke="#231F20" stroke-miterlimit="10"/>
        <path d="M814.414 586.739V528.065L763.586 498.728L712.758 528.065V586.739L763.586 616.076L814.414 586.739Z" stroke="#231F20" stroke-miterlimit="10"/>
        <path d="M1220.99 469.391V410.728L1170.16 381.391L1119.35 410.728V469.391L1170.16 498.728L1220.99 469.391Z" stroke="#231F20" stroke-miterlimit="10"/>
    </g>
    <g opacity="0.6">
        <path d="M458.508 323.076V264.402L407.691 235.076L356.863 264.402V323.076L407.691 352.413L458.508 323.076Z" stroke="#231F20" stroke-miterlimit="10"/>
        <path d="M407.693 235.435V176.761L356.865 147.424L306.037 176.761V235.435L356.865 264.772L407.693 235.435Z" stroke="#231F20" stroke-miterlimit="10"/>
        <path d="M306.036 176.772V118.098L255.219 88.761L204.391 118.098V176.772L255.219 206.109L306.036 176.772Z" stroke="#231F20" stroke-miterlimit="10"/>
        <path d="M306.036 294.098V235.435L255.219 206.098L204.391 235.435V294.098L255.219 323.435L306.036 294.098Z" stroke="#231F20" stroke-miterlimit="10"/>
        <path d="M255.219 205.739V147.065L204.391 117.728L153.574 147.065V205.739L204.391 235.076L255.219 205.739Z" stroke="#231F20" stroke-miterlimit="10"/>
        <path d="M204.391 176.772V118.098L153.574 88.761L102.746 118.098V176.772L153.574 206.109L204.391 176.772Z" stroke="#231F20" stroke-miterlimit="10"/>
        <path d="M255.219 264.402V205.739L204.391 176.402L153.574 205.739V264.402L204.391 293.739L255.219 264.402Z" stroke="#231F20" stroke-miterlimit="10"/>
        <path d="M458.508 89.1086V30.4456L407.691 1.10864L356.863 30.4456V89.1086L407.691 118.446L458.508 89.1086Z" stroke="#231F20" stroke-miterlimit="10"/>
        <path d="M407.693 118.098V59.4239L356.865 30.0869L306.037 59.4239V118.098L356.865 147.435L407.693 118.098Z" stroke="#231F20" stroke-miterlimit="10"/>
        <path d="M356.864 88.3914V29.7283L306.036 0.391357L255.219 29.7283V88.3914L306.036 117.728L356.864 88.3914Z" stroke="#231F20" stroke-miterlimit="10"/>
        <path d="M356.864 205.739V147.065L306.036 117.728L255.219 147.065V205.739L306.036 235.076L356.864 205.739Z" stroke="#231F20" stroke-miterlimit="10"/>
        <path d="M204.391 294.098V235.435L153.574 206.098L102.746 235.435V294.098L153.574 323.435L204.391 294.098Z" stroke="#231F20" stroke-miterlimit="10"/>
        <path d="M153.575 323.076V264.402L102.747 235.076L51.9297 264.402V323.076L102.747 352.413L153.575 323.076Z" stroke="#231F20" stroke-miterlimit="10"/>
        <path d="M407.693 352.772V294.098L356.865 264.772L306.037 294.098V352.772L356.865 382.109L407.693 352.772Z" stroke="#231F20" stroke-miterlimit="10"/>
        <path d="M306.036 352.772V294.098L255.219 264.772L204.391 294.098V352.772L255.219 382.109L306.036 352.772Z" stroke="#231F20" stroke-miterlimit="10"/>
        <path d="M509.336 411.446V352.772L458.508 323.435L407.691 352.772V411.446L458.508 440.783L509.336 411.446Z" stroke="#231F20" stroke-miterlimit="10"/>
        <path d="M458.508 440.424V381.75L407.691 352.413L356.863 381.75V440.424L407.691 469.75L458.508 440.424Z" stroke="#231F20" stroke-miterlimit="10"/>
        <path d="M509.336 294.098V235.435L458.508 206.098L407.691 235.435V294.098L458.508 323.435L509.336 294.098Z" stroke="#231F20" stroke-miterlimit="10"/>
        <path d="M560.155 205.739V147.065L509.338 117.728L458.51 147.065V205.739L509.338 235.076L560.155 205.739Z" stroke="#231F20" stroke-miterlimit="10"/>
        <path d="M102.746 352.772V294.098L51.9294 264.772L1.10156 294.098V352.772L51.9294 382.109L102.746 352.772Z" stroke="#231F20" stroke-miterlimit="10"/>
        <path d="M509.336 235.435V176.761L458.508 147.424L407.691 176.761V235.435L458.508 264.772L509.336 235.435Z" stroke="#231F20" stroke-miterlimit="10"/>
        <path d="M407.693 411.446V352.772L356.865 323.435L306.037 352.772V411.446L356.865 440.783L407.693 411.446Z" stroke="#231F20" stroke-miterlimit="10"/>
    </g>
</svg>
