<svg width="1273" height="794" viewBox="0 0 1273 794" fill="none" xmlns="http://www.w3.org/2000/svg">
    <path opacity="0.3" d="M356.893 323.685V265.011L407.721 235.685L458.538 265.011V323.685L407.721 353.022L356.893 323.685Z" stroke="#231F20" stroke-miterlimit="10"/>
    <path opacity="0.3" d="M407.721 236.044V177.37L458.538 148.033L509.366 177.37V236.044L458.538 265.37L407.721 236.044Z" stroke="#231F20" stroke-miterlimit="10"/>
    <path opacity="0.3" d="M509.366 177.38V118.707L560.183 89.3696L611.011 118.707V177.38L560.183 206.707L509.366 177.38Z" stroke="#231F20" stroke-miterlimit="10"/>
    <path opacity="0.3" d="M509.366 294.707V236.043L560.183 206.707L611.011 236.043V294.707L560.183 324.044L509.366 294.707Z" stroke="#231F20" stroke-miterlimit="10"/>
    <path opacity="0.3" d="M560.183 206.348V147.674L611.011 118.337L661.828 147.674V206.348L611.011 235.685L560.183 206.348Z" stroke="#231F20" stroke-miterlimit="10"/>
    <path opacity="0.3" d="M611.011 177.38V118.707L661.828 89.3696L712.656 118.707V177.38L661.828 206.707L611.011 177.38Z" stroke="#231F20" stroke-miterlimit="10"/>
    <path opacity="0.3" d="M560.183 265.011V206.348L611.011 177.011L661.828 206.348V265.011L611.011 294.348L560.183 265.011Z" stroke="#231F20" stroke-miterlimit="10"/>
    <path opacity="0.3" d="M356.893 89.7173V31.0542L407.721 1.71729L458.538 31.0542V89.7173L407.721 119.054L356.893 89.7173Z" stroke="#231F20" stroke-miterlimit="10"/>
    <path opacity="0.3" d="M407.721 118.706V60.0325L458.538 30.6956L509.366 60.0325V118.706L458.538 148.043L407.721 118.706Z" stroke="#231F20" stroke-miterlimit="10"/>
    <path opacity="0.3" d="M458.538 89V30.337L509.366 1L560.183 30.337V89L509.366 118.337L458.538 89Z" stroke="#231F20" stroke-miterlimit="10"/>
    <path opacity="0.3" d="M458.538 206.348V147.674L509.366 118.337L560.183 147.674V206.348L509.366 235.685L458.538 206.348Z" stroke="#231F20" stroke-miterlimit="10"/>
    <path opacity="0.3" d="M611.011 294.707V236.043L661.828 206.707L712.656 236.043V294.707L661.828 324.044L611.011 294.707Z" stroke="#231F20" stroke-miterlimit="10"/>
    <path opacity="0.3" d="M661.828 323.685V265.011L712.656 235.685L763.473 265.011V323.685L712.656 353.022L661.828 323.685Z" stroke="#231F20" stroke-miterlimit="10"/>
    <path opacity="0.3" d="M407.721 353.381V294.707L458.538 265.37L509.366 294.707V353.381L458.538 382.717L407.721 353.381Z" stroke="#231F20" stroke-miterlimit="10"/>
    <path opacity="0.3" d="M509.366 353.381V294.707L560.183 265.37L611.011 294.707V353.381L560.183 382.717L509.366 353.381Z" stroke="#231F20" stroke-miterlimit="10"/>
    <path opacity="0.3" d="M306.076 412.054V353.38L356.893 324.043L407.721 353.38V412.054L356.893 441.391L306.076 412.054Z" stroke="#231F20" stroke-miterlimit="10"/>
    <path opacity="0.3" d="M356.893 441.022V382.359L407.721 353.022L458.538 382.359V441.022L407.721 470.359L356.893 441.022Z" stroke="#231F20" stroke-miterlimit="10"/>
    <path opacity="0.3" d="M306.076 294.707V236.043L356.893 206.707L407.721 236.043V294.707L356.893 324.044L306.076 294.707Z" stroke="#231F20" stroke-miterlimit="10"/>
    <path opacity="0.3" d="M255.249 206.348V147.674L306.076 118.337L356.894 147.674V206.348L306.076 235.685L255.249 206.348Z" stroke="#231F20" stroke-miterlimit="10"/>
    <path opacity="0.3" d="M712.656 353.381V294.707L763.473 265.37L814.301 294.707V353.381L763.473 382.717L712.656 353.381Z" stroke="#231F20" stroke-miterlimit="10"/>
    <path opacity="0.3" d="M306.076 236.044V177.37L356.893 148.033L407.721 177.37V236.044L356.893 265.37L306.076 236.044Z" stroke="#231F20" stroke-miterlimit="10"/>
    <path opacity="0.3" d="M407.721 412.054V353.38L458.538 324.043L509.366 353.38V412.054L458.538 441.391L407.721 412.054Z" stroke="#231F20" stroke-miterlimit="10"/>
    <g opacity="0.6">
        <path d="M102.645 646.543V587.869L153.462 558.532L204.29 587.869V646.543L153.462 675.88L102.645 646.543Z" stroke="#231F20" stroke-miterlimit="10"/>
        <path d="M153.462 558.891V500.228L204.289 470.891L255.106 500.228V558.891L204.289 588.228L153.462 558.891Z" stroke="#231F20" stroke-miterlimit="10"/>
        <path d="M255.107 500.228V441.565L305.934 412.228L356.751 441.565V500.228L305.934 529.565L255.107 500.228Z" stroke="#231F20" stroke-miterlimit="10"/>
        <path d="M255.107 617.565V558.891L305.934 529.565L356.751 558.891V617.565L305.934 646.902L255.107 617.565Z" stroke="#231F20" stroke-miterlimit="10"/>
        <path d="M305.935 529.206V470.533L356.752 441.196L407.58 470.533V529.206L356.752 558.533L305.935 529.206Z" stroke="#231F20" stroke-miterlimit="10"/>
        <path d="M356.752 500.228V441.565L407.579 412.228L458.396 441.565V500.228L407.579 529.565L356.752 500.228Z" stroke="#231F20" stroke-miterlimit="10"/>
        <path d="M305.935 587.869V529.206L356.752 499.869L407.58 529.206V587.869L356.752 617.206L305.935 587.869Z" stroke="#231F20" stroke-miterlimit="10"/>
        <path d="M102.645 412.576V353.913L153.462 324.576L204.29 353.913V412.576L153.462 441.913L102.645 412.576Z" stroke="#231F20" stroke-miterlimit="10"/>
        <path d="M153.462 441.565V382.891L204.289 353.554L255.106 382.891V441.565L204.289 470.902L153.462 441.565Z" stroke="#231F20" stroke-miterlimit="10"/>
        <path d="M204.29 411.859V353.185L255.107 323.859L305.935 353.185V411.859L255.107 441.196L204.29 411.859Z" stroke="#231F20" stroke-miterlimit="10"/>
        <path d="M204.29 529.206V470.533L255.107 441.196L305.935 470.533V529.206L255.107 558.533L204.29 529.206Z" stroke="#231F20" stroke-miterlimit="10"/>
        <path d="M356.752 617.565V558.891L407.579 529.565L458.396 558.891V617.565L407.579 646.902L356.752 617.565Z" stroke="#231F20" stroke-miterlimit="10"/>
        <path d="M407.58 646.543V587.869L458.397 558.532L509.225 587.869V646.543L458.397 675.88L407.58 646.543Z" stroke="#231F20" stroke-miterlimit="10"/>
        <path d="M153.462 676.239V617.565L204.289 588.228L255.106 617.565V676.239L204.289 705.576L153.462 676.239Z" stroke="#231F20" stroke-miterlimit="10"/>
        <path d="M255.107 676.239V617.565L305.934 588.228L356.751 617.565V676.239L305.934 705.576L255.107 676.239Z" stroke="#231F20" stroke-miterlimit="10"/>
        <path d="M51.817 734.902V676.239L102.645 646.902L153.462 676.239V734.902L102.645 764.239L51.817 734.902Z" stroke="#231F20" stroke-miterlimit="10"/>
        <path d="M102.645 763.88V705.217L153.462 675.88L204.29 705.217V763.88L153.462 793.217L102.645 763.88Z" stroke="#231F20" stroke-miterlimit="10"/>
        <path d="M51.817 617.565V558.891L102.645 529.565L153.462 558.891V617.565L102.645 646.902L51.817 617.565Z" stroke="#231F20" stroke-miterlimit="10"/>
        <path d="M0.999635 529.206V470.533L51.8166 441.196L102.645 470.533V529.206L51.8166 558.533L0.999635 529.206Z" stroke="#231F20" stroke-miterlimit="10"/>
        <path d="M458.396 676.239V617.565L509.224 588.228L560.052 617.565V676.239L509.224 705.576L458.396 676.239Z" stroke="#231F20" stroke-miterlimit="10"/>
        <path d="M51.817 558.891V500.228L102.645 470.891L153.462 500.228V558.891L102.645 588.228L51.817 558.891Z" stroke="#231F20" stroke-miterlimit="10"/>
        <path d="M153.462 734.902V676.239L204.289 646.902L255.106 676.239V734.902L204.289 764.239L153.462 734.902Z" stroke="#231F20" stroke-miterlimit="10"/>
    </g>
    <g opacity="0.6">
        <path d="M814.3 412.576V353.902L865.117 324.576L915.945 353.902V412.576L865.117 441.913L814.3 412.576Z" stroke="#231F20" stroke-miterlimit="10"/>
        <path d="M865.118 324.935V266.261L915.946 236.924L966.773 266.261V324.935L915.946 354.272L865.118 324.935Z" stroke="#231F20" stroke-miterlimit="10"/>
        <path d="M966.773 266.272V207.598L1017.59 178.261L1068.42 207.598V266.272L1017.59 295.609L966.773 266.272Z" stroke="#231F20" stroke-miterlimit="10"/>
        <path d="M966.773 383.598V324.935L1017.59 295.598L1068.42 324.935V383.598L1017.59 412.935L966.773 383.598Z" stroke="#231F20" stroke-miterlimit="10"/>
        <path d="M1017.59 295.239V236.565L1068.42 207.228L1119.24 236.565V295.239L1068.42 324.576L1017.59 295.239Z" stroke="#231F20" stroke-miterlimit="10"/>
        <path d="M1068.42 266.272V207.598L1119.24 178.261L1170.06 207.598V266.272L1119.24 295.609L1068.42 266.272Z" stroke="#231F20" stroke-miterlimit="10"/>
        <path d="M1017.59 353.902V295.239L1068.42 265.902L1119.24 295.239V353.902L1068.42 383.239L1017.59 353.902Z" stroke="#231F20" stroke-miterlimit="10"/>
        <path d="M814.3 178.609V119.946L865.117 90.6086L915.945 119.946V178.609L865.117 207.946L814.3 178.609Z" stroke="#231F20" stroke-miterlimit="10"/>
        <path d="M865.118 207.598V148.924L915.946 119.587L966.773 148.924V207.598L915.946 236.935L865.118 207.598Z" stroke="#231F20" stroke-miterlimit="10"/>
        <path d="M915.945 177.891V119.228L966.773 89.8914L1017.59 119.228V177.891L966.773 207.228L915.945 177.891Z" stroke="#231F20" stroke-miterlimit="10"/>
        <path d="M915.945 295.239V236.565L966.773 207.228L1017.59 236.565V295.239L966.773 324.576L915.945 295.239Z" stroke="#231F20" stroke-miterlimit="10"/>
        <path d="M1068.42 383.598V324.935L1119.24 295.598L1170.06 324.935V383.598L1119.24 412.935L1068.42 383.598Z" stroke="#231F20" stroke-miterlimit="10"/>
        <path d="M1119.24 412.576V353.902L1170.06 324.576L1220.88 353.902V412.576L1170.06 441.913L1119.24 412.576Z" stroke="#231F20" stroke-miterlimit="10"/>
        <path d="M865.118 442.272V383.598L915.946 354.272L966.773 383.598V442.272L915.946 471.609L865.118 442.272Z" stroke="#231F20" stroke-miterlimit="10"/>
        <path d="M966.773 442.272V383.598L1017.59 354.272L1068.42 383.598V442.272L1017.59 471.609L966.773 442.272Z" stroke="#231F20" stroke-miterlimit="10"/>
        <path d="M763.473 500.946V442.272L814.301 412.935L865.118 442.272V500.946L814.301 530.283L763.473 500.946Z" stroke="#231F20" stroke-miterlimit="10"/>
        <path d="M814.3 529.924V471.25L865.117 441.913L915.945 471.25V529.924L865.117 559.25L814.3 529.924Z" stroke="#231F20" stroke-miterlimit="10"/>
        <path d="M763.473 383.598V324.935L814.301 295.598L865.118 324.935V383.598L814.301 412.935L763.473 383.598Z" stroke="#231F20" stroke-miterlimit="10"/>
        <path d="M712.656 295.239V236.565L763.473 207.228L814.301 236.565V295.239L763.473 324.576L712.656 295.239Z" stroke="#231F20" stroke-miterlimit="10"/>
        <path d="M1170.06 442.272V383.598L1220.88 354.272L1271.71 383.598V442.272L1220.88 471.609L1170.06 442.272Z" stroke="#231F20" stroke-miterlimit="10"/>
        <path d="M763.473 324.935V266.261L814.301 236.924L865.118 266.261V324.935L814.301 354.272L763.473 324.935Z" stroke="#231F20" stroke-miterlimit="10"/>
        <path d="M865.118 500.946V442.272L915.946 412.935L966.773 442.272V500.946L915.946 530.283L865.118 500.946Z" stroke="#231F20" stroke-miterlimit="10"/>
    </g>
</svg>
