<svg width="1131" height="705" viewBox="0 0 1131 705" fill="none" xmlns="http://www.w3.org/2000/svg">
    <path opacity="0.3" d="M813.586 287.461V235.374L768.438 209.34L723.3 235.374V287.461L768.438 313.505L813.586 287.461Z" stroke="white" stroke-miterlimit="10"/>
    <path opacity="0.3" d="M768.438 209.658V157.571L723.3 131.527L678.152 157.571V209.658L723.3 235.692L768.438 209.658Z" stroke="white" stroke-miterlimit="10"/>
    <path opacity="0.3" d="M678.152 157.58V105.493L633.014 79.4494L587.866 105.493V157.58L633.014 183.614L678.152 157.58Z" stroke="white" stroke-miterlimit="10"/>
    <path opacity="0.3" d="M678.152 261.736V209.658L633.014 183.614L587.866 209.658V261.736L633.014 287.779L678.152 261.736Z" stroke="white" stroke-miterlimit="10"/>
    <path opacity="0.3" d="M633.014 183.296V131.209L587.866 105.165L542.728 131.209V183.296L587.866 209.34L633.014 183.296Z" stroke="white" stroke-miterlimit="10"/>
    <path opacity="0.3" d="M587.866 157.58V105.493L542.727 79.4494L497.579 105.493V157.58L542.727 183.614L587.866 157.58Z" stroke="white" stroke-miterlimit="10"/>
    <path opacity="0.3" d="M633.014 235.374V183.296L587.866 157.252L542.728 183.296V235.374L587.866 261.417L633.014 235.374Z" stroke="white" stroke-miterlimit="10"/>
    <path opacity="0.3" d="M813.586 79.7583V27.6806L768.438 1.6369L723.3 27.6806V79.7583L768.438 105.802L813.586 79.7583Z" stroke="white" stroke-miterlimit="10"/>
    <path opacity="0.3" d="M768.438 105.493V53.4058L723.3 27.3622L678.152 53.4058V105.493L723.3 131.537L768.438 105.493Z" stroke="white" stroke-miterlimit="10"/>
    <path opacity="0.3" d="M723.3 79.1213V27.0437L678.152 1L633.014 27.0437V79.1213L678.152 105.165L723.3 79.1213Z" stroke="white" stroke-miterlimit="10"/>
    <path opacity="0.3" d="M723.3 183.296V131.209L678.152 105.165L633.014 131.209V183.296L678.152 209.34L723.3 183.296Z" stroke="white" stroke-miterlimit="10"/>
    <path opacity="0.3" d="M587.866 261.736V209.658L542.727 183.614L497.579 209.658V261.736L542.727 287.779L587.866 261.736Z" stroke="white" stroke-miterlimit="10"/>
    <path opacity="0.3" d="M542.727 287.461V235.374L497.579 209.34L452.441 235.374V287.461L497.579 313.505L542.727 287.461Z" stroke="white" stroke-miterlimit="10"/>
    <path opacity="0.3" d="M768.438 313.823V261.736L723.3 235.692L678.152 261.736V313.823L723.3 339.867L768.438 313.823Z" stroke="white" stroke-miterlimit="10"/>
    <path opacity="0.3" d="M678.152 313.823V261.736L633.014 235.692L587.866 261.736V313.823L633.014 339.867L678.152 313.823Z" stroke="white" stroke-miterlimit="10"/>
    <path opacity="0.3" d="M858.725 365.91V313.823L813.586 287.779L768.438 313.823V365.91L813.586 391.954L858.725 365.91Z" stroke="white" stroke-miterlimit="10"/>
    <path opacity="0.3" d="M813.586 391.626V339.548L768.438 313.505L723.3 339.548V391.626L768.438 417.67L813.586 391.626Z" stroke="white" stroke-miterlimit="10"/>
    <path opacity="0.3" d="M858.725 261.736V209.658L813.586 183.614L768.438 209.658V261.736L813.586 287.779L858.725 261.736Z" stroke="white" stroke-miterlimit="10"/>
    <path opacity="0.3" d="M903.873 183.296V131.209L858.725 105.165L813.586 131.209V183.296L858.725 209.34L903.873 183.296Z" stroke="white" stroke-miterlimit="10"/>
    <path opacity="0.3" d="M497.579 313.823V261.736L452.441 235.692L407.293 261.736V313.823L452.441 339.867L497.579 313.823Z" stroke="white" stroke-miterlimit="10"/>
    <path opacity="0.3" d="M858.725 209.658V157.571L813.586 131.527L768.438 157.571V209.658L813.586 235.692L858.725 209.658Z" stroke="white" stroke-miterlimit="10"/>
    <path opacity="0.3" d="M768.438 365.91V313.823L723.3 287.779L678.152 313.823V365.91L723.3 391.954L768.438 365.91Z" stroke="white" stroke-miterlimit="10"/>
    <g opacity="0.6">
        <path d="M1039.42 574.076V521.989L994.284 495.945L949.136 521.989V574.076L994.284 600.12L1039.42 574.076Z" stroke="white" stroke-miterlimit="10"/>
        <path d="M994.284 496.264V444.186L949.136 418.143L903.998 444.186V496.264L949.136 522.308L994.284 496.264Z" stroke="white" stroke-miterlimit="10"/>
        <path d="M903.998 444.186V392.109L858.85 366.065L813.712 392.109V444.186L858.85 470.23L903.998 444.186Z" stroke="white" stroke-miterlimit="10"/>
        <path d="M903.998 548.351V496.264L858.85 470.23L813.712 496.264V548.351L858.85 574.395L903.998 548.351Z" stroke="white" stroke-miterlimit="10"/>
        <path d="M858.85 469.912V417.824L813.712 391.781L768.564 417.824V469.912L813.712 495.946L858.85 469.912Z" stroke="white" stroke-miterlimit="10"/>
        <path d="M813.712 444.186V392.109L768.564 366.065L723.426 392.109V444.186L768.564 470.23L813.712 444.186Z" stroke="white" stroke-miterlimit="10"/>
        <path d="M858.85 521.989V469.911L813.712 443.868L768.564 469.911V521.989L813.712 548.033L858.85 521.989Z" stroke="white" stroke-miterlimit="10"/>
        <path d="M1039.42 366.374V314.296L994.284 288.252L949.136 314.296V366.374L994.284 392.417L1039.42 366.374Z" stroke="white" stroke-miterlimit="10"/>
        <path d="M994.284 392.109V340.021L949.136 313.978L903.998 340.021V392.109L949.136 418.152L994.284 392.109Z" stroke="white" stroke-miterlimit="10"/>
        <path d="M949.137 365.737V313.649L903.998 287.615L858.85 313.649V365.737L903.998 391.78L949.137 365.737Z" stroke="white" stroke-miterlimit="10"/>
        <path d="M949.137 469.912V417.824L903.998 391.781L858.85 417.824V469.912L903.998 495.946L949.137 469.912Z" stroke="white" stroke-miterlimit="10"/>
        <path d="M813.712 548.351V496.264L768.564 470.23L723.426 496.264V548.351L768.564 574.395L813.712 548.351Z" stroke="white" stroke-miterlimit="10"/>
        <path d="M768.564 574.076V521.989L723.426 495.945L678.278 521.989V574.076L723.426 600.12L768.564 574.076Z" stroke="white" stroke-miterlimit="10"/>
        <path d="M994.284 600.439V548.351L949.136 522.308L903.998 548.351V600.439L949.136 626.482L994.284 600.439Z" stroke="white" stroke-miterlimit="10"/>
        <path d="M903.998 600.439V548.351L858.85 522.308L813.712 548.351V600.439L858.85 626.482L903.998 600.439Z" stroke="white" stroke-miterlimit="10"/>
        <path d="M1084.57 652.516V600.439L1039.42 574.395L994.285 600.439V652.516L1039.42 678.56L1084.57 652.516Z" stroke="white" stroke-miterlimit="10"/>
        <path d="M1039.42 678.241V626.164L994.284 600.12L949.136 626.164V678.241L994.284 704.285L1039.42 678.241Z" stroke="white" stroke-miterlimit="10"/>
        <path d="M1084.57 548.351V496.264L1039.42 470.23L994.285 496.264V548.351L1039.42 574.395L1084.57 548.351Z" stroke="white" stroke-miterlimit="10"/>
        <path d="M1129.71 469.912V417.824L1084.57 391.781L1039.42 417.824V469.912L1084.57 495.946L1129.71 469.912Z" stroke="white" stroke-miterlimit="10"/>
        <path d="M723.426 600.439V548.351L678.278 522.308L633.13 548.351V600.439L678.278 626.482L723.426 600.439Z" stroke="white" stroke-miterlimit="10"/>
        <path d="M1084.57 496.264V444.186L1039.42 418.143L994.285 444.186V496.264L1039.42 522.308L1084.57 496.264Z" stroke="white" stroke-miterlimit="10"/>
        <path d="M994.284 652.516V600.439L949.136 574.395L903.998 600.439V652.516L949.136 678.56L994.284 652.516Z" stroke="white" stroke-miterlimit="10"/>
    </g>
    <g opacity="0.6">
        <path d="M407.293 366.374V314.286L362.155 288.252L317.007 314.286V366.374L362.155 392.417L407.293 366.374Z" stroke="white" stroke-miterlimit="10"/>
        <path d="M362.155 288.571V236.483L317.007 210.44L271.859 236.483V288.571L317.007 314.614L362.155 288.571Z" stroke="white" stroke-miterlimit="10"/>
        <path d="M271.859 236.493V184.406L226.72 158.362L181.573 184.406V236.493L226.72 262.537L271.859 236.493Z" stroke="white" stroke-miterlimit="10"/>
        <path d="M271.859 340.648V288.571L226.72 262.527L181.573 288.571V340.648L226.72 366.692L271.859 340.648Z" stroke="white" stroke-miterlimit="10"/>
        <path d="M226.721 262.209V210.121L181.573 184.078L136.434 210.121V262.209L181.573 288.252L226.721 262.209Z" stroke="white" stroke-miterlimit="10"/>
        <path d="M181.573 236.493V184.406L136.434 158.362L91.2864 184.406V236.493L136.434 262.537L181.573 236.493Z" stroke="white" stroke-miterlimit="10"/>
        <path d="M226.721 314.286V262.209L181.573 236.165L136.434 262.209V314.286L181.573 340.33L226.721 314.286Z" stroke="white" stroke-miterlimit="10"/>
        <path d="M407.293 158.671V106.593L362.155 80.5495L317.007 106.593V158.671L362.155 184.715L407.293 158.671Z" stroke="white" stroke-miterlimit="10"/>
        <path d="M362.155 184.406V132.318L317.007 106.275L271.859 132.318V184.406L317.007 210.449L362.155 184.406Z" stroke="white" stroke-miterlimit="10"/>
        <path d="M317.007 158.034V105.956L271.859 79.9126L226.721 105.956V158.034L271.859 184.078L317.007 158.034Z" stroke="white" stroke-miterlimit="10"/>
        <path d="M317.007 262.209V210.121L271.859 184.078L226.721 210.121V262.209L271.859 288.252L317.007 262.209Z" stroke="white" stroke-miterlimit="10"/>
        <path d="M181.573 340.648V288.571L136.434 262.527L91.2864 288.571V340.648L136.434 366.692L181.573 340.648Z" stroke="white" stroke-miterlimit="10"/>
        <path d="M136.434 366.374V314.286L91.2863 288.252L46.1479 314.286V366.374L91.2863 392.417L136.434 366.374Z" stroke="white" stroke-miterlimit="10"/>
        <path d="M362.155 392.736V340.648L317.007 314.614L271.859 340.648V392.736L317.007 418.78L362.155 392.736Z" stroke="white" stroke-miterlimit="10"/>
        <path d="M271.859 392.736V340.648L226.72 314.614L181.573 340.648V392.736L226.72 418.78L271.859 392.736Z" stroke="white" stroke-miterlimit="10"/>
        <path d="M452.441 444.823V392.736L407.293 366.692L362.155 392.736V444.823L407.293 470.867L452.441 444.823Z" stroke="white" stroke-miterlimit="10"/>
        <path d="M407.293 470.548V418.461L362.155 392.417L317.007 418.461V470.548L362.155 496.582L407.293 470.548Z" stroke="white" stroke-miterlimit="10"/>
        <path d="M452.441 340.648V288.571L407.293 262.527L362.155 288.571V340.648L407.293 366.692L452.441 340.648Z" stroke="white" stroke-miterlimit="10"/>
        <path d="M497.579 262.209V210.121L452.441 184.078L407.293 210.121V262.209L452.441 288.252L497.579 262.209Z" stroke="white" stroke-miterlimit="10"/>
        <path d="M91.2863 392.736V340.648L46.148 314.614L1 340.648V392.736L46.148 418.78L91.2863 392.736Z" stroke="white" stroke-miterlimit="10"/>
        <path d="M452.441 288.571V236.483L407.293 210.44L362.155 236.483V288.571L407.293 314.614L452.441 288.571Z" stroke="white" stroke-miterlimit="10"/>
        <path d="M362.155 444.823V392.736L317.007 366.692L271.859 392.736V444.823L317.007 470.867L362.155 444.823Z" stroke="white" stroke-miterlimit="10"/>
    </g>
</svg>
