<svg width="1189" height="743" viewBox="0 0 1189 743" fill="none" xmlns="http://www.w3.org/2000/svg">
    <path opacity="0.3" d="M333.581 302.65V247.801L381.08 220.387L428.568 247.801V302.65L381.08 330.075L333.581 302.65Z" stroke="#231F20" stroke-miterlimit="10"/>
    <path opacity="0.3" d="M381.08 220.722V165.873L428.568 138.448L476.067 165.873V220.722L428.568 248.137L381.08 220.722Z" stroke="#231F20" stroke-miterlimit="10"/>
    <path opacity="0.3" d="M476.067 165.883V111.034L523.555 83.6091L571.053 111.034V165.883L523.555 193.297L476.067 165.883Z" stroke="#231F20" stroke-miterlimit="10"/>
    <path opacity="0.3" d="M476.067 275.561V220.722L523.555 193.298L571.053 220.722V275.561L523.555 302.986L476.067 275.561Z" stroke="#231F20" stroke-miterlimit="10"/>
    <path opacity="0.3" d="M523.555 192.962V138.113L571.053 110.688L618.542 138.113V192.962L571.053 220.387L523.555 192.962Z" stroke="#231F20" stroke-miterlimit="10"/>
    <path opacity="0.3" d="M571.053 165.883V111.034L618.542 83.6091L666.04 111.034V165.883L618.542 193.297L571.053 165.883Z" stroke="#231F20" stroke-miterlimit="10"/>
    <path opacity="0.3" d="M523.555 247.801V192.962L571.053 165.538L618.542 192.962V247.801L571.053 275.226L523.555 247.801Z" stroke="#231F20" stroke-miterlimit="10"/>
    <path opacity="0.3" d="M333.581 83.9344V29.0953L381.08 1.67065L428.568 29.0953V83.9344L381.08 111.359L333.581 83.9344Z" stroke="#231F20" stroke-miterlimit="10"/>
    <path opacity="0.3" d="M381.08 111.034V56.1846L428.568 28.76L476.067 56.1846V111.034L428.568 138.458L381.08 111.034Z" stroke="#231F20" stroke-miterlimit="10"/>
    <path opacity="0.3" d="M428.568 83.2637V28.4246L476.067 1L523.555 28.4246V83.2637L476.067 110.688L428.568 83.2637Z" stroke="#231F20" stroke-miterlimit="10"/>
    <path opacity="0.3" d="M428.568 192.962V138.113L476.067 110.688L523.555 138.113V192.962L476.067 220.387L428.568 192.962Z" stroke="#231F20" stroke-miterlimit="10"/>
    <path opacity="0.3" d="M571.053 275.561V220.722L618.542 193.298L666.04 220.722V275.561L618.542 302.986L571.053 275.561Z" stroke="#231F20" stroke-miterlimit="10"/>
    <path opacity="0.3" d="M618.542 302.65V247.801L666.04 220.387L713.529 247.801V302.65L666.04 330.075L618.542 302.65Z" stroke="#231F20" stroke-miterlimit="10"/>
    <path opacity="0.3" d="M381.08 330.411V275.561L428.568 248.137L476.067 275.561V330.411L428.568 357.835L381.08 330.411Z" stroke="#231F20" stroke-miterlimit="10"/>
    <path opacity="0.3" d="M476.067 330.411V275.561L523.555 248.137L571.053 275.561V330.411L523.555 357.835L476.067 330.411Z" stroke="#231F20" stroke-miterlimit="10"/>
    <path opacity="0.3" d="M286.093 385.26V330.41L333.581 302.986L381.08 330.41V385.26L333.581 412.684L286.093 385.26Z" stroke="#231F20" stroke-miterlimit="10"/>
    <path opacity="0.3" d="M333.581 412.339V357.5L381.08 330.075L428.568 357.5V412.339L381.08 439.764L333.581 412.339Z" stroke="#231F20" stroke-miterlimit="10"/>
    <path opacity="0.3" d="M286.093 275.561V220.722L333.581 193.298L381.08 220.722V275.561L333.581 302.986L286.093 275.561Z" stroke="#231F20" stroke-miterlimit="10"/>
    <path opacity="0.3" d="M238.594 192.962V138.113L286.093 110.688L333.581 138.113V192.962L286.093 220.387L238.594 192.962Z" stroke="#231F20" stroke-miterlimit="10"/>
    <path opacity="0.3" d="M666.04 330.411V275.561L713.529 248.137L761.027 275.561V330.411L713.529 357.835L666.04 330.411Z" stroke="#231F20" stroke-miterlimit="10"/>
    <path opacity="0.3" d="M286.093 220.722V165.873L333.581 138.448L381.08 165.873V220.722L333.581 248.137L286.093 220.722Z" stroke="#231F20" stroke-miterlimit="10"/>
    <path opacity="0.3" d="M381.08 385.26V330.41L428.568 302.986L476.067 330.41V385.26L428.568 412.684L381.08 385.26Z" stroke="#231F20" stroke-miterlimit="10"/>
    <g opacity="0.6">
        <path d="M95.9868 604.464V549.614L143.475 522.19L190.974 549.614V604.464L143.475 631.888L95.9868 604.464Z" stroke="#231F20" stroke-miterlimit="10"/>
        <path d="M143.475 522.525V467.686L190.974 440.261L238.462 467.686V522.525L190.974 549.95L143.475 522.525Z" stroke="#231F20" stroke-miterlimit="10"/>
        <path d="M238.462 467.686V412.847L285.961 385.422L333.449 412.847V467.686L285.961 495.11L238.462 467.686Z" stroke="#231F20" stroke-miterlimit="10"/>
        <path d="M238.462 577.374V522.525L285.961 495.111L333.449 522.525V577.374L285.961 604.799L238.462 577.374Z" stroke="#231F20" stroke-miterlimit="10"/>
        <path d="M285.961 494.775V439.926L333.449 412.501L380.948 439.926V494.775L333.449 522.19L285.961 494.775Z" stroke="#231F20" stroke-miterlimit="10"/>
        <path d="M333.449 467.686V412.847L380.948 385.422L428.436 412.847V467.686L380.948 495.11L333.449 467.686Z" stroke="#231F20" stroke-miterlimit="10"/>
        <path d="M285.961 549.614V494.775L333.449 467.351L380.948 494.775V549.614L333.449 577.039L285.961 549.614Z" stroke="#231F20" stroke-miterlimit="10"/>
        <path d="M95.9868 385.747V330.908L143.475 303.484L190.974 330.908V385.747L143.475 413.172L95.9868 385.747Z" stroke="#231F20" stroke-miterlimit="10"/>
        <path d="M143.475 412.847V357.998L190.974 330.573L238.462 357.998V412.847L190.974 440.271L143.475 412.847Z" stroke="#231F20" stroke-miterlimit="10"/>
        <path d="M190.974 385.077V330.227L238.462 302.813L285.961 330.227V385.077L238.462 412.501L190.974 385.077Z" stroke="#231F20" stroke-miterlimit="10"/>
        <path d="M190.974 494.775V439.926L238.462 412.501L285.961 439.926V494.775L238.462 522.19L190.974 494.775Z" stroke="#231F20" stroke-miterlimit="10"/>
        <path d="M333.449 577.374V522.525L380.948 495.111L428.436 522.525V577.374L380.948 604.799L333.449 577.374Z" stroke="#231F20" stroke-miterlimit="10"/>
        <path d="M380.948 604.464V549.614L428.436 522.19L475.935 549.614V604.464L428.436 631.888L380.948 604.464Z" stroke="#231F20" stroke-miterlimit="10"/>
        <path d="M143.475 632.223V577.374L190.974 549.949L238.462 577.374V632.223L190.974 659.648L143.475 632.223Z" stroke="#231F20" stroke-miterlimit="10"/>
        <path d="M238.462 632.223V577.374L285.961 549.949L333.449 577.374V632.223L285.961 659.648L238.462 632.223Z" stroke="#231F20" stroke-miterlimit="10"/>
        <path d="M48.4883 687.063V632.223L95.9869 604.799L143.475 632.223V687.063L95.9869 714.487L48.4883 687.063Z" stroke="#231F20" stroke-miterlimit="10"/>
        <path d="M95.9868 714.152V659.313L143.475 631.888L190.974 659.313V714.152L143.475 741.576L95.9868 714.152Z" stroke="#231F20" stroke-miterlimit="10"/>
        <path d="M48.4883 577.374V522.525L95.9869 495.111L143.475 522.525V577.374L95.9869 604.799L48.4883 577.374Z" stroke="#231F20" stroke-miterlimit="10"/>
        <path d="M1 494.775V439.926L48.4883 412.501L95.9868 439.926V494.775L48.4883 522.19L1 494.775Z" stroke="#231F20" stroke-miterlimit="10"/>
        <path d="M428.436 632.223V577.374L475.935 549.949L523.433 577.374V632.223L475.935 659.648L428.436 632.223Z" stroke="#231F20" stroke-miterlimit="10"/>
        <path d="M48.4883 522.525V467.686L95.9869 440.261L143.475 467.686V522.525L95.9869 549.95L48.4883 522.525Z" stroke="#231F20" stroke-miterlimit="10"/>
        <path d="M143.475 687.063V632.223L190.974 604.799L238.462 632.223V687.063L190.974 714.487L143.475 687.063Z" stroke="#231F20" stroke-miterlimit="10"/>
    </g>
    <g opacity="0.6">
        <path d="M761.027 385.747V330.898L808.516 303.484L856.014 330.898V385.747L808.516 413.172L761.027 385.747Z" stroke="#231F20" stroke-miterlimit="10"/>
        <path d="M808.516 303.819V248.97L856.014 221.545L903.513 248.97V303.819L856.014 331.244L808.516 303.819Z" stroke="#231F20" stroke-miterlimit="10"/>
        <path d="M903.513 248.98V194.131L951.001 166.706L998.5 194.131V248.98L951.001 276.405L903.513 248.98Z" stroke="#231F20" stroke-miterlimit="10"/>
        <path d="M903.513 358.658V303.819L951.001 276.395L998.5 303.819V358.658L951.001 386.083L903.513 358.658Z" stroke="#231F20" stroke-miterlimit="10"/>
        <path d="M951.001 276.059V221.21L998.5 193.785L1045.99 221.21V276.059L998.5 303.484L951.001 276.059Z" stroke="#231F20" stroke-miterlimit="10"/>
        <path d="M998.5 248.98V194.131L1045.99 166.706L1093.49 194.131V248.98L1045.99 276.405L998.5 248.98Z" stroke="#231F20" stroke-miterlimit="10"/>
        <path d="M951.001 330.898V276.059L998.5 248.635L1045.99 276.059V330.898L998.5 358.323L951.001 330.898Z" stroke="#231F20" stroke-miterlimit="10"/>
        <path d="M761.027 167.031V112.192L808.516 84.7676L856.014 112.192V167.031L808.516 194.456L761.027 167.031Z" stroke="#231F20" stroke-miterlimit="10"/>
        <path d="M808.516 194.131V139.282L856.014 111.857L903.513 139.282V194.131L856.014 221.555L808.516 194.131Z" stroke="#231F20" stroke-miterlimit="10"/>
        <path d="M856.014 166.361V111.522L903.513 84.0969L951.001 111.522V166.361L903.513 193.785L856.014 166.361Z" stroke="#231F20" stroke-miterlimit="10"/>
        <path d="M856.014 276.059V221.21L903.513 193.785L951.001 221.21V276.059L903.513 303.484L856.014 276.059Z" stroke="#231F20" stroke-miterlimit="10"/>
        <path d="M998.5 358.658V303.819L1045.99 276.395L1093.49 303.819V358.658L1045.99 386.083L998.5 358.658Z" stroke="#231F20" stroke-miterlimit="10"/>
        <path d="M1045.99 385.747V330.898L1093.49 303.484L1140.98 330.898V385.747L1093.49 413.172L1045.99 385.747Z" stroke="#231F20" stroke-miterlimit="10"/>
        <path d="M808.516 413.507V358.658L856.014 331.244L903.513 358.658V413.507L856.014 440.932L808.516 413.507Z" stroke="#231F20" stroke-miterlimit="10"/>
        <path d="M903.513 413.507V358.658L951.001 331.244L998.5 358.658V413.507L951.001 440.932L903.513 413.507Z" stroke="#231F20" stroke-miterlimit="10"/>
        <path d="M713.529 468.357V413.507L761.027 386.083L808.516 413.507V468.357L761.027 495.781L713.529 468.357Z" stroke="#231F20" stroke-miterlimit="10"/>
        <path d="M761.027 495.446V440.597L808.516 413.172L856.014 440.597V495.446L808.516 522.86L761.027 495.446Z" stroke="#231F20" stroke-miterlimit="10"/>
        <path d="M713.529 358.658V303.819L761.027 276.395L808.516 303.819V358.658L761.027 386.083L713.529 358.658Z" stroke="#231F20" stroke-miterlimit="10"/>
        <path d="M666.04 276.059V221.21L713.529 193.785L761.027 221.21V276.059L713.529 303.484L666.04 276.059Z" stroke="#231F20" stroke-miterlimit="10"/>
        <path d="M1093.49 413.507V358.658L1140.98 331.244L1188.47 358.658V413.507L1140.98 440.932L1093.49 413.507Z" stroke="#231F20" stroke-miterlimit="10"/>
        <path d="M713.529 303.819V248.97L761.027 221.545L808.516 248.97V303.819L761.027 331.244L713.529 303.819Z" stroke="#231F20" stroke-miterlimit="10"/>
        <path d="M808.516 468.357V413.507L856.014 386.083L903.513 413.507V468.357L856.014 495.781L808.516 468.357Z" stroke="#231F20" stroke-miterlimit="10"/>
    </g>
</svg>
