<svg width="1273" height="675" viewBox="0 0 1273 675" fill="none" xmlns="http://www.w3.org/2000/svg">
    <path opacity="0.3" d="M915.916 234.185V175.511L865.088 146.185L814.271 175.511V234.185L865.088 263.522L915.916 234.185Z" stroke="#231F20" stroke-miterlimit="10"/>
    <path opacity="0.3" d="M865.088 146.544V87.8697L814.271 58.5327L763.443 87.8697V146.544L814.271 175.87L865.088 146.544Z" stroke="#231F20" stroke-miterlimit="10"/>
    <path opacity="0.3" d="M763.443 87.8805V29.2066L712.626 -0.130371L661.798 29.2066V87.8805L712.626 117.207L763.443 87.8805Z" stroke="#231F20" stroke-miterlimit="10"/>
    <path opacity="0.3" d="M763.443 205.207V146.543L712.626 117.207L661.798 146.543V205.207L712.626 234.544L763.443 205.207Z" stroke="#231F20" stroke-miterlimit="10"/>
    <path opacity="0.3" d="M712.626 116.848V58.1739L661.798 28.8369L610.981 58.1739V116.848L661.798 146.185L712.626 116.848Z" stroke="#231F20" stroke-miterlimit="10"/>
    <path opacity="0.3" d="M661.798 87.8805V29.2066L610.981 -0.130371L560.153 29.2066V87.8805L610.981 117.207L661.798 87.8805Z" stroke="#231F20" stroke-miterlimit="10"/>
    <path opacity="0.3" d="M712.626 175.511V116.848L661.798 87.5107L610.981 116.848V175.511L661.798 204.848L712.626 175.511Z" stroke="#231F20" stroke-miterlimit="10"/>
    <path opacity="0.3" d="M915.916 0.217291V-58.4458L865.088 -87.7827L814.271 -58.4458V0.217291L865.088 29.5542L915.916 0.217291Z" stroke="#231F20" stroke-miterlimit="10"/>
    <path opacity="0.3" d="M865.088 29.2064V-29.4675L814.271 -58.8044L763.443 -29.4675V29.2064L814.271 58.5434L865.088 29.2064Z" stroke="#231F20" stroke-miterlimit="10"/>
    <path opacity="0.3" d="M814.271 -0.500003V-59.163L763.443 -88.5L712.626 -59.163V-0.500003L763.443 28.837L814.271 -0.500003Z" stroke="#231F20" stroke-miterlimit="10"/>
    <path opacity="0.3" d="M814.271 116.848V58.1739L763.443 28.8369L712.626 58.1739V116.848L763.443 146.185L814.271 116.848Z" stroke="#231F20" stroke-miterlimit="10"/>
    <path opacity="0.3" d="M661.798 205.207V146.543L610.981 117.207L560.153 146.543V205.207L610.981 234.544L661.798 205.207Z" stroke="#231F20" stroke-miterlimit="10"/>
    <path opacity="0.3" d="M610.981 234.185V175.511L560.154 146.185L509.336 175.511V234.185L560.154 263.522L610.981 234.185Z" stroke="#231F20" stroke-miterlimit="10"/>
    <path opacity="0.3" d="M865.088 263.881V205.207L814.271 175.87L763.443 205.207V263.881L814.271 293.217L865.088 263.881Z" stroke="#231F20" stroke-miterlimit="10"/>
    <path opacity="0.3" d="M763.443 263.881V205.207L712.626 175.87L661.798 205.207V263.881L712.626 293.217L763.443 263.881Z" stroke="#231F20" stroke-miterlimit="10"/>
    <path opacity="0.3" d="M966.733 322.554V263.88L915.916 234.543L865.088 263.88V322.554L915.916 351.891L966.733 322.554Z" stroke="#231F20" stroke-miterlimit="10"/>
    <path opacity="0.3" d="M915.916 351.522V292.859L865.088 263.522L814.271 292.859V351.522L865.088 380.859L915.916 351.522Z" stroke="#231F20" stroke-miterlimit="10"/>
    <path opacity="0.3" d="M966.733 205.207V146.543L915.916 117.207L865.088 146.543V205.207L915.916 234.544L966.733 205.207Z" stroke="#231F20" stroke-miterlimit="10"/>
    <path opacity="0.3" d="M1017.56 116.848V58.1739L966.733 28.8369L915.916 58.1739V116.848L966.733 146.185L1017.56 116.848Z" stroke="#231F20" stroke-miterlimit="10"/>
    <path opacity="0.3" d="M560.153 263.881V205.207L509.336 175.87L458.509 205.207V263.881L509.336 293.217L560.153 263.881Z" stroke="#231F20" stroke-miterlimit="10"/>
    <path opacity="0.3" d="M966.733 146.544V87.8697L915.916 58.5327L865.088 87.8697V146.544L915.916 175.87L966.733 146.544Z" stroke="#231F20" stroke-miterlimit="10"/>
    <path opacity="0.3" d="M865.088 322.554V263.88L814.271 234.543L763.443 263.88V322.554L814.271 351.891L865.088 322.554Z" stroke="#231F20" stroke-miterlimit="10"/>
    <g opacity="0.6">
        <path d="M1170.16 557.043V498.369L1119.35 469.032L1068.52 498.369V557.043L1119.35 586.38L1170.16 557.043Z" stroke="#231F20" stroke-miterlimit="10"/>
        <path d="M1119.35 469.391V410.728L1068.52 381.391L1017.7 410.728V469.391L1068.52 498.728L1119.35 469.391Z" stroke="#231F20" stroke-miterlimit="10"/>
        <path d="M1017.7 410.728V352.065L966.874 322.728L916.057 352.065V410.728L966.874 440.065L1017.7 410.728Z" stroke="#231F20" stroke-miterlimit="10"/>
        <path d="M1017.7 528.065V469.391L966.874 440.065L916.057 469.391V528.065L966.874 557.402L1017.7 528.065Z" stroke="#231F20" stroke-miterlimit="10"/>
        <path d="M966.874 439.706V381.033L916.057 351.696L865.229 381.033V439.706L916.057 469.033L966.874 439.706Z" stroke="#231F20" stroke-miterlimit="10"/>
        <path d="M916.057 410.728V352.065L865.229 322.728L814.412 352.065V410.728L865.229 440.065L916.057 410.728Z" stroke="#231F20" stroke-miterlimit="10"/>
        <path d="M966.874 498.369V439.706L916.057 410.369L865.229 439.706V498.369L916.057 527.706L966.874 498.369Z" stroke="#231F20" stroke-miterlimit="10"/>
        <path d="M1170.16 323.076V264.413L1119.35 235.076L1068.52 264.413V323.076L1119.35 352.413L1170.16 323.076Z" stroke="#231F20" stroke-miterlimit="10"/>
        <path d="M1119.35 352.065V293.391L1068.52 264.054L1017.7 293.391V352.065L1068.52 381.402L1119.35 352.065Z" stroke="#231F20" stroke-miterlimit="10"/>
        <path d="M1068.52 322.359V263.685L1017.7 234.359L966.874 263.685V322.359L1017.7 351.696L1068.52 322.359Z" stroke="#231F20" stroke-miterlimit="10"/>
        <path d="M1068.52 439.706V381.033L1017.7 351.696L966.874 381.033V439.706L1017.7 469.033L1068.52 439.706Z" stroke="#231F20" stroke-miterlimit="10"/>
        <path d="M916.057 528.065V469.391L865.229 440.065L814.412 469.391V528.065L865.229 557.402L916.057 528.065Z" stroke="#231F20" stroke-miterlimit="10"/>
        <path d="M865.229 557.043V498.369L814.412 469.032L763.585 498.369V557.043L814.412 586.38L865.229 557.043Z" stroke="#231F20" stroke-miterlimit="10"/>
        <path d="M1119.35 586.739V528.065L1068.52 498.728L1017.7 528.065V586.739L1068.52 616.076L1119.35 586.739Z" stroke="#231F20" stroke-miterlimit="10"/>
        <path d="M1017.7 586.739V528.065L966.874 498.728L916.057 528.065V586.739L966.874 616.076L1017.7 586.739Z" stroke="#231F20" stroke-miterlimit="10"/>
        <path d="M1220.99 645.402V586.739L1170.16 557.402L1119.35 586.739V645.402L1170.16 674.739L1220.99 645.402Z" stroke="#231F20" stroke-miterlimit="10"/>
        <path d="M1170.16 674.38V615.717L1119.35 586.38L1068.52 615.717V674.38L1119.35 703.717L1170.16 674.38Z" stroke="#231F20" stroke-miterlimit="10"/>
        <path d="M1220.99 528.065V469.391L1170.16 440.065L1119.35 469.391V528.065L1170.16 557.402L1220.99 528.065Z" stroke="#231F20" stroke-miterlimit="10"/>
        <path d="M1271.81 439.706V381.033L1220.99 351.696L1170.16 381.033V439.706L1220.99 469.033L1271.81 439.706Z" stroke="#231F20" stroke-miterlimit="10"/>
        <path d="M814.412 586.739V528.065L763.585 498.728L712.757 528.065V586.739L763.585 616.076L814.412 586.739Z" stroke="#231F20" stroke-miterlimit="10"/>
        <path d="M1220.99 469.391V410.728L1170.16 381.391L1119.35 410.728V469.391L1170.16 498.728L1220.99 469.391Z" stroke="#231F20" stroke-miterlimit="10"/>
        <path d="M1119.35 645.402V586.739L1068.52 557.402L1017.7 586.739V645.402L1068.52 674.739L1119.35 645.402Z" stroke="#231F20" stroke-miterlimit="10"/>
    </g>
    <g opacity="0.6">
        <path d="M458.509 323.076V264.402L407.692 235.076L356.864 264.402V323.076L407.692 352.413L458.509 323.076Z" stroke="#231F20" stroke-miterlimit="10"/>
        <path d="M407.692 235.435V176.761L356.864 147.424L306.036 176.761V235.435L356.864 264.772L407.692 235.435Z" stroke="#231F20" stroke-miterlimit="10"/>
        <path d="M306.036 176.772V118.098L255.219 88.761L204.391 118.098V176.772L255.219 206.109L306.036 176.772Z" stroke="#231F20" stroke-miterlimit="10"/>
        <path d="M306.036 294.098V235.435L255.219 206.098L204.391 235.435V294.098L255.219 323.435L306.036 294.098Z" stroke="#231F20" stroke-miterlimit="10"/>
        <path d="M255.219 205.739V147.065L204.391 117.728L153.574 147.065V205.739L204.391 235.076L255.219 205.739Z" stroke="#231F20" stroke-miterlimit="10"/>
        <path d="M204.391 176.772V118.098L153.574 88.761L102.746 118.098V176.772L153.574 206.109L204.391 176.772Z" stroke="#231F20" stroke-miterlimit="10"/>
        <path d="M255.219 264.402V205.739L204.391 176.402L153.574 205.739V264.402L204.391 293.739L255.219 264.402Z" stroke="#231F20" stroke-miterlimit="10"/>
        <path d="M458.509 89.1086V30.4456L407.692 1.10864L356.864 30.4456V89.1086L407.692 118.446L458.509 89.1086Z" stroke="#231F20" stroke-miterlimit="10"/>
        <path d="M407.692 118.098V59.4239L356.864 30.0869L306.036 59.4239V118.098L356.864 147.435L407.692 118.098Z" stroke="#231F20" stroke-miterlimit="10"/>
        <path d="M356.864 88.3914V29.7283L306.036 0.391357L255.219 29.7283V88.3914L306.036 117.728L356.864 88.3914Z" stroke="#231F20" stroke-miterlimit="10"/>
        <path d="M356.864 205.739V147.065L306.036 117.728L255.219 147.065V205.739L306.036 235.076L356.864 205.739Z" stroke="#231F20" stroke-miterlimit="10"/>
        <path d="M204.391 294.098V235.435L153.574 206.098L102.746 235.435V294.098L153.574 323.435L204.391 294.098Z" stroke="#231F20" stroke-miterlimit="10"/>
        <path d="M153.574 323.076V264.402L102.746 235.076L51.929 264.402V323.076L102.746 352.413L153.574 323.076Z" stroke="#231F20" stroke-miterlimit="10"/>
        <path d="M407.692 352.772V294.098L356.864 264.772L306.036 294.098V352.772L356.864 382.109L407.692 352.772Z" stroke="#231F20" stroke-miterlimit="10"/>
        <path d="M306.036 352.772V294.098L255.219 264.772L204.391 294.098V352.772L255.219 382.109L306.036 352.772Z" stroke="#231F20" stroke-miterlimit="10"/>
        <path d="M509.336 411.446V352.772L458.509 323.435L407.692 352.772V411.446L458.509 440.783L509.336 411.446Z" stroke="#231F20" stroke-miterlimit="10"/>
        <path d="M458.509 440.424V381.75L407.692 352.413L356.864 381.75V440.424L407.692 469.75L458.509 440.424Z" stroke="#231F20" stroke-miterlimit="10"/>
        <path d="M509.336 294.098V235.435L458.509 206.098L407.692 235.435V294.098L458.509 323.435L509.336 294.098Z" stroke="#231F20" stroke-miterlimit="10"/>
        <path d="M560.153 205.739V147.065L509.336 117.728L458.509 147.065V205.739L509.336 235.076L560.153 205.739Z" stroke="#231F20" stroke-miterlimit="10"/>
        <path d="M102.746 352.772V294.098L51.929 264.772L1.10114 294.098V352.772L51.929 382.109L102.746 352.772Z" stroke="#231F20" stroke-miterlimit="10"/>
        <path d="M509.336 235.435V176.761L458.509 147.424L407.692 176.761V235.435L458.509 264.772L509.336 235.435Z" stroke="#231F20" stroke-miterlimit="10"/>
        <path d="M407.692 411.446V352.772L356.864 323.435L306.036 352.772V411.446L356.864 440.783L407.692 411.446Z" stroke="#231F20" stroke-miterlimit="10"/>
    </g>
</svg>
