<svg width="901" height="563" viewBox="0 0 901 563" fill="none" xmlns="http://www.w3.org/2000/svg">
    <path opacity="0.3" d="M252.878 229.509V187.959L288.851 167.192L324.816 187.959V229.509L288.851 250.283L252.878 229.509Z" stroke="white" stroke-miterlimit="10"/>
    <path opacity="0.3" d="M288.851 167.446V125.896L324.816 105.121L360.789 125.896V167.446L324.816 188.213L288.851 167.446Z" stroke="white" stroke-miterlimit="10"/>
    <path opacity="0.3" d="M360.789 125.903V84.3536L396.754 63.5787L432.727 84.3536V125.903L396.754 146.671L360.789 125.903Z" stroke="white" stroke-miterlimit="10"/>
    <path opacity="0.3" d="M360.789 208.988V167.446L396.754 146.671L432.727 167.446V208.988L396.754 229.763L360.789 208.988Z" stroke="white" stroke-miterlimit="10"/>
    <path opacity="0.3" d="M396.754 146.417V104.867L432.727 84.0919L468.692 104.867V146.417L432.727 167.192L396.754 146.417Z" stroke="white" stroke-miterlimit="10"/>
    <path opacity="0.3" d="M432.727 125.903V84.3536L468.692 63.5787L504.665 84.3536V125.903L468.692 146.671L432.727 125.903Z" stroke="white" stroke-miterlimit="10"/>
    <path opacity="0.3" d="M396.754 187.959V146.417L432.727 125.642L468.692 146.417V187.959L432.727 208.734L396.754 187.959Z" stroke="white" stroke-miterlimit="10"/>
    <path opacity="0.3" d="M252.878 63.8251V22.283L288.851 1.50806L324.816 22.283V63.8251L288.851 84.6L252.878 63.8251Z" stroke="white" stroke-miterlimit="10"/>
    <path opacity="0.3" d="M288.851 84.3537V42.8038L324.816 22.0289L360.789 42.8038V84.3537L324.816 105.129L288.851 84.3537Z" stroke="white" stroke-miterlimit="10"/>
    <path opacity="0.3" d="M324.816 63.317V21.7749L360.789 1L396.754 21.7749V63.317L360.789 84.0919L324.816 63.317Z" stroke="white" stroke-miterlimit="10"/>
    <path opacity="0.3" d="M324.816 146.417V104.867L360.789 84.0919L396.754 104.867V146.417L360.789 167.192L324.816 146.417Z" stroke="white" stroke-miterlimit="10"/>
    <path opacity="0.3" d="M432.727 208.988V167.446L468.692 146.671L504.665 167.446V208.988L468.692 229.763L432.727 208.988Z" stroke="white" stroke-miterlimit="10"/>
    <path opacity="0.3" d="M468.692 229.509V187.959L504.665 167.192L540.63 187.959V229.509L504.665 250.283L468.692 229.509Z" stroke="white" stroke-miterlimit="10"/>
    <path opacity="0.3" d="M288.851 250.538V208.988L324.816 188.213L360.789 208.988V250.538L324.816 271.312L288.851 250.538Z" stroke="white" stroke-miterlimit="10"/>
    <path opacity="0.3" d="M360.789 250.538V208.988L396.754 188.213L432.727 208.988V250.538L396.754 271.312L360.789 250.538Z" stroke="white" stroke-miterlimit="10"/>
    <path opacity="0.3" d="M216.913 292.087V250.538L252.878 229.763L288.851 250.538V292.087L252.878 312.862L216.913 292.087Z" stroke="white" stroke-miterlimit="10"/>
    <path opacity="0.3" d="M252.878 312.601V271.058L288.851 250.283L324.816 271.058V312.601L288.851 333.375L252.878 312.601Z" stroke="white" stroke-miterlimit="10"/>
    <path opacity="0.3" d="M216.913 208.988V167.446L252.878 146.671L288.851 167.446V208.988L252.878 229.763L216.913 208.988Z" stroke="white" stroke-miterlimit="10"/>
    <path opacity="0.3" d="M180.941 146.417V104.867L216.913 84.0919L252.879 104.867V146.417L216.913 167.192L180.941 146.417Z" stroke="white" stroke-miterlimit="10"/>
    <path opacity="0.3" d="M504.665 250.538V208.988L540.63 188.213L576.602 208.988V250.538L540.63 271.312L504.665 250.538Z" stroke="white" stroke-miterlimit="10"/>
    <path opacity="0.3" d="M216.913 167.446V125.896L252.878 105.121L288.851 125.896V167.446L252.878 188.213L216.913 167.446Z" stroke="white" stroke-miterlimit="10"/>
    <path opacity="0.3" d="M288.851 292.087V250.538L324.816 229.763L360.789 250.538V292.087L324.816 312.862L288.851 292.087Z" stroke="white" stroke-miterlimit="10"/>
    <g opacity="0.6">
        <path d="M72.9377 458.14V416.591L108.903 395.816L144.875 416.591V458.14L108.903 478.915L72.9377 458.14Z" stroke="white" stroke-miterlimit="10"/>
        <path d="M108.903 396.07V354.528L144.876 333.753L180.841 354.528V396.07L144.876 416.845L108.903 396.07Z" stroke="white" stroke-miterlimit="10"/>
        <path d="M180.841 354.528V312.985L216.813 292.211L252.778 312.985V354.528L216.813 375.303L180.841 354.528Z" stroke="white" stroke-miterlimit="10"/>
        <path d="M180.841 437.62V396.07L216.813 375.302L252.778 396.07V437.62L216.813 458.394L180.841 437.62Z" stroke="white" stroke-miterlimit="10"/>
        <path d="M216.813 375.048V333.499L252.778 312.724L288.751 333.499V375.048L252.778 395.816L216.813 375.048Z" stroke="white" stroke-miterlimit="10"/>
        <path d="M252.778 354.528V312.985L288.751 292.211L324.716 312.985V354.528L288.751 375.303L252.778 354.528Z" stroke="white" stroke-miterlimit="10"/>
        <path d="M216.813 416.591V375.048L252.778 354.274L288.751 375.048V416.591L252.778 437.366L216.813 416.591Z" stroke="white" stroke-miterlimit="10"/>
        <path d="M72.9377 292.457V250.915L108.903 230.14L144.875 250.915V292.457L108.903 313.232L72.9377 292.457Z" stroke="white" stroke-miterlimit="10"/>
        <path d="M108.903 312.985V271.436L144.876 250.661L180.841 271.436V312.985L144.876 333.76L108.903 312.985Z" stroke="white" stroke-miterlimit="10"/>
        <path d="M144.875 291.949V250.399L180.84 229.632L216.813 250.399V291.949L180.84 312.724L144.875 291.949Z" stroke="white" stroke-miterlimit="10"/>
        <path d="M144.875 375.048V333.499L180.84 312.724L216.813 333.499V375.048L180.84 395.816L144.875 375.048Z" stroke="white" stroke-miterlimit="10"/>
        <path d="M252.778 437.62V396.07L288.751 375.302L324.716 396.07V437.62L288.751 458.394L252.778 437.62Z" stroke="white" stroke-miterlimit="10"/>
        <path d="M288.751 458.14V416.591L324.716 395.816L360.689 416.591V458.14L324.716 478.915L288.751 458.14Z" stroke="white" stroke-miterlimit="10"/>
        <path d="M108.903 479.169V437.62L144.876 416.845L180.841 437.62V479.169L144.876 499.944L108.903 479.169Z" stroke="white" stroke-miterlimit="10"/>
        <path d="M180.841 479.169V437.62L216.813 416.845L252.778 437.62V479.169L216.813 499.944L180.841 479.169Z" stroke="white" stroke-miterlimit="10"/>
        <path d="M36.9651 520.711V479.169L72.9378 458.394L108.903 479.169V520.711L72.9378 541.486L36.9651 520.711Z" stroke="white" stroke-miterlimit="10"/>
        <path d="M72.9377 541.232V499.69L108.903 478.915L144.875 499.69V541.232L108.903 562.007L72.9377 541.232Z" stroke="white" stroke-miterlimit="10"/>
        <path d="M36.9651 437.62V396.07L72.9378 375.302L108.903 396.07V437.62L72.9378 458.394L36.9651 437.62Z" stroke="white" stroke-miterlimit="10"/>
        <path d="M0.999937 375.048V333.499L36.965 312.724L72.9377 333.499V375.048L36.965 395.816L0.999937 375.048Z" stroke="white" stroke-miterlimit="10"/>
        <path d="M324.716 479.169V437.62L360.689 416.845L396.662 437.62V479.169L360.689 499.944L324.716 479.169Z" stroke="white" stroke-miterlimit="10"/>
        <path d="M36.9651 396.07V354.528L72.9378 333.753L108.903 354.528V396.07L72.9378 416.845L36.9651 396.07Z" stroke="white" stroke-miterlimit="10"/>
        <path d="M108.903 520.711V479.169L144.876 458.394L180.841 479.169V520.711L144.876 541.486L108.903 520.711Z" stroke="white" stroke-miterlimit="10"/>
    </g>
    <g opacity="0.6">
        <path d="M576.602 292.457V250.907L612.567 230.14L648.54 250.907V292.457L612.567 313.232L576.602 292.457Z" stroke="white" stroke-miterlimit="10"/>
        <path d="M612.567 230.394V188.844L648.54 168.069L684.513 188.844V230.394L648.54 251.169L612.567 230.394Z" stroke="white" stroke-miterlimit="10"/>
        <path d="M684.513 188.852V147.302L720.478 126.527L756.451 147.302V188.852L720.478 209.627L684.513 188.852Z" stroke="white" stroke-miterlimit="10"/>
        <path d="M684.513 271.936V230.394L720.478 209.619L756.451 230.394V271.936L720.478 292.711L684.513 271.936Z" stroke="white" stroke-miterlimit="10"/>
        <path d="M720.478 209.365V167.815L756.451 147.04L792.416 167.815V209.365L756.451 230.14L720.478 209.365Z" stroke="white" stroke-miterlimit="10"/>
        <path d="M756.451 188.852V147.302L792.416 126.527L828.388 147.302V188.852L792.416 209.627L756.451 188.852Z" stroke="white" stroke-miterlimit="10"/>
        <path d="M720.478 250.907V209.365L756.451 188.59L792.416 209.365V250.907L756.451 271.682L720.478 250.907Z" stroke="white" stroke-miterlimit="10"/>
        <path d="M576.602 126.773V85.2312L612.567 64.4563L648.54 85.2312V126.773L612.567 147.548L576.602 126.773Z" stroke="white" stroke-miterlimit="10"/>
        <path d="M612.567 147.302V105.752L648.54 84.9772L684.513 105.752V147.302L648.54 168.077L612.567 147.302Z" stroke="white" stroke-miterlimit="10"/>
        <path d="M648.54 126.265V84.7232L684.513 63.9482L720.478 84.7232V126.265L684.513 147.04L648.54 126.265Z" stroke="white" stroke-miterlimit="10"/>
        <path d="M648.54 209.365V167.815L684.513 147.04L720.478 167.815V209.365L684.513 230.14L648.54 209.365Z" stroke="white" stroke-miterlimit="10"/>
        <path d="M756.451 271.936V230.394L792.416 209.619L828.388 230.394V271.936L792.416 292.711L756.451 271.936Z" stroke="white" stroke-miterlimit="10"/>
        <path d="M792.416 292.457V250.907L828.388 230.14L864.353 250.907V292.457L828.388 313.232L792.416 292.457Z" stroke="white" stroke-miterlimit="10"/>
        <path d="M612.567 313.486V271.936L648.54 251.169L684.513 271.936V313.486L648.54 334.261L612.567 313.486Z" stroke="white" stroke-miterlimit="10"/>
        <path d="M684.513 313.486V271.936L720.478 251.169L756.451 271.936V313.486L720.478 334.261L684.513 313.486Z" stroke="white" stroke-miterlimit="10"/>
        <path d="M540.63 355.036V313.486L576.602 292.711L612.567 313.486V355.036L576.602 375.811L540.63 355.036Z" stroke="white" stroke-miterlimit="10"/>
        <path d="M576.602 375.556V334.007L612.567 313.232L648.54 334.007V375.556L612.567 396.324L576.602 375.556Z" stroke="white" stroke-miterlimit="10"/>
        <path d="M540.63 271.936V230.394L576.602 209.619L612.567 230.394V271.936L576.602 292.711L540.63 271.936Z" stroke="white" stroke-miterlimit="10"/>
        <path d="M504.665 209.365V167.815L540.63 147.04L576.602 167.815V209.365L540.63 230.14L504.665 209.365Z" stroke="white" stroke-miterlimit="10"/>
        <path d="M828.388 313.486V271.936L864.353 251.169L900.326 271.936V313.486L864.353 334.261L828.388 313.486Z" stroke="white" stroke-miterlimit="10"/>
        <path d="M540.63 230.394V188.844L576.602 168.069L612.567 188.844V230.394L576.602 251.169L540.63 230.394Z" stroke="white" stroke-miterlimit="10"/>
        <path d="M612.567 355.036V313.486L648.54 292.711L684.513 313.486V355.036L648.54 375.811L612.567 355.036Z" stroke="white" stroke-miterlimit="10"/>
    </g>
</svg>
