<svg width="902" height="320" viewBox="0 0 902 320" fill="none" xmlns="http://www.w3.org/2000/svg">
    <path opacity="0.3" d="M253.281 116.838V75.288L289.254 54.5208L325.219 75.288V116.838L289.254 137.613L253.281 116.838Z" stroke="white" stroke-miterlimit="10"/>
    <path opacity="0.3" d="M289.254 54.7747V13.2249L325.219 -7.55005L361.191 13.2249V54.7747L325.219 75.5419L289.254 54.7747Z" stroke="white" stroke-miterlimit="10"/>
    <path opacity="0.3" d="M361.191 13.2324V-28.3174L397.156 -49.0923L433.129 -28.3174V13.2324L397.156 33.9997L361.191 13.2324Z" stroke="white" stroke-miterlimit="10"/>
    <path opacity="0.3" d="M361.191 96.3168V54.7747L397.156 33.9998L433.129 54.7747V96.3168L397.156 117.092L361.191 96.3168Z" stroke="white" stroke-miterlimit="10"/>
    <path opacity="0.3" d="M397.156 33.7459V-7.80395L433.129 -28.5789L469.094 -7.80395V33.7459L433.129 54.5208L397.156 33.7459Z" stroke="white" stroke-miterlimit="10"/>
    <path opacity="0.3" d="M433.129 13.2324V-28.3174L469.094 -49.0923L505.066 -28.3174V13.2324L469.094 33.9997L433.129 13.2324Z" stroke="white" stroke-miterlimit="10"/>
    <path opacity="0.3" d="M397.156 75.288V33.7459L433.129 12.9709L469.094 33.7459V75.288L433.129 96.0629L397.156 75.288Z" stroke="white" stroke-miterlimit="10"/>
    <path opacity="0.3" d="M325.218 33.7459V-7.80395L361.191 -28.5789L397.156 -7.80395V33.7459L361.191 54.5208L325.218 33.7459Z" stroke="white" stroke-miterlimit="10"/>
    <path opacity="0.3" d="M433.129 96.3168V54.7747L469.094 33.9998L505.066 54.7747V96.3168L469.094 117.092L433.129 96.3168Z" stroke="white" stroke-miterlimit="10"/>
    <path opacity="0.3" d="M469.093 116.838V75.288L505.066 54.5208L541.031 75.288V116.838L505.066 137.613L469.093 116.838Z" stroke="white" stroke-miterlimit="10"/>
    <path opacity="0.3" d="M289.254 137.867V96.3169L325.219 75.542L361.191 96.3169V137.867L325.219 158.642L289.254 137.867Z" stroke="white" stroke-miterlimit="10"/>
    <path opacity="0.3" d="M361.191 137.867V96.3169L397.156 75.542L433.129 96.3169V137.867L397.156 158.642L361.191 137.867Z" stroke="white" stroke-miterlimit="10"/>
    <path opacity="0.3" d="M217.314 179.417V137.867L253.279 117.092L289.252 137.867V179.417L253.279 200.191L217.314 179.417Z" stroke="white" stroke-miterlimit="10"/>
    <path opacity="0.3" d="M253.281 199.93V158.387L289.254 137.613L325.219 158.387V199.93L289.254 220.705L253.281 199.93Z" stroke="white" stroke-miterlimit="10"/>
    <path opacity="0.3" d="M217.314 96.3168V54.7747L253.279 33.9998L289.252 54.7747V96.3168L253.279 117.092L217.314 96.3168Z" stroke="white" stroke-miterlimit="10"/>
    <path opacity="0.3" d="M181.341 33.7459V-7.80395L217.314 -28.5789L253.279 -7.80395V33.7459L217.314 54.5208L181.341 33.7459Z" stroke="white" stroke-miterlimit="10"/>
    <path opacity="0.3" d="M505.066 137.867V96.3169L541.031 75.542L577.004 96.3169V137.867L541.031 158.642L505.066 137.867Z" stroke="white" stroke-miterlimit="10"/>
    <path opacity="0.3" d="M217.314 54.7747V13.2249L253.279 -7.55005L289.252 13.2249V54.7747L253.279 75.5419L217.314 54.7747Z" stroke="white" stroke-miterlimit="10"/>
    <path opacity="0.3" d="M289.254 179.417V137.867L325.219 117.092L361.191 137.867V179.417L325.219 200.191L289.254 179.417Z" stroke="white" stroke-miterlimit="10"/>
    <g opacity="0.6">
        <path d="M73.3396 345.47V303.92L109.305 283.145L145.277 303.92V345.47L109.305 366.244L73.3396 345.47Z" stroke="white" stroke-miterlimit="10"/>
        <path d="M109.306 283.399V241.857L145.279 221.082L181.244 241.857V283.399L145.279 304.174L109.306 283.399Z" stroke="white" stroke-miterlimit="10"/>
        <path d="M181.244 241.857V200.315L217.217 179.54L253.182 200.315V241.857L217.217 262.632L181.244 241.857Z" stroke="white" stroke-miterlimit="10"/>
        <path d="M181.244 324.949V283.399L217.217 262.632L253.182 283.399V324.949L217.217 345.724L181.244 324.949Z" stroke="white" stroke-miterlimit="10"/>
        <path d="M217.216 262.378V220.828L253.182 200.053L289.154 220.828V262.378L253.182 283.145L217.216 262.378Z" stroke="white" stroke-miterlimit="10"/>
        <path d="M253.181 241.857V200.315L289.154 179.54L325.119 200.315V241.857L289.154 262.632L253.181 241.857Z" stroke="white" stroke-miterlimit="10"/>
        <path d="M217.216 303.92V262.378L253.182 241.603L289.154 262.378V303.92L253.182 324.695L217.216 303.92Z" stroke="white" stroke-miterlimit="10"/>
        <path d="M73.3396 179.786V138.244L109.305 117.469L145.277 138.244V179.786L109.305 200.561L73.3396 179.786Z" stroke="white" stroke-miterlimit="10"/>
        <path d="M109.306 200.314V158.765L145.279 137.99L181.244 158.765V200.314L145.279 221.089L109.306 200.314Z" stroke="white" stroke-miterlimit="10"/>
        <path d="M145.279 179.278V137.728L181.244 116.961L217.217 137.728V179.278L181.244 200.053L145.279 179.278Z" stroke="white" stroke-miterlimit="10"/>
        <path d="M145.279 262.378V220.828L181.244 200.053L217.217 220.828V262.378L181.244 283.145L145.279 262.378Z" stroke="white" stroke-miterlimit="10"/>
        <path d="M253.181 324.949V283.399L289.154 262.632L325.119 283.399V324.949L289.154 345.724L253.181 324.949Z" stroke="white" stroke-miterlimit="10"/>
        <path d="M289.154 345.47V303.92L325.119 283.145L361.092 303.92V345.47L325.119 366.244L289.154 345.47Z" stroke="white" stroke-miterlimit="10"/>
        <path d="M109.306 366.499V324.949L145.279 304.174L181.244 324.949V366.499L145.279 387.273L109.306 366.499Z" stroke="white" stroke-miterlimit="10"/>
        <path d="M181.244 366.499V324.949L217.217 304.174L253.182 324.949V366.499L217.217 387.273L181.244 366.499Z" stroke="white" stroke-miterlimit="10"/>
        <path d="M37.3669 324.949V283.399L73.3397 262.632L109.305 283.399V324.949L73.3397 345.724L37.3669 324.949Z" stroke="white" stroke-miterlimit="10"/>
        <path d="M1.40204 262.378V220.828L37.3671 200.053L73.3398 220.828V262.378L37.3671 283.145L1.40204 262.378Z" stroke="white" stroke-miterlimit="10"/>
        <path d="M325.119 366.499V324.949L361.092 304.174L397.064 324.949V366.499L361.092 387.273L325.119 366.499Z" stroke="white" stroke-miterlimit="10"/>
        <path d="M37.3669 283.399V241.857L73.3397 221.082L109.305 241.857V283.399L73.3397 304.174L37.3669 283.399Z" stroke="white" stroke-miterlimit="10"/>
    </g>
    <g opacity="0.6">
        <path d="M577.006 179.786V138.236L612.971 117.469L648.943 138.236V179.786L612.971 200.561L577.006 179.786Z" stroke="white" stroke-miterlimit="10"/>
        <path d="M612.971 117.723V76.1731L648.943 55.3982L684.916 76.1731V117.723L648.943 138.498L612.971 117.723Z" stroke="white" stroke-miterlimit="10"/>
        <path d="M684.916 76.1807V34.6309L720.881 13.856L756.854 34.6309V76.1807L720.881 96.9556L684.916 76.1807Z" stroke="white" stroke-miterlimit="10"/>
        <path d="M684.916 159.265V117.723L720.881 96.948L756.854 117.723V159.265L720.881 180.04L684.916 159.265Z" stroke="white" stroke-miterlimit="10"/>
        <path d="M720.881 96.6941V55.1443L756.853 34.3694L792.818 55.1443V96.6941L756.853 117.469L720.881 96.6941Z" stroke="white" stroke-miterlimit="10"/>
        <path d="M756.853 76.1807V34.6309L792.818 13.856L828.791 34.6309V76.1807L792.818 96.9556L756.853 76.1807Z" stroke="white" stroke-miterlimit="10"/>
        <path d="M720.881 138.236V96.6941L756.853 75.9192L792.818 96.6941V138.236L756.853 159.011L720.881 138.236Z" stroke="white" stroke-miterlimit="10"/>
        <path d="M577.006 14.1024V-27.4397L612.971 -48.2146L648.943 -27.4397V14.1024L612.971 34.8773L577.006 14.1024Z" stroke="white" stroke-miterlimit="10"/>
        <path d="M612.971 34.6311V-6.91869L648.943 -27.6936L684.916 -6.91869V34.6311L648.943 55.4061L612.971 34.6311Z" stroke="white" stroke-miterlimit="10"/>
        <path d="M648.943 13.5944V-27.9477L684.916 -48.7227L720.881 -27.9477V13.5944L684.916 34.3693L648.943 13.5944Z" stroke="white" stroke-miterlimit="10"/>
        <path d="M648.943 96.6941V55.1443L684.916 34.3694L720.881 55.1443V96.6941L684.916 117.469L648.943 96.6941Z" stroke="white" stroke-miterlimit="10"/>
        <path d="M756.853 159.265V117.723L792.818 96.948L828.791 117.723V159.265L792.818 180.04L756.853 159.265Z" stroke="white" stroke-miterlimit="10"/>
        <path d="M792.818 179.786V138.236L828.791 117.469L864.756 138.236V179.786L828.791 200.561L792.818 179.786Z" stroke="white" stroke-miterlimit="10"/>
        <path d="M612.971 200.815V159.265L648.943 138.498L684.916 159.265V200.815L648.943 221.59L612.971 200.815Z" stroke="white" stroke-miterlimit="10"/>
        <path d="M684.916 200.815V159.265L720.881 138.498L756.854 159.265V200.815L720.881 221.59L684.916 200.815Z" stroke="white" stroke-miterlimit="10"/>
        <path d="M541.031 242.365V200.815L577.004 180.04L612.969 200.815V242.365L577.004 263.14L541.031 242.365Z" stroke="white" stroke-miterlimit="10"/>
        <path d="M577.006 262.886V221.336L612.971 200.561L648.943 221.336V262.886L612.971 283.653L577.006 262.886Z" stroke="white" stroke-miterlimit="10"/>
        <path d="M541.031 159.265V117.723L577.004 96.948L612.969 117.723V159.265L577.004 180.04L541.031 159.265Z" stroke="white" stroke-miterlimit="10"/>
        <path d="M505.066 96.6941V55.1443L541.031 34.3694L577.004 55.1443V96.6941L541.031 117.469L505.066 96.6941Z" stroke="white" stroke-miterlimit="10"/>
        <path d="M828.791 200.815V159.265L864.756 138.498L900.729 159.265V200.815L864.756 221.59L828.791 200.815Z" stroke="white" stroke-miterlimit="10"/>
        <path d="M541.031 117.723V76.1731L577.004 55.3982L612.969 76.1731V117.723L577.004 138.498L541.031 117.723Z" stroke="white" stroke-miterlimit="10"/>
        <path d="M612.971 242.365V200.815L648.943 180.04L684.916 200.815V242.365L648.943 263.14L612.971 242.365Z" stroke="white" stroke-miterlimit="10"/>
    </g>
</svg>
