<svg width="30" height="30" viewBox="0 0 30 30" fill="none" xmlns="http://www.w3.org/2000/svg">
    <path d="M22.2585 7.6792C20.5934 7.6792 19.2388 9.03389 19.2388 10.6989C19.2388 12.364 20.5934 13.7187 22.2585 13.7187C23.9236 13.7187 25.2783 12.3641 25.2783 10.6989C25.2783 9.03377 23.9236 7.6792 22.2585 7.6792ZM22.2585 12.5468C21.2396 12.5468 20.4106 11.7179 20.4106 10.6989C20.4106 9.68 21.2396 8.85107 22.2585 8.85107C23.2774 8.85107 24.1064 9.68 24.1064 10.6989C24.1064 11.7178 23.2775 12.5468 22.2585 12.5468Z" fill="black"/>
    <path d="M22.2791 26.4365C22.2645 26.4008 22.2463 26.3668 22.2252 26.3352C22.2041 26.3029 22.1795 26.273 22.1525 26.2461C22.1256 26.2191 22.0957 26.1945 22.0635 26.1734C22.0318 26.1523 21.9979 26.1342 21.9621 26.1195C21.927 26.1049 21.89 26.0932 21.8525 26.0861C21.777 26.0709 21.6996 26.0709 21.624 26.0861C21.5865 26.0932 21.5496 26.1049 21.5145 26.1195C21.4787 26.1342 21.4447 26.1523 21.4131 26.1734C21.3809 26.1945 21.351 26.2191 21.324 26.2461C21.2971 26.273 21.2725 26.3029 21.2514 26.3352C21.2303 26.3668 21.2121 26.4008 21.1975 26.4365C21.1828 26.4717 21.1711 26.5086 21.1641 26.5461C21.1564 26.5836 21.1523 26.6223 21.1523 26.6603C21.1523 26.6984 21.1564 26.7371 21.1641 26.7746C21.1711 26.8121 21.1828 26.849 21.1975 26.8842C21.2121 26.9199 21.2303 26.9539 21.2514 26.9855C21.2725 27.0178 21.2971 27.0477 21.324 27.0746C21.3374 27.088 21.3516 27.1009 21.3664 27.113C21.3813 27.1252 21.3969 27.1367 21.4131 27.1473C21.4447 27.1684 21.4787 27.1865 21.5145 27.2012C21.5496 27.2158 21.5865 27.2275 21.624 27.2346C21.6615 27.2422 21.7002 27.2463 21.7383 27.2463C21.7764 27.2463 21.815 27.2422 21.8525 27.2346C21.89 27.2275 21.927 27.2158 21.9621 27.2012C21.9979 27.1865 22.0318 27.1684 22.0635 27.1473C22.0796 27.1367 22.0952 27.1252 22.1102 27.113C22.125 27.1009 22.1391 27.088 22.1525 27.0746C22.1795 27.0477 22.2041 27.0178 22.2252 26.9855C22.2463 26.9539 22.2645 26.9199 22.2791 26.8842C22.2938 26.849 22.3055 26.8121 22.3131 26.7746C22.3207 26.7371 22.3242 26.6984 22.3242 26.6603C22.3242 26.6223 22.3207 26.5836 22.3131 26.5461C22.3055 26.5085 22.2938 26.4716 22.2791 26.4365Z" fill="black"/>
    <path d="M26.7262 2.88959C26.3749 1.4043 25.0387 0.29541 23.4476 0.29541H5.0635C2.2715 0.295352 0 2.56686 0 5.35885V23.7429C0 25.5688 1.45998 27.059 3.27375 27.1102C3.62508 28.5955 4.96125 29.7044 6.55242 29.7044H26.6303C28.4883 29.7044 30 28.1927 30 26.3346V21.9133V6.2568C30 4.43102 28.54 2.94074 26.7262 2.88959ZM28.8281 26.3348C28.8281 27.5467 27.8422 28.5326 26.6303 28.5326H6.55242C5.61434 28.5326 4.81207 27.9417 4.49725 27.1127C4.40531 26.8707 4.35457 26.6086 4.35457 26.3348V25.9408V23.2262L11.0767 11.8284C11.2814 11.4814 11.6464 11.2787 12.0468 11.2852C12.4496 11.2921 12.8051 11.5074 12.9978 11.8612L15.8921 17.1758L20.0992 24.901C20.2055 25.0962 20.4066 25.2068 20.6143 25.2068C20.709 25.2068 20.805 25.1838 20.894 25.1353C21.1782 24.9805 21.2831 24.6246 21.1284 24.3405L19.7631 21.8335C20.3626 21.8612 20.9521 21.6671 21.4216 21.2776L24.0567 19.0917C24.4792 18.7411 25.1032 18.7565 25.508 19.1276L25.6455 19.2537L26.8174 20.3279L28.8281 22.1711V26.3348ZM28.8281 20.5813L26.8174 18.7381L25.6455 17.8458C24.882 17.5264 23.9741 17.6375 23.3084 18.1897L20.6734 20.3756C20.3836 20.6161 20.0052 20.7132 19.6354 20.6421C19.2655 20.5711 18.9501 20.3406 18.77 20.0099L16.9212 16.6152L15.8889 14.7197V14.7196L14.027 11.3007C13.6298 10.5715 12.8971 10.1276 12.0669 10.1134C11.2369 10.1004 10.4892 10.5178 10.0673 11.233L4.35451 20.9194V6.2568C4.35451 5.0449 5.34047 4.05895 6.55236 4.05895H15.4464C15.77 4.05895 16.0324 3.79662 16.0324 3.47301C16.0324 3.14939 15.77 2.88707 15.4464 2.88707H6.55236C4.6943 2.88707 3.18264 4.39873 3.18264 6.2568V23.0663V25.9322C2.05805 25.8369 1.17188 24.8918 1.17188 23.7429V5.35885C1.17188 3.21297 2.91768 1.46723 5.0635 1.46723H23.4476C24.3857 1.46723 25.1879 2.05814 25.5028 2.88713H14.8605C14.5369 2.88713 14.2746 3.14945 14.2746 3.47307C14.2746 3.79668 14.5369 4.059 14.8605 4.059H25.6454L26.8173 4.06756C27.942 4.16283 28.8281 5.10795 28.8281 6.2568V20.5813Z" fill="black"/>
</svg>
