<svg width="193" height="116" viewBox="0 0 193 116" fill="none" xmlns="http://www.w3.org/2000/svg">
	<path d="M23.3423 63.4675H29.1789V63.885L26.6793 64.5134V91.6631L29.1789 92.2915V92.709H20.6365V92.2915L23.1361 91.6631V67.0183L14.1771 93.3331H13.5501L3.54742 67.0183V91.2456L6.25744 92.2915V92.709H0V92.2915L2.71001 91.2456V64.7242L0 63.885V63.4675H6.04282L15.1702 87.484L23.3423 63.4675Z" fill="white"/>
	<path d="M38.9712 87.273V91.6588L41.4708 92.2872V92.7047H32.9283V92.2872L35.428 91.6588V64.5091L32.9283 63.8807V63.4633H41.4708V63.8807L38.9712 64.5091V85.6031L47.5136 68.4774V64.5091L45.014 63.8807V63.4633H53.5564V63.8807L51.0568 64.5091V91.6588L53.5564 92.2872V92.7047H45.014V92.2872L47.5136 91.6588V70.1474L38.9712 87.273Z" fill="white"/>
	<path d="M63.3529 82.2632V91.6631L65.8525 92.2915V92.709H57.3101V92.2915L59.8097 91.6631V64.5134L57.3101 63.885V63.4675H64.8131C66.5342 63.4675 68.0702 63.7037 69.4167 64.176C70.7633 64.6483 71.8953 65.302 72.8127 66.137C73.73 66.9719 74.4328 67.963 74.9167 69.1016C75.4006 70.2444 75.6447 71.4969 75.6447 72.859C75.6447 74.2254 75.4006 75.4779 74.9167 76.6165C74.4286 77.7593 73.73 78.7461 72.8127 79.5811C71.8953 80.4161 70.7633 81.0697 69.4167 81.5421C68.0702 82.0186 66.5342 82.2505 64.8131 82.2505H63.3529V82.2632ZM63.3529 81.4282H64.8131C67.0097 81.4282 68.7014 80.7619 69.8965 79.4251C71.0916 78.0882 71.6891 75.9038 71.6891 72.8675C71.6891 69.8311 71.0916 67.6467 69.8965 66.3099C68.7014 64.973 67.0055 64.3067 64.8131 64.3067H63.3529V81.4282Z" fill="white"/>
	<path d="M101.697 79.1299C101.28 79.4082 100.822 79.6612 100.321 79.8805C99.8748 80.0745 99.3615 80.2432 98.7807 80.3824C98.1958 80.5215 97.573 80.5932 96.9039 80.5932C94.4843 80.5932 92.6664 80.0155 91.446 78.86C90.2215 77.7045 89.6113 76.1231 89.6113 74.1199V64.5134L87.1117 63.885V63.4675H95.6541V63.885L93.1545 64.5134V74.1199C93.1545 76.1231 93.5375 77.5653 94.2991 78.4425C95.0608 79.3196 96.0707 79.7582 97.3205 79.7582C97.876 79.7582 98.4273 79.6908 98.9659 79.5474C99.5087 79.4082 99.9716 79.2395 100.363 79.0455C100.834 78.822 101.28 78.5732 101.697 78.2949V64.5134L99.1973 63.885V63.4675H107.74V63.885L105.24 64.5134V91.6631L107.74 92.2915V92.709H99.1973V92.2915L101.697 91.6631V79.1299Z" fill="white"/>
	<path d="M123.575 84.1397H115.032L112.949 91.2413L115.659 92.2872V92.7047H109.406V92.2872L112.116 91.2413L120.242 62.8391H120.869L129.622 91.6588L132.122 92.2872V92.7047H123.369V92.2872L125.868 91.6588L123.575 84.1397ZM115.239 83.3469H123.327L119.161 69.5232L115.239 83.3469Z" fill="white"/>
	<path d="M142.33 63.6741C141.552 63.6741 140.79 63.8976 140.037 64.3404C139.288 64.7874 138.619 65.5592 138.038 66.6598C137.453 67.7605 136.982 69.2365 136.62 71.0878C136.258 72.9391 136.077 75.2711 136.077 78.084C136.077 80.8968 136.258 83.2288 136.62 85.0801C136.982 86.9315 137.466 88.4074 138.08 89.5081C138.69 90.6088 139.402 91.3805 140.205 91.8275C141.013 92.2745 141.859 92.4938 142.747 92.4938C143.471 92.4938 144.207 92.2998 144.956 91.9076C145.705 91.5197 146.395 90.9757 147.018 90.2798C147.645 89.584 148.171 88.7617 148.6 87.8128C149.03 86.8682 149.303 85.8519 149.413 84.7639H150.04C149.926 86.0163 149.652 87.1676 149.206 88.2092C148.76 89.2551 148.201 90.1575 147.519 90.9251C146.837 91.6926 146.054 92.283 145.162 92.7005C144.274 93.118 143.328 93.3288 142.326 93.3288C141.022 93.3288 139.755 93.0167 138.535 92.3884C137.314 91.76 136.22 90.8154 135.265 89.5503C134.306 88.2809 133.54 86.6953 132.972 84.7892C132.403 82.883 132.117 80.648 132.117 78.084C132.117 75.5242 132.403 73.2891 132.972 71.3788C133.54 69.4726 134.293 67.8828 135.223 66.6176C136.153 65.3525 137.201 64.4037 138.371 63.7795C139.536 63.1512 140.719 62.8391 141.914 62.8391C142.579 62.8391 143.185 62.953 143.727 63.1723C144.27 63.3958 144.733 63.6488 145.125 63.9229C145.566 64.2308 145.958 64.5766 146.29 64.9688C146.513 64.5513 146.812 64.1549 147.186 63.7795C147.561 63.4042 147.957 63.1596 148.373 63.05H149C148.945 63.4675 148.903 63.885 148.874 64.3024C148.844 64.6946 148.823 65.1037 148.811 65.5338C148.798 65.964 148.79 66.3899 148.79 66.8074C148.79 67.2797 148.798 67.7478 148.811 68.2075C148.823 68.6672 148.844 69.0931 148.874 69.4811C148.899 69.9281 148.941 70.3582 149 70.7757H148.373C147.734 68.4647 146.879 66.702 145.81 65.4917C144.742 64.2814 143.58 63.6741 142.33 63.6741Z" fill="white"/>
	<path d="M171.299 78.084C171.299 80.648 171.013 82.8788 170.445 84.7892C169.876 86.6953 169.123 88.2851 168.193 89.5503C167.263 90.8154 166.215 91.7643 165.046 92.3884C163.88 93.0167 162.697 93.3288 161.502 93.3288C160.307 93.3288 159.129 93.0167 157.959 92.3884C156.794 91.76 155.741 90.8154 154.812 89.5503C153.882 88.2809 153.128 86.6953 152.56 84.7892C151.992 82.883 151.706 80.648 151.706 78.084C151.706 75.5242 151.992 73.2891 152.56 71.3788C153.128 69.4726 153.882 67.8828 154.812 66.6176C155.741 65.3525 156.789 64.4037 157.959 63.7795C159.125 63.1512 160.307 62.8391 161.502 62.8391C162.697 62.8391 163.88 63.1512 165.046 63.7795C166.211 64.4079 167.263 65.3525 168.193 66.6176C169.123 67.887 169.872 69.4726 170.445 71.3788C171.013 73.2891 171.299 75.5242 171.299 78.084ZM167.339 78.084C167.339 75.2163 167.166 72.8421 166.817 70.9613C166.468 69.0804 166.009 67.5834 165.441 66.47C164.873 65.3567 164.238 64.5766 163.543 64.1296C162.849 63.6825 162.167 63.4632 161.502 63.4632C160.837 63.4632 160.156 63.6868 159.461 64.1296C158.767 64.5766 158.136 65.3567 157.564 66.47C156.995 67.5834 156.537 69.0804 156.188 70.9613C155.838 72.8421 155.666 75.2163 155.666 78.084C155.666 80.9516 155.838 83.3258 156.188 85.2067C156.537 87.0875 156.995 88.5846 157.564 89.6979C158.132 90.8112 158.767 91.5914 159.461 92.0384C160.156 92.4854 160.837 92.7047 161.502 92.7047C162.167 92.7047 162.849 92.4812 163.543 92.0384C164.238 91.5914 164.869 90.8112 165.441 89.6979C166.009 88.5846 166.468 87.0875 166.817 85.2067C167.166 83.3258 167.339 80.9516 167.339 78.084Z" fill="white"/>
	<path d="M174.842 92.7047V92.2872L177.342 91.6588V64.5091L174.842 63.8807V63.4633H182.345C183.65 63.4633 184.782 63.6109 185.741 63.9018C186.7 64.1928 187.496 64.5977 188.14 65.1121C188.779 65.6266 189.259 66.2255 189.579 66.9086C189.899 67.5918 190.059 68.3214 190.059 69.1015C190.059 69.713 189.97 70.257 189.789 70.7293C189.608 71.2016 189.373 71.6149 189.082 71.9607C188.792 72.3107 188.455 72.6144 188.081 72.8801C187.706 73.1457 187.323 73.3608 186.936 73.5295C186.019 73.947 184.975 74.2127 183.809 74.3223C185.531 74.491 187.058 74.9211 188.392 75.617C188.977 75.9248 189.537 76.2917 190.08 76.7261C190.622 77.1562 191.106 77.6876 191.54 78.3117C191.973 78.9358 192.318 79.6612 192.583 80.4835C192.848 81.3058 192.979 82.2463 192.979 83.3047C192.979 84.6121 192.731 85.8392 192.23 86.9779C191.729 88.1207 191.014 89.1159 190.084 89.9636C189.154 90.8112 188.034 91.4817 186.73 91.9667C185.425 92.4517 183.965 92.6962 182.353 92.6962H174.842V92.7047ZM180.885 73.909H182.345C183.595 73.8837 184.601 73.4705 185.366 72.6776C186.128 71.8848 186.511 70.6956 186.511 69.1057C186.511 67.5201 186.128 66.3225 185.366 65.5128C184.601 64.7031 183.595 64.3025 182.345 64.3025H180.885V73.909ZM180.885 74.744V91.8697H182.345C183.288 91.8697 184.163 91.6884 184.971 91.3257C185.779 90.963 186.477 90.419 187.075 89.6937C187.673 88.9725 188.144 88.0785 188.493 87.02C188.838 85.9615 189.015 84.7217 189.015 83.3005C189.015 81.8794 188.842 80.6438 188.493 79.581C188.144 78.5226 187.673 77.6327 187.075 76.9074C186.477 76.1821 185.775 75.638 184.971 75.2754C184.163 74.9127 183.292 74.7314 182.345 74.7314H180.885V74.744Z" fill="white"/>
	<path d="M9.46826 109.763C9.80491 110.151 9.97323 110.657 9.97323 111.281C9.97323 112.091 9.68708 112.715 9.11478 113.154C8.54248 113.592 7.70086 113.811 6.58992 113.811H2.45337V104.454H6.33323C7.33055 104.454 8.10905 104.66 8.66872 105.069C9.2284 105.478 9.51034 106.073 9.51034 106.849C9.51034 107.376 9.37568 107.819 9.11057 108.177C8.84546 108.54 8.47094 108.806 7.99122 108.987C8.63506 109.114 9.13161 109.375 9.46826 109.763ZM3.42544 108.688H6.27853C6.99811 108.688 7.55358 108.54 7.94072 108.249C8.32787 107.954 8.52144 107.528 8.52144 106.967C8.52144 106.406 8.32787 105.976 7.94072 105.685C7.55358 105.39 7.00232 105.246 6.27853 105.246H3.42544V108.688ZM9.00116 111.214C9.00116 110.037 8.19742 109.451 6.58572 109.451H3.42544V113.019H6.58572C8.19742 113.019 9.00116 112.416 9.00116 111.214Z" fill="white"/>
	<path d="M19.2774 108.54C19.8581 109.038 20.1527 109.771 20.1527 110.733C20.1527 111.741 19.8413 112.504 19.2269 113.027C18.6125 113.55 17.7162 113.811 16.5547 113.811H12.8474V104.454H13.8195V107.794H16.7525C17.8508 107.794 18.6967 108.042 19.2774 108.54ZM18.4905 112.445C18.9407 112.061 19.1638 111.496 19.1638 110.75C19.1638 109.316 18.2843 108.599 16.5211 108.599H13.8153V113.019H16.5211C17.3837 113.019 18.0402 112.829 18.4905 112.445ZM21.7644 104.449H22.7364V113.807H21.7644V104.449Z" fill="white"/>
	<path d="M29.3809 109.518H27.2474V113.811H26.288V104.454H27.2474V108.65H29.3809L32.5412 104.454H33.6058L30.1384 109L33.8036 113.811H32.6716L29.3809 109.518Z" fill="white"/>
	<path d="M43.0782 104.449L38.8365 112.323C38.5335 112.884 38.18 113.301 37.776 113.571C37.3721 113.841 36.9302 113.98 36.4463 113.98C36.0886 113.98 35.7099 113.896 35.2975 113.727L35.5794 112.926C35.8992 113.052 36.1938 113.111 36.4589 113.111C37.0733 113.111 37.5741 112.778 37.9654 112.108L38.2305 111.652L34.4432 104.445H35.4953L38.7481 110.779L42.0809 104.445H43.0782V104.449Z" fill="white"/>
	<path d="M52.8663 104.449V113.807H51.8943V105.305H45.9861V113.807H45.014V104.449H52.8663Z" fill="white"/>
	<path d="M73.5997 109.746C73.9532 110.147 74.1257 110.627 74.1257 111.188C74.1257 111.732 73.9574 112.209 73.6165 112.618C73.2799 113.027 72.8296 113.343 72.2699 113.558C71.7102 113.778 71.1001 113.887 70.4436 113.887C69.8208 113.887 69.2106 113.786 68.6089 113.588C68.0071 113.39 67.4685 113.086 66.9888 112.685L67.3507 111.977C67.7589 112.323 68.2259 112.588 68.752 112.774C69.278 112.955 69.804 113.048 70.3384 113.048C70.8434 113.048 71.3105 112.968 71.7397 112.808C72.1647 112.647 72.5056 112.42 72.7581 112.12C73.0105 111.821 73.1368 111.467 73.1368 111.058C73.1368 110.514 72.9222 110.096 72.4972 109.801C72.0679 109.506 71.4704 109.362 70.6961 109.362H68.6973V108.561H70.6456C71.3021 108.561 71.8154 108.422 72.1858 108.139C72.5561 107.857 72.7412 107.469 72.7412 106.971C72.7412 106.419 72.5056 105.984 72.0343 105.668C71.563 105.352 70.9738 105.192 70.2585 105.192C69.8124 105.192 69.3663 105.255 68.9119 105.386C68.4574 105.516 68.0282 105.71 67.62 105.967L67.2875 105.154C68.2133 104.601 69.2106 104.327 70.2879 104.327C70.9191 104.327 71.4956 104.428 72.0216 104.635C72.5477 104.842 72.96 105.132 73.2672 105.516C73.5744 105.9 73.7259 106.351 73.7259 106.866C73.7259 107.363 73.5871 107.793 73.3135 108.156C73.04 108.519 72.6529 108.772 72.1521 108.924C72.7665 109.067 73.2504 109.341 73.5997 109.746Z" fill="white"/>
	<path d="M82.9543 111.306H77.7531L76.6337 113.807H75.6069L79.8739 104.449H80.846L85.113 113.807H84.0736L82.9543 111.306ZM82.5966 110.505L80.3579 105.478L78.115 110.505H82.5966Z" fill="white"/>
	<path d="M94.6526 104.449V113.807H93.6805V105.305H89.1695L89.0643 108.43C89.018 109.721 88.917 110.762 88.7529 111.551C88.5888 112.34 88.3363 112.926 87.9996 113.314C87.663 113.702 87.2127 113.896 86.653 113.896C86.4132 113.896 86.1649 113.866 85.9082 113.803L85.9882 112.922C86.1396 112.959 86.2869 112.976 86.43 112.976C86.8214 112.976 87.137 112.82 87.3852 112.508C87.6293 112.196 87.8145 111.715 87.9407 111.058C88.067 110.404 88.1511 109.535 88.1932 108.46L88.3279 104.449H94.6526Z" fill="white"/>
	<path d="M99.7823 113.267C99.0291 112.854 98.4442 112.285 98.0234 111.564C97.6026 110.842 97.3879 110.033 97.3879 109.13C97.3879 108.228 97.5983 107.418 98.0234 106.697C98.4442 105.976 99.0333 105.407 99.7823 104.993C100.531 104.58 101.373 104.373 102.295 104.373C103.22 104.373 104.054 104.58 104.794 104.989C105.535 105.398 106.12 105.967 106.549 106.693C106.978 107.418 107.189 108.232 107.189 109.13C107.189 110.029 106.974 110.842 106.549 111.568C106.124 112.293 105.539 112.862 104.794 113.271C104.049 113.681 103.216 113.887 102.295 113.887C101.369 113.887 100.531 113.681 99.7823 113.267ZM104.293 112.504C104.887 112.171 105.354 111.707 105.695 111.112C106.031 110.522 106.2 109.86 106.2 109.126C106.2 108.397 106.031 107.734 105.695 107.14C105.358 106.549 104.891 106.086 104.293 105.748C103.696 105.415 103.031 105.246 102.295 105.246C101.558 105.246 100.889 105.411 100.287 105.748C99.6856 106.086 99.2143 106.545 98.8734 107.14C98.5325 107.73 98.36 108.397 98.36 109.126C98.36 109.856 98.5325 110.518 98.8734 111.112C99.2143 111.703 99.6856 112.167 100.287 112.504C100.889 112.837 101.558 113.006 102.295 113.006C103.031 113.006 103.7 112.837 104.293 112.504Z" fill="white"/>
	<path d="M115.887 105.305H110.913L110.925 113.807H109.953V104.449H115.887V105.305Z" fill="white"/>
	<path d="M131.242 113.267C130.489 112.854 129.904 112.285 129.483 111.564C129.062 110.842 128.848 110.033 128.848 109.13C128.848 108.228 129.058 107.418 129.483 106.697C129.908 105.976 130.493 105.407 131.242 104.993C131.991 104.58 132.833 104.373 133.754 104.373C134.68 104.373 135.513 104.58 136.254 104.989C136.995 105.398 137.584 105.967 138.009 106.693C138.434 107.418 138.648 108.232 138.648 109.13C138.648 110.029 138.434 110.842 138.009 111.568C137.584 112.293 136.999 112.862 136.254 113.271C135.513 113.681 134.676 113.887 133.754 113.887C132.833 113.887 131.995 113.681 131.242 113.267ZM135.757 112.504C136.355 112.171 136.818 111.707 137.159 111.112C137.499 110.518 137.668 109.86 137.668 109.126C137.668 108.397 137.499 107.734 137.159 107.14C136.822 106.549 136.355 106.086 135.757 105.748C135.16 105.415 134.495 105.246 133.758 105.246C133.022 105.246 132.353 105.411 131.751 105.748C131.149 106.081 130.678 106.545 130.337 107.14C129.996 107.73 129.824 108.397 129.824 109.126C129.824 109.856 129.996 110.518 130.337 111.112C130.678 111.703 131.149 112.167 131.751 112.504C132.353 112.837 133.022 113.006 133.758 113.006C134.495 113.006 135.16 112.837 135.757 112.504Z" fill="white"/>
	<path d="M150.482 112.951V116H149.56V113.807H141.413V104.449H142.385V112.951H148.028V104.449H149V112.951H150.482Z" fill="white"/>
	<path d="M159.445 112.951V113.807H152.842V104.449H159.243V105.305H153.827V108.633H158.654V109.476H153.827V112.951H159.445Z" fill="white"/>
	<path d="M169.834 104.449V113.807H168.862V109.489H163.022V113.807H162.037V104.449H163.022V108.62H168.862V104.449H169.834Z" fill="white"/>
	<path d="M176.475 109.518H174.341V113.811H173.382V104.454H174.341V108.65H176.475L179.635 104.454H180.704L177.237 109L180.906 113.811H179.774L176.475 109.518Z" fill="white"/>
	<path d="M188.695 111.306H183.494L182.375 113.807H181.348L185.615 104.449H186.587L190.854 113.807H189.815L188.695 111.306ZM188.333 110.505L186.095 105.478L183.852 110.505H188.333Z" fill="white"/>
	<path fill-rule="evenodd" clip-rule="evenodd" d="M93.6721 48.7118C94.9934 48.7118 96.0707 47.6322 96.0707 46.3038C96.0707 44.9797 94.9934 43.8959 93.6721 43.8959C92.3508 43.8959 91.2693 44.9755 91.2693 46.3038C91.2735 47.628 92.3508 48.7118 93.6721 48.7118Z" fill="#C7AB8E"/>
	<path fill-rule="evenodd" clip-rule="evenodd" d="M92.355 2.44165H94.9892L93.6721 5.08156L92.355 2.44165Z" fill="#C7AB8E"/>
	<path d="M89.3117 2.62882L88.8723 2.67505L89.0924 4.7762L89.5318 4.72997L89.3117 2.62882Z" fill="#C7AB8E"/>
	<path d="M84.7834 3.32237L84.3512 3.41443L84.7895 5.48114L85.2217 5.38908L84.7834 3.32237Z" fill="#C7AB8E"/>
	<path d="M80.3445 4.48821L79.9243 4.62512L80.5762 6.63437L80.9964 6.49746L80.3445 4.48821Z" fill="#C7AB8E"/>
	<path d="M76.056 6.11838L75.6523 6.29846L76.5098 8.22848L76.9134 8.04839L76.056 6.11838Z" fill="#C7AB8E"/>
	<path d="M68.1056 10.6615L67.7482 10.9218L68.9874 12.631L69.3449 12.3707L68.1056 10.6615Z" fill="#C7AB8E"/>
	<path d="M64.5273 13.5369L64.199 13.8333L65.6098 15.4033L65.9381 15.1069L64.5273 13.5369Z" fill="#C7AB8E"/>
	<path d="M61.2663 16.7743L60.9706 17.1033L62.537 18.5171L62.8327 18.1881L61.2663 16.7743Z" fill="#C7AB8E"/>
	<path d="M58.3647 20.3237L58.105 20.682L59.8108 21.9237L60.0704 21.5654L58.3647 20.3237Z" fill="#C7AB8E"/>
	<path d="M53.7456 28.2494L53.5659 28.6539L55.4918 29.5132L55.6715 29.1087L53.7456 28.2494Z" fill="#C7AB8E"/>
	<path d="M52.0845 32.5302L51.9479 32.9513L53.9528 33.6043L54.0894 33.1833L52.0845 32.5302Z" fill="#C7AB8E"/>
	<path d="M50.1335 41.4974L50.0873 41.9377L52.1839 42.1585L52.2301 41.7182L50.1335 41.4974Z" fill="#C7AB8E"/>
	<path d="M137.204 41.499L135.108 41.7196L135.154 42.16L137.25 41.9394L137.204 41.499Z" fill="#C7AB8E"/>
	<path d="M136.478 36.9591L134.416 37.3983L134.508 37.8315L136.57 37.3922L136.478 36.9591Z" fill="#C7AB8E"/>
	<path d="M135.255 32.5254L133.25 33.1785L133.386 33.5996L135.391 32.9465L135.255 32.5254Z" fill="#C7AB8E"/>
	<path d="M133.593 28.2526L131.667 29.1121L131.846 29.5166L133.772 28.6571L133.593 28.2526Z" fill="#C7AB8E"/>
	<path d="M128.98 20.3279L127.274 21.5698L127.534 21.928L129.24 20.6862L128.98 20.3279Z" fill="#C7AB8E"/>
	<path d="M126.07 16.7759L124.503 18.1893L124.798 18.5184L126.365 17.105L126.07 16.7759Z" fill="#C7AB8E"/>
	<path d="M122.815 13.5305L121.404 15.1005L121.732 15.3968L123.143 13.8268L122.815 13.5305Z" fill="#C7AB8E"/>
	<path d="M119.245 10.6623L118.006 12.3716L118.363 12.6319L119.603 10.9227L119.245 10.6623Z" fill="#C7AB8E"/>
	<path d="M111.291 6.11444L110.433 8.04468L110.837 8.22476L111.694 6.29453L111.291 6.11444Z" fill="#C7AB8E"/>
	<path d="M107 4.4903L106.349 6.49976L106.769 6.63658L107.42 4.62712L107 4.4903Z" fill="#C7AB8E"/>
	<path d="M102.563 3.3273L102.125 5.3938L102.557 5.48586L102.995 3.41936L102.563 3.3273Z" fill="#C7AB8E"/>
	<path d="M98.0299 2.63188L97.8096 4.73303L98.249 4.7793L98.4693 2.67815L98.0299 2.63188Z" fill="#C7AB8E"/>
	<path fill-rule="evenodd" clip-rule="evenodd" d="M70.6454 8.97816L72.9262 7.6582L73.1029 10.606L70.6454 8.97816Z" fill="#C7AB8E"/>
	<path fill-rule="evenodd" clip-rule="evenodd" d="M130.918 23.2279L132.239 25.5178L129.298 25.6949L130.918 23.2279Z" fill="#C7AB8E"/>
	<path fill-rule="evenodd" clip-rule="evenodd" d="M114.418 7.6582L116.699 8.97816L114.241 10.606L114.418 7.6582Z" fill="#C7AB8E"/>
	<path d="M50.8734 36.9662L50.7815 37.3993L52.8436 37.8385L52.9354 37.4054L50.8734 36.9662Z" fill="#C7AB8E"/>
	<path fill-rule="evenodd" clip-rule="evenodd" d="M55.1091 25.5178L56.4263 23.2279L58.0464 25.6949L55.1091 25.5178Z" fill="#C7AB8E"/>
	<path fill-rule="evenodd" clip-rule="evenodd" d="M111.472 32.9356C104.255 39.7547 101.844 41.6271 94.783 45.7767L94.3706 45.2454C100.081 39.3667 102.475 37.4732 110.807 32.0796L125.035 20.9084L125.704 21.7645L111.472 32.9356Z" fill="#C7AB8E"/>
	<path fill-rule="evenodd" clip-rule="evenodd" d="M79.4992 34.2176C80.2819 33.2856 81.6916 33.1844 82.6469 33.9941C83.6021 34.8038 83.741 36.2123 82.9583 37.1443C82.1755 38.0763 80.7658 38.1732 79.8106 37.3678C78.8554 36.5581 78.7165 35.1496 79.4992 34.2176ZM84.7467 37.7431C84.7467 37.7431 84.5615 37.6588 84.3259 37.5829C84.2165 37.5491 84.1407 37.4774 84.0944 37.372L83.8798 36.8786C84.3722 35.7484 84.0692 34.361 83.055 33.5049C82.3986 32.9483 81.5696 32.7247 80.7911 32.826L74.6851 29.9921C74.6346 29.9668 74.5757 29.9794 74.5379 30.0258C74.5 30.068 74.5 30.1312 74.5294 30.1776L78.3462 35.7315C78.3798 36.5201 78.7375 37.3003 79.3982 37.857C80.3997 38.7004 81.7842 38.7763 82.811 38.1311L83.3875 38.2576C83.4885 38.2787 83.5684 38.3335 83.6231 38.4221C83.6947 38.5317 83.783 38.6624 83.863 38.7805C85.3232 40.8722 87.9448 43.1621 92.4938 46.1056L93.2849 45.1821C89.6912 41.121 87.0359 38.8733 84.7467 37.7431Z" fill="#C7AB8E"/>
	<path fill-rule="evenodd" clip-rule="evenodd" d="M48.3424 49.4287C48.2709 48.3955 48.2246 47.3581 48.2246 46.3039C48.2246 33.7284 53.3122 22.3422 61.5348 14.0978C69.7616 5.85757 81.1235 0.759085 93.672 0.759085C106.221 0.759085 117.582 5.85757 125.809 14.0978C134.032 22.338 139.119 33.7242 139.119 46.3039C139.119 47.3539 139.073 48.3955 139.002 49.4287H139.225C139.296 48.3955 139.342 47.3581 139.342 46.3039C139.342 33.6652 134.23 22.2242 125.965 13.9418C117.7 5.65936 106.284 0.539795 93.672 0.539795C81.0604 0.539795 69.6438 5.66358 61.3791 13.946C53.1144 22.2284 48.0016 33.6694 48.0016 46.3081C48.0016 47.3581 48.0479 48.3998 48.1194 49.4329H48.3424V49.4287Z" fill="#C7AB8E"/>
	<path fill-rule="evenodd" clip-rule="evenodd" d="M52.2182 49.4288C52.1424 48.3956 52.0877 47.3582 52.0877 46.3039C52.0877 34.7954 56.7419 24.3791 64.2659 16.839C71.79 9.29876 82.1882 4.63464 93.6679 4.63464C105.152 4.63464 115.546 9.29876 123.07 16.839C130.594 24.3791 135.248 34.7996 135.248 46.3039C135.248 47.3539 135.198 48.3956 135.118 49.4288H135.341C135.416 48.3956 135.467 47.3582 135.467 46.3039C135.467 34.7364 130.787 24.2611 123.221 16.6829C115.655 9.10056 105.206 4.41113 93.6637 4.41113C82.1209 4.41113 71.668 9.10056 64.106 16.6829C56.5399 24.2653 51.8605 34.7364 51.8605 46.3039C51.8605 47.3539 51.911 48.3956 51.9867 49.4288H52.2182Z" fill="#C7AB8E"/>
	<path fill-rule="evenodd" clip-rule="evenodd" d="M50.1057 49.4287C50.0341 48.3955 49.9836 47.3581 49.9836 46.3039C49.9836 34.2134 54.8735 23.2658 62.7805 15.3461C70.6833 7.42212 81.6075 2.52185 93.6721 2.52185C105.737 2.52185 116.661 7.42212 124.564 15.3461C132.471 23.27 137.361 34.2134 137.361 46.3039C137.361 47.3539 137.31 48.3955 137.238 49.4287H137.462C137.533 48.3955 137.584 47.3581 137.584 46.3039C137.584 34.1544 132.669 23.1519 124.724 15.1858C116.775 7.22392 105.8 2.29834 93.6721 2.29834C81.5444 2.29834 70.5696 7.22392 62.6206 15.1858C54.6757 23.1477 49.7606 34.1502 49.7606 46.3039C49.7606 47.3539 49.8111 48.3955 49.8827 49.4287H50.1057Z" fill="#C7AB8E"/>
	<path fill-rule="evenodd" clip-rule="evenodd" d="M48.8811 49.4287C48.8096 48.3955 48.7633 47.3581 48.7633 46.3038C48.7633 40.2059 49.971 34.3905 52.1635 29.0896C54.44 23.5863 57.7728 18.6312 61.9178 14.4773C66.0628 10.3277 71.0073 6.98353 76.4989 4.70208C81.7884 2.50918 87.5872 1.29465 93.6763 1.29465C99.7612 1.29465 105.564 2.50496 110.854 4.70208C116.345 6.98353 121.29 10.3277 125.435 14.4773C129.576 18.627 132.913 23.5863 135.189 29.0896C137.377 34.3905 138.589 40.2017 138.589 46.3038C138.589 47.3539 138.539 48.3955 138.471 49.4287H139.772C139.839 48.3955 139.89 47.3581 139.89 46.3038C139.89 40.0372 138.644 34.0531 136.388 28.5962C134.045 22.9284 130.615 17.8257 126.356 13.558C122.098 9.29029 117.01 5.85335 111.35 3.50442C105.897 1.24826 99.9253 0 93.6721 0C87.4147 0 81.4476 1.24826 76.0023 3.50863C70.3466 5.85756 65.2548 9.29451 60.9962 13.5622C56.7376 17.8299 53.3081 22.9284 50.9641 28.6004C48.7086 34.0574 47.463 40.0372 47.463 46.3081C47.463 47.3581 47.5093 48.3997 47.5808 49.4329H48.8811V49.4287Z" fill="#C7AB8E"/>
	<path d="M193 98.537H0.0252686V98.9545H193V98.537Z" fill="#C7AB8E"/>
	<path d="M59.9857 104.451V113.809H60.4023V104.451H59.9857Z" fill="#C7AB8E"/>
	<path d="M122.583 104.449V113.807H123V104.449H122.583Z" fill="#C7AB8E"/>
</svg>
