<svg width="57" height="30" viewBox="0 0 57 30" fill="none" xmlns="http://www.w3.org/2000/svg">
    <path fill-rule="evenodd" clip-rule="evenodd" d="M28.3016 29.0083C29.0958 29.0083 29.7433 28.3654 29.7433 27.5743C29.7433 26.7858 29.0958 26.1404 28.3016 26.1404C27.5074 26.1404 26.8574 26.7833 26.8574 27.5743C26.86 28.3629 27.5074 29.0083 28.3016 29.0083Z" fill="white"/>
    <path fill-rule="evenodd" clip-rule="evenodd" d="M27.5098 1.4541H29.093L28.3014 3.02619L27.5098 1.4541Z" fill="white"/>
    <path d="M25.6801 1.56549L25.416 1.59302L25.5483 2.84427L25.8124 2.81674L25.6801 1.56549Z" fill="white"/>
    <path d="M22.959 1.97838L22.6992 2.0332L22.9627 3.26395L23.2224 3.20913L22.959 1.97838Z" fill="white"/>
    <path d="M20.2897 2.67286L20.0371 2.75439L20.4289 3.95092L20.6815 3.86938L20.2897 2.67286Z" fill="white"/>
    <path d="M17.7133 3.64349L17.4707 3.75073L17.986 4.90007L18.2286 4.79283L17.7133 3.64349Z" fill="white"/>
    <path d="M12.9336 6.34915L12.7188 6.50415L13.4636 7.52201L13.6784 7.36702L12.9336 6.34915Z" fill="white"/>
    <path d="M10.7833 8.06133L10.5859 8.23779L11.4339 9.17274L11.6312 8.99628L10.7833 8.06133Z" fill="white"/>
    <path d="M8.8242 9.98914L8.64648 10.1851L9.58796 11.027L9.76568 10.8311L8.8242 9.98914Z" fill="white"/>
    <path d="M7.0799 12.1028L6.92383 12.3162L7.94907 13.0556L8.10514 12.8422L7.0799 12.1028Z" fill="white"/>
    <path d="M4.30332 16.8228L4.19531 17.0637L5.35284 17.5754L5.46085 17.3345L4.30332 16.8228Z" fill="white"/>
    <path d="M3.30474 19.372L3.22266 19.6228L4.42771 20.0117L4.5098 19.7609L3.30474 19.372Z" fill="white"/>
    <path d="M2.13322 24.7119L2.10547 24.9741L3.36563 25.1056L3.39338 24.8434L2.13322 24.7119Z" fill="white"/>
    <path d="M54.4652 24.7129L53.2051 24.8442L53.2328 25.1065L54.493 24.9751L54.4652 24.7129Z" fill="white"/>
    <path d="M54.0286 22.0094L52.7891 22.271L52.8443 22.5289L54.0838 22.2674L54.0286 22.0094Z" fill="white"/>
    <path d="M53.2929 19.3692L52.0879 19.7581L52.17 20.0088L53.375 19.6199L53.2929 19.3692Z" fill="white"/>
    <path d="M52.2942 16.8246L51.1367 17.3364L51.2448 17.5773L52.4023 17.0655L52.2942 16.8246Z" fill="white"/>
    <path d="M49.5212 12.1054L48.4961 12.845L48.6522 13.0583L49.6773 12.3187L49.5212 12.1054Z" fill="white"/>
    <path d="M47.7738 9.99031L46.832 10.832L47.0097 11.028L47.9514 10.1863L47.7738 9.99031Z" fill="white"/>
    <path d="M45.8167 8.05749L44.9688 8.99243L45.1661 9.16889L46.0141 8.23395L45.8167 8.05749Z" fill="white"/>
    <path d="M43.6707 6.34957L42.9258 7.36743L43.1406 7.52245L43.8856 6.50459L43.6707 6.34957Z" fill="white"/>
    <path d="M38.8904 3.6413L38.375 4.79077L38.6176 4.89801L39.133 3.74854L38.8904 3.6413Z" fill="white"/>
    <path d="M36.3115 2.67396L35.9199 3.87061L36.1725 3.95209L36.5641 2.75544L36.3115 2.67396Z" fill="white"/>
    <path d="M33.6443 1.98154L33.3809 3.21216L33.6406 3.26698L33.9041 2.03636L33.6443 1.98154Z" fill="white"/>
    <path d="M30.9195 1.56735L30.7871 2.8186L31.0512 2.84616L31.1836 1.59491L30.9195 1.56735Z" fill="white"/>
    <path fill-rule="evenodd" clip-rule="evenodd" d="M14.4609 5.34659L15.8318 4.56055L15.938 6.31596L14.4609 5.34659Z" fill="white"/>
    <path fill-rule="evenodd" clip-rule="evenodd" d="M50.6866 13.8323L51.4808 15.1959L49.7129 15.3014L50.6866 13.8323Z" fill="white"/>
    <path fill-rule="evenodd" clip-rule="evenodd" d="M40.7703 4.56055L42.1411 5.34659L40.6641 6.31596L40.7703 4.56055Z" fill="white"/>
    <path d="M2.5767 22.0136L2.52148 22.2715L3.76087 22.5331L3.81609 22.2751L2.5767 22.0136Z" fill="white"/>
    <path fill-rule="evenodd" clip-rule="evenodd" d="M5.12305 15.1959L5.91469 13.8323L6.88844 15.3014L5.12305 15.1959Z" fill="white"/>
    <path fill-rule="evenodd" clip-rule="evenodd" d="M38.9994 19.6135C34.6618 23.6743 33.2126 24.7893 28.9686 27.2604L28.7207 26.944C32.1529 23.4432 33.592 22.3156 38.5998 19.1037L47.1511 12.4512L47.5533 12.961L38.9994 19.6135Z" fill="white"/>
    <path fill-rule="evenodd" clip-rule="evenodd" d="M19.7829 20.377C20.2534 19.822 21.1006 19.7617 21.6748 20.2439C22.2489 20.7261 22.3324 21.5649 21.8619 22.1199C21.3915 22.6749 20.5442 22.7326 19.9701 22.253C19.3959 21.7708 19.3125 20.932 19.7829 20.377ZM22.9369 22.4765C22.9369 22.4765 22.8256 22.4262 22.6839 22.381C22.6182 22.3609 22.5726 22.3183 22.5448 22.2555L22.4158 21.9616C22.7118 21.2886 22.5296 20.4624 21.9201 19.9526C21.5255 19.6211 21.0273 19.488 20.5594 19.5483L16.8895 17.8607C16.8591 17.8456 16.8237 17.8531 16.801 17.8807C16.7782 17.9059 16.7782 17.9435 16.7959 17.9712L19.0899 21.2786C19.1101 21.7482 19.3251 22.2128 19.7222 22.5443C20.3242 23.0465 21.1563 23.0917 21.7734 22.7075L22.1199 22.7828C22.1806 22.7954 22.2287 22.8281 22.2616 22.8808C22.3045 22.9461 22.3577 23.0239 22.4057 23.0943C23.2834 24.3399 24.8591 25.7035 27.5931 27.4564L28.0686 26.9064C25.9087 24.488 24.3127 23.1495 22.9369 22.4765Z" fill="white"/>
    <path fill-rule="evenodd" clip-rule="evenodd" d="M1.05643 29.4353C1.01343 28.82 0.985611 28.2022 0.985611 27.5744C0.985611 20.0856 4.04343 13.3051 8.98552 8.39544C13.9301 3.48831 20.759 0.452122 28.3011 0.452122C35.8433 0.452122 42.6722 3.48831 47.6168 8.39544C52.5589 13.3026 55.6167 20.0831 55.6167 27.5744C55.6167 28.1997 55.5889 28.82 55.5459 29.4353H55.6799C55.7229 28.82 55.7507 28.2022 55.7507 27.5744C55.7507 20.048 52.6777 13.2348 47.7104 8.30252C42.743 3.37028 35.8812 0.321533 28.3011 0.321533C20.7211 0.321533 13.8593 3.37279 8.89194 8.30503C3.92456 13.2373 0.851562 20.0505 0.851562 27.5769C0.851562 28.2022 0.879384 28.8225 0.92238 29.4378H1.05643V29.4353Z" fill="white"/>
    <path fill-rule="evenodd" clip-rule="evenodd" d="M3.3849 29.4353C3.33938 28.82 3.3065 28.2023 3.3065 27.5744C3.3065 20.721 6.10381 14.5181 10.6261 10.0278C15.1483 5.53758 21.398 2.76005 28.2977 2.76005C35.1999 2.76005 41.4471 5.53758 45.9693 10.0278C50.4916 14.5181 53.2889 20.7235 53.2889 27.5744C53.2889 28.1997 53.2585 28.82 53.2105 29.4353H53.3445C53.39 28.82 53.4204 28.2023 53.4204 27.5744C53.4204 20.6859 50.6079 14.4477 46.0604 9.9349C41.5128 5.41954 35.2328 2.62695 28.2952 2.62695C21.3575 2.62695 15.0749 5.41954 10.5299 9.9349C5.98241 14.4503 3.16992 20.6859 3.16992 27.5744C3.16992 28.1997 3.20027 28.82 3.2458 29.4353H3.3849Z" fill="white"/>
    <path fill-rule="evenodd" clip-rule="evenodd" d="M2.1156 29.4352C2.0726 28.8199 2.04225 28.2021 2.04225 27.5743C2.04225 20.3743 4.9812 13.8549 9.7336 9.13868C14.4835 4.41991 21.0493 1.50175 28.3006 1.50175C35.5518 1.50175 42.1177 4.41991 46.8676 9.13868C51.62 13.8575 54.5589 20.3743 54.5589 27.5743C54.5589 28.1996 54.5286 28.8199 54.4856 29.4352H54.6196C54.6626 28.8199 54.693 28.2021 54.693 27.5743C54.693 20.3392 51.7388 13.7871 46.9637 9.04325C42.186 4.30188 35.5898 1.36865 28.3006 1.36865C21.0114 1.36865 14.4152 4.30188 9.63749 9.04325C4.86233 13.7846 1.9082 20.3367 1.9082 27.5743C1.9082 28.1996 1.93855 28.8199 1.98155 29.4352H2.1156Z" fill="white"/>
    <path fill-rule="evenodd" clip-rule="evenodd" d="M1.37969 29.4352C1.33669 28.8199 1.30887 28.2022 1.30887 27.5743C1.30887 23.9429 2.03476 20.4798 3.35248 17.3231C4.72078 14.0458 6.72392 11.095 9.2152 8.62137C11.7065 6.15023 14.6783 4.15875 17.9789 2.80012C21.1582 1.49424 24.6434 0.770976 28.3032 0.770976C31.9604 0.770976 35.4482 1.49173 38.6275 2.80012C41.9281 4.15875 44.8999 6.15023 47.3912 8.62137C49.8799 11.0925 51.8856 14.0458 53.2539 17.3231C54.5691 20.4798 55.2975 23.9404 55.2975 27.5743C55.2975 28.1996 55.2672 28.8199 55.2267 29.4352H56.0082C56.0487 28.8199 56.079 28.2022 56.079 27.5743C56.079 23.8425 55.3304 20.2789 53.9747 17.0293C52.566 13.6541 50.5047 10.6154 47.9451 8.0739C45.3855 5.53244 42.3277 3.48572 38.9259 2.08691C35.648 0.743352 32.0591 0 28.3007 0C24.5397 0 20.9533 0.743351 17.6805 2.08942C14.2812 3.48823 11.2209 5.53495 8.6613 8.07641C6.10174 10.6179 4.04043 13.6541 2.63165 17.0318C1.27599 20.2814 0.527344 23.8425 0.527344 27.5768C0.527344 28.2022 0.555165 28.8224 0.598162 29.4377H1.37969V29.4352Z" fill="white"/>
</svg>
