<svg width="187" height="30" viewBox="0 0 187 30" fill="none" xmlns="http://www.w3.org/2000/svg">
    <path d="M23.1682 0.601807H28.8114V1.00175L26.3946 1.60368V27.6121L28.8114 28.214V28.614H20.5521V28.214L22.9689 27.6121V4.00334L14.3068 29.2119H13.7006L4.02945 4.00334V27.2122L6.64964 28.214V28.614H0.599609V28.214L3.2198 27.2122V1.80567L0.599609 1.00175V0.601807H6.44214L15.267 23.6086L23.1682 0.601807Z" fill="white"/>
    <path d="M38.2781 23.4068V27.6082L40.6948 28.2101V28.6101H32.4355V28.2101L34.8523 27.6082V1.59978L32.4355 0.99784V0.5979H40.6948V0.99784L38.2781 1.59978V21.807L46.5374 5.40126V1.59978L44.1206 0.99784V0.5979H52.3799V0.99784L49.9631 1.59978V27.6082L52.3799 28.2101V28.6101H44.1206V28.2101L46.5374 27.6082V7.00103L38.2781 23.4068Z" fill="white"/>
    <path d="M61.8523 18.6073V27.6121L64.2691 28.2141V28.614H56.0098V28.2141L58.4265 27.6121V1.60368L56.0098 1.00175V0.601807H63.2641C64.9282 0.601807 66.4132 0.828034 67.7152 1.2805C69.0171 1.73296 70.1116 2.35913 70.9986 3.15902C71.8855 3.95891 72.565 4.90827 73.0329 5.99902C73.5008 7.09381 73.7367 8.29365 73.7367 9.59851C73.7367 10.9074 73.5008 12.1072 73.0329 13.198C72.5609 14.2928 71.8855 15.2381 70.9986 16.038C70.1116 16.8379 69.0171 17.4641 67.7152 17.9165C66.4132 18.373 64.9282 18.5952 63.2641 18.5952H61.8523V18.6073ZM61.8523 17.8074H63.2641C65.3879 17.8074 67.0235 17.1692 68.179 15.8885C69.3345 14.6079 69.9122 12.5153 69.9122 9.60659C69.9122 6.69791 69.3345 4.60528 68.179 3.32465C67.0235 2.04403 65.3839 1.40574 63.2641 1.40574H61.8523V17.8074Z" fill="white"/>
    <path d="M98.926 15.6057C98.5232 15.8724 98.0798 16.1148 97.5956 16.3248C97.1643 16.5107 96.668 16.6723 96.1065 16.8056C95.5409 16.9389 94.9388 17.0076 94.2919 17.0076C91.9524 17.0076 90.1948 16.4541 89.0149 15.3472C87.8309 14.2403 87.241 12.7253 87.241 10.8064V1.60368L84.8242 1.00175V0.601807H93.0835V1.00175L90.6667 1.60368V10.8064C90.6667 12.7253 91.037 14.107 91.7734 14.9472C92.5098 15.7875 93.4863 16.2077 94.6947 16.2077C95.2317 16.2077 95.7647 16.143 96.2855 16.0057C96.8103 15.8724 97.2579 15.7108 97.6363 15.5249C98.092 15.3108 98.5232 15.0725 98.926 14.8059V1.60368L96.5093 1.00175V0.601807H104.769V1.00175L102.352 1.60368V27.6121L104.769 28.2141V28.614H96.5093V28.2141L98.926 27.6121V15.6057V15.6057Z" fill="white"/>
    <path d="M120.078 20.4052H111.819L109.805 27.2082L112.425 28.2101V28.61H106.379V28.2101L108.999 27.2082L116.856 0H117.462L125.925 27.6082L128.341 28.2101V28.61H119.879V28.2101L122.295 27.6082L120.078 20.4052ZM112.018 19.6457H119.838L115.81 6.40313L112.018 19.6457Z" fill="white"/>
    <path d="M138.212 0.79989C137.46 0.79989 136.723 1.014 135.995 1.43818C135.271 1.86641 134.624 2.60569 134.062 3.66009C133.497 4.71448 133.041 6.12843 132.691 7.90191C132.341 9.67539 132.166 11.9094 132.166 14.604C132.166 17.2985 132.341 19.5326 132.691 21.3061C133.041 23.0795 133.509 24.4935 134.103 25.5479C134.693 26.6023 135.381 27.3416 136.158 27.7698C136.939 28.198 137.757 28.4081 138.615 28.4081C139.315 28.4081 140.027 28.2222 140.751 27.8465C141.475 27.4749 142.143 26.9537 142.745 26.2872C143.351 25.6206 143.86 24.8328 144.275 23.9239C144.69 23.0189 144.954 22.0453 145.06 21.0031H145.666C145.556 22.2029 145.292 23.3058 144.861 24.3036C144.429 25.3055 143.888 26.17 143.229 26.9053C142.57 27.6405 141.813 28.2061 140.951 28.606C140.092 29.006 139.177 29.208 138.208 29.208C136.947 29.208 135.722 28.909 134.543 28.3071C133.363 27.7051 132.305 26.8002 131.381 25.5883C130.454 24.3723 129.713 22.8533 129.164 21.0273C128.615 19.2013 128.338 17.0602 128.338 14.604C128.338 12.1518 128.615 10.0107 129.164 8.18065C129.713 6.35465 130.441 4.83164 131.341 3.61969C132.24 2.40774 133.253 1.49878 134.384 0.900886C135.511 0.298952 136.654 0 137.81 0C138.452 0 139.038 0.109079 139.563 0.31915C140.088 0.533261 140.536 0.77565 140.914 1.03824C141.341 1.33315 141.72 1.66441 142.041 2.04011C142.257 1.64017 142.545 1.26043 142.908 0.900886C143.27 0.541341 143.652 0.307027 144.055 0.201991H144.661C144.608 0.601934 144.568 1.00188 144.539 1.40182C144.511 1.77753 144.49 2.16939 144.478 2.58145C144.466 2.99351 144.458 3.40154 144.458 3.80148C144.458 4.25394 144.466 4.70236 144.478 5.14271C144.49 5.58305 144.511 5.99107 144.539 6.36273C144.564 6.79095 144.604 7.20302 144.661 7.60296H144.055C143.437 5.38913 142.611 3.70049 141.577 2.54106C140.544 1.38162 139.421 0.79989 138.212 0.79989Z" fill="white"/>
    <path d="M166.221 14.604C166.221 17.0602 165.944 19.1973 165.395 21.0273C164.846 22.8533 164.117 24.3763 163.218 25.5883C162.319 26.8002 161.306 27.7092 160.175 28.3071C159.048 28.909 157.905 29.208 156.749 29.208C155.594 29.208 154.454 28.909 153.323 28.3071C152.196 27.7051 151.179 26.8002 150.28 25.5883C149.381 24.3723 148.653 22.8533 148.103 21.0273C147.554 19.2013 147.277 17.0602 147.277 14.604C147.277 12.1518 147.554 10.0107 148.103 8.18065C148.653 6.35465 149.381 4.83164 150.28 3.61969C151.179 2.40774 152.192 1.49878 153.323 0.900886C154.45 0.298952 155.594 0 156.749 0C157.905 0 159.048 0.298952 160.175 0.900886C161.302 1.50282 162.319 2.40774 163.218 3.61969C164.117 4.83568 164.842 6.35465 165.395 8.18065C165.944 10.0107 166.221 12.1518 166.221 14.604ZM162.392 14.604C162.392 11.8569 162.225 9.58248 161.888 7.78071C161.55 5.97895 161.107 4.54481 160.557 3.47829C160.008 2.41178 159.394 1.66441 158.722 1.23619C158.051 0.807971 157.392 0.597899 156.749 0.597899C156.106 0.597899 155.447 0.812011 154.776 1.23619C154.104 1.66441 153.494 2.41178 152.941 3.47829C152.392 4.54481 151.948 5.97895 151.61 7.78071C151.273 9.58248 151.106 11.8569 151.106 14.604C151.106 17.3511 151.273 19.6255 151.61 21.4273C151.948 23.229 152.392 24.6632 152.941 25.7297C153.49 26.7962 154.104 27.5436 154.776 27.9718C155.447 28.4 156.106 28.6101 156.749 28.6101C157.392 28.6101 158.051 28.396 158.722 27.9718C159.394 27.5436 160.004 26.7962 160.557 25.7297C161.107 24.6632 161.55 23.229 161.888 21.4273C162.225 19.6255 162.392 17.3511 162.392 14.604Z" fill="white"/>
    <path d="M169.646 28.6101V28.2101L172.063 27.6082V1.59978L169.646 0.99784V0.5979H176.901C178.162 0.5979 179.257 0.739292 180.184 1.01804C181.112 1.29679 181.881 1.68461 182.503 2.17747C183.122 2.67033 183.586 3.24399 183.895 3.89844C184.204 4.55289 184.359 5.25178 184.359 5.99915C184.359 6.58493 184.273 7.10606 184.098 7.55853C183.923 8.01099 183.695 8.40689 183.415 8.73815C183.134 9.07346 182.808 9.36433 182.446 9.61884C182.084 9.87335 181.714 10.0794 181.34 10.241C180.453 10.6409 179.444 10.8954 178.317 11.0005C179.981 11.1621 181.458 11.5741 182.747 12.2407C183.313 12.5356 183.854 12.8871 184.379 13.3032C184.904 13.7152 185.372 14.2242 185.791 14.8221C186.21 15.42 186.543 16.1149 186.8 16.9027C187.056 17.6904 187.182 18.5913 187.182 19.6053C187.182 20.8576 186.942 22.0332 186.458 23.124C185.974 24.2188 185.282 25.1722 184.383 25.9842C183.484 26.7962 182.402 27.4385 181.14 27.9031C179.879 28.3677 178.467 28.602 176.909 28.602H169.646V28.6101ZM175.489 10.6046H176.901C178.109 10.5803 179.082 10.1844 179.822 9.42492C180.559 8.66544 180.929 7.5262 180.929 6.00319C180.929 4.48421 180.559 3.33691 179.822 2.56126C179.082 1.78561 178.109 1.40182 176.901 1.40182H175.489V10.6046ZM175.489 11.4044V27.8102H176.901C177.812 27.8102 178.658 27.6365 179.44 27.2891C180.221 26.9416 180.896 26.4205 181.474 25.7256C182.052 25.0348 182.507 24.1784 182.845 23.1644C183.179 22.1504 183.35 20.9627 183.35 19.6013C183.35 18.2398 183.183 17.0562 182.845 16.0381C182.507 15.0241 182.052 14.1717 181.474 13.4769C180.896 12.782 180.217 12.2609 179.44 11.9135C178.658 11.566 177.816 11.3923 176.901 11.3923H175.489V11.4044Z" fill="white"/>
</svg>
