<svg width="193" height="116" viewBox="0 0 193 116" fill="none" xmlns="http://www.w3.org/2000/svg">
    <path d="M23.3423 63.4678H29.1789V63.8853L26.6793 64.5136V91.6634L29.1789 92.2917V92.7092H20.6365V92.2917L23.1361 91.6634V67.0186L14.1771 93.3333H13.5501L3.54742 67.0186V91.2459L6.25744 92.2917V92.7092H0V92.2917L2.71001 91.2459V64.7245L0 63.8853V63.4678H6.04282L15.1702 87.4842L23.3423 63.4678Z" fill="#3A3A3A"/>
    <path d="M38.9712 87.2732V91.659L41.4708 92.2873V92.7048H32.9283V92.2873L35.428 91.659V64.5092L32.9283 63.8809V63.4634H41.4708V63.8809L38.9712 64.5092V85.6032L47.5136 68.4775V64.5092L45.014 63.8809V63.4634H53.5564V63.8809L51.0568 64.5092V91.659L53.5564 92.2873V92.7048H45.014V92.2873L47.5136 91.659V70.1475L38.9712 87.2732Z" fill="#3A3A3A"/>
    <path d="M63.3529 82.2634V91.6634L65.8525 92.2917V92.7092H57.3101V92.2917L59.8097 91.6634V64.5136L57.3101 63.8853V63.4678H64.8131C66.5342 63.4678 68.0702 63.7039 69.4167 64.1762C70.7633 64.6486 71.8953 65.3022 72.8127 66.1372C73.73 66.9722 74.4328 67.9632 74.9167 69.1018C75.4006 70.2447 75.6447 71.4972 75.6447 72.8593C75.6447 74.2256 75.4006 75.4781 74.9167 76.6167C74.4286 77.7596 73.73 78.7464 72.8127 79.5814C71.8953 80.4163 70.7633 81.07 69.4167 81.5423C68.0702 82.0188 66.5342 82.2508 64.8131 82.2508H63.3529V82.2634ZM63.3529 81.4284H64.8131C67.0097 81.4284 68.7014 80.7621 69.8965 79.4253C71.0916 78.0885 71.6891 75.904 71.6891 72.8677C71.6891 69.8314 71.0916 67.6469 69.8965 66.3101C68.7014 64.9733 67.0055 64.307 64.8131 64.307H63.3529V81.4284Z" fill="#3A3A3A"/>
    <path d="M101.697 79.1301C101.28 79.4084 100.822 79.6615 100.321 79.8808C99.8748 80.0747 99.3615 80.2434 98.7807 80.3826C98.1958 80.5218 97.573 80.5935 96.9039 80.5935C94.4843 80.5935 92.6664 80.0157 91.446 78.8602C90.2215 77.7047 89.6113 76.1233 89.6113 74.1202V64.5136L87.1117 63.8853V63.4678H95.6541V63.8853L93.1545 64.5136V74.1202C93.1545 76.1233 93.5375 77.5656 94.2991 78.4427C95.0608 79.3199 96.0707 79.7585 97.3205 79.7585C97.876 79.7585 98.4273 79.691 98.9659 79.5476C99.5087 79.4084 99.9716 79.2398 100.363 79.0458C100.834 78.8223 101.28 78.5735 101.697 78.2951V64.5136L99.1973 63.8853V63.4678H107.74V63.8853L105.24 64.5136V91.6634L107.74 92.2917V92.7092H99.1973V92.2917L101.697 91.6634V79.1301Z" fill="#3A3A3A"/>
    <path d="M123.575 84.14H115.032L112.949 91.2416L115.659 92.2874V92.7049H109.406V92.2874L112.116 91.2416L120.242 62.8394H120.869L129.622 91.6591L132.122 92.2874V92.7049H123.369V92.2874L125.868 91.6591L123.575 84.14ZM115.239 83.3471H123.327L119.161 69.5235L115.239 83.3471Z" fill="#3A3A3A"/>
    <path d="M142.33 63.6743C141.552 63.6743 140.79 63.8979 140.037 64.3407C139.288 64.7877 138.619 65.5594 138.038 66.6601C137.453 67.7607 136.982 69.2367 136.62 71.088C136.258 72.9393 136.077 75.2714 136.077 78.0842C136.077 80.897 136.258 83.2291 136.62 85.0804C136.982 86.9317 137.466 88.4077 138.08 89.5084C138.69 90.609 139.402 91.3807 140.205 91.8278C141.013 92.2748 141.859 92.4941 142.747 92.4941C143.471 92.4941 144.207 92.3001 144.956 91.9079C145.705 91.5199 146.395 90.9759 147.018 90.2801C147.645 89.5843 148.171 88.7619 148.6 87.8131C149.03 86.8684 149.303 85.8521 149.413 84.7641H150.04C149.926 86.0166 149.652 87.1679 149.206 88.2095C148.76 89.2553 148.201 90.1578 147.519 90.9253C146.837 91.6928 146.054 92.2832 145.162 92.7007C144.274 93.1182 143.328 93.329 142.326 93.329C141.022 93.329 139.755 93.017 138.535 92.3886C137.314 91.7603 136.22 90.8157 135.265 89.5505C134.306 88.2812 133.54 86.6955 132.972 84.7894C132.403 82.8833 132.117 80.6482 132.117 78.0842C132.117 75.5244 132.403 73.2893 132.972 71.379C133.54 69.4729 134.293 67.883 135.223 66.6179C136.153 65.3528 137.201 64.4039 138.371 63.7798C139.536 63.1514 140.719 62.8394 141.914 62.8394C142.579 62.8394 143.185 62.9532 143.727 63.1725C144.27 63.396 144.733 63.649 145.125 63.9232C145.566 64.231 145.958 64.5768 146.29 64.969C146.513 64.5515 146.812 64.1551 147.186 63.7798C147.561 63.4045 147.957 63.1599 148.373 63.0502H149C148.945 63.4677 148.903 63.8852 148.874 64.3027C148.844 64.6949 148.823 65.1039 148.811 65.5341C148.798 65.9642 148.79 66.3902 148.79 66.8077C148.79 67.28 148.798 67.7481 148.811 68.2077C148.823 68.6674 148.844 69.0933 148.874 69.4813C148.899 69.9283 148.941 70.3585 149 70.776H148.373C147.734 68.465 146.879 66.7022 145.81 65.4919C144.742 64.2816 143.58 63.6743 142.33 63.6743Z" fill="#3A3A3A"/>
    <path d="M171.299 78.0842C171.299 80.6482 171.013 82.8791 170.445 84.7894C169.876 86.6955 169.123 88.2854 168.193 89.5505C167.263 90.8157 166.215 91.7645 165.046 92.3886C163.88 93.017 162.697 93.329 161.502 93.329C160.307 93.329 159.129 93.017 157.959 92.3886C156.794 91.7603 155.741 90.8157 154.812 89.5505C153.882 88.2812 153.128 86.6955 152.56 84.7894C151.992 82.8833 151.706 80.6482 151.706 78.0842C151.706 75.5244 151.992 73.2893 152.56 71.379C153.128 69.4729 153.882 67.883 154.812 66.6179C155.741 65.3528 156.789 64.4039 157.959 63.7798C159.125 63.1514 160.307 62.8394 161.502 62.8394C162.697 62.8394 163.88 63.1514 165.046 63.7798C166.211 64.4081 167.263 65.3528 168.193 66.6179C169.123 67.8872 169.872 69.4729 170.445 71.379C171.013 73.2893 171.299 75.5244 171.299 78.0842ZM167.339 78.0842C167.339 75.2166 167.166 72.8423 166.817 70.9615C166.468 69.0807 166.009 67.5836 165.441 66.4703C164.873 65.357 164.238 64.5768 163.543 64.1298C162.849 63.6828 162.167 63.4635 161.502 63.4635C160.837 63.4635 160.156 63.687 159.461 64.1298C158.767 64.5768 158.136 65.357 157.564 66.4703C156.995 67.5836 156.537 69.0807 156.188 70.9615C155.838 72.8423 155.666 75.2166 155.666 78.0842C155.666 80.9518 155.838 83.3261 156.188 85.2069C156.537 87.0877 156.995 88.5848 157.564 89.6981C158.132 90.8114 158.767 91.5916 159.461 92.0386C160.156 92.4856 160.837 92.7049 161.502 92.7049C162.167 92.7049 162.849 92.4814 163.543 92.0386C164.238 91.5916 164.869 90.8114 165.441 89.6981C166.009 88.5848 166.468 87.0877 166.817 85.2069C167.166 83.3261 167.339 80.9518 167.339 78.0842Z" fill="#3A3A3A"/>
    <path d="M174.842 92.7048V92.2873L177.342 91.659V64.5092L174.842 63.8809V63.4634H182.345C183.65 63.4634 184.782 63.611 185.741 63.902C186.7 64.1929 187.496 64.5978 188.14 65.1123C188.779 65.6268 189.259 66.2256 189.579 66.9088C189.899 67.5919 190.059 68.3215 190.059 69.1017C190.059 69.7131 189.97 70.2571 189.789 70.7295C189.608 71.2018 189.373 71.615 189.082 71.9608C188.792 72.3109 188.455 72.6145 188.081 72.8802C187.706 73.1459 187.323 73.3609 186.936 73.5296C186.019 73.9471 184.975 74.2128 183.809 74.3224C185.531 74.4911 187.058 74.9213 188.392 75.6171C188.977 75.9249 189.537 76.2918 190.08 76.7262C190.622 77.1563 191.106 77.6877 191.54 78.3118C191.973 78.9359 192.318 79.6613 192.583 80.4836C192.848 81.306 192.979 82.2464 192.979 83.3049C192.979 84.6122 192.731 85.8394 192.23 86.978C191.729 88.1208 191.014 89.116 190.084 89.9637C189.154 90.8113 188.034 91.4818 186.73 91.9668C185.425 92.4518 183.965 92.6964 182.353 92.6964H174.842V92.7048ZM180.885 73.9092H182.345C183.595 73.8838 184.601 73.4706 185.366 72.6778C186.128 71.8849 186.511 70.6957 186.511 69.1059C186.511 67.5202 186.128 66.3226 185.366 65.5129C184.601 64.7032 183.595 64.3026 182.345 64.3026H180.885V73.9092ZM180.885 74.7441V91.8698H182.345C183.288 91.8698 184.163 91.6885 184.971 91.3258C185.779 90.9631 186.477 90.4191 187.075 89.6938C187.673 88.9727 188.144 88.0786 188.493 87.0201C188.838 85.9617 189.015 84.7218 189.015 83.3007C189.015 81.8795 188.842 80.6439 188.493 79.5812C188.144 78.5227 187.673 77.6329 187.075 76.9075C186.477 76.1822 185.775 75.6382 184.971 75.2755C184.163 74.9128 183.292 74.7315 182.345 74.7315H180.885V74.7441Z" fill="#3A3A3A"/>
    <path d="M9.46826 109.763C9.80491 110.151 9.97323 110.657 9.97323 111.281C9.97323 112.091 9.68708 112.715 9.11478 113.154C8.54248 113.592 7.70086 113.811 6.58992 113.811H2.45337V104.454H6.33323C7.33055 104.454 8.10905 104.66 8.66872 105.069C9.2284 105.478 9.51034 106.073 9.51034 106.849C9.51034 107.376 9.37568 107.819 9.11057 108.177C8.84546 108.54 8.47094 108.806 7.99122 108.987C8.63506 109.114 9.13161 109.375 9.46826 109.763ZM3.42544 108.688H6.27853C6.99811 108.688 7.55358 108.54 7.94072 108.249C8.32787 107.954 8.52144 107.528 8.52144 106.967C8.52144 106.406 8.32787 105.976 7.94072 105.685C7.55358 105.39 7.00232 105.246 6.27853 105.246H3.42544V108.688ZM9.00116 111.214C9.00116 110.037 8.19742 109.451 6.58572 109.451H3.42544V113.019H6.58572C8.19742 113.019 9.00116 112.416 9.00116 111.214Z" fill="#3A3A3A"/>
    <path d="M19.2774 108.54C19.8581 109.037 20.1527 109.771 20.1527 110.733C20.1527 111.741 19.8413 112.504 19.2269 113.027C18.6125 113.55 17.7162 113.811 16.5547 113.811H12.8474V104.453H13.8195V107.793H16.7525C17.8508 107.793 18.6967 108.042 19.2774 108.54ZM18.4905 112.445C18.9407 112.061 19.1638 111.496 19.1638 110.75C19.1638 109.316 18.2843 108.599 16.5211 108.599H13.8153V113.018H16.5211C17.3837 113.018 18.0402 112.829 18.4905 112.445ZM21.7644 104.449H22.7364V113.807H21.7644V104.449Z" fill="#3A3A3A"/>
    <path d="M29.3809 109.518H27.2474V113.811H26.288V104.454H27.2474V108.65H29.3809L32.5412 104.454H33.6058L30.1384 109L33.8036 113.811H32.6716L29.3809 109.518Z" fill="#3A3A3A"/>
    <path d="M43.0782 104.45L38.8365 112.323C38.5335 112.884 38.18 113.301 37.776 113.571C37.3721 113.841 36.9302 113.98 36.4463 113.98C36.0886 113.98 35.7099 113.896 35.2975 113.727L35.5794 112.926C35.8992 113.052 36.1938 113.111 36.4589 113.111C37.0733 113.111 37.5741 112.778 37.9654 112.108L38.2305 111.652L34.4432 104.445H35.4953L38.7481 110.779L42.0809 104.445H43.0782V104.45Z" fill="#3A3A3A"/>
    <path d="M52.8663 104.449V113.807H51.8943V105.305H45.9861V113.807H45.014V104.449H52.8663Z" fill="#3A3A3A"/>
    <path d="M73.5997 109.746C73.9532 110.147 74.1257 110.628 74.1257 111.188C74.1257 111.732 73.9574 112.209 73.6165 112.618C73.2799 113.027 72.8296 113.343 72.2699 113.558C71.7102 113.778 71.1001 113.887 70.4436 113.887C69.8208 113.887 69.2106 113.786 68.6089 113.588C68.0071 113.39 67.4685 113.086 66.9888 112.685L67.3507 111.977C67.7589 112.323 68.2259 112.588 68.752 112.774C69.278 112.955 69.804 113.048 70.3384 113.048C70.8434 113.048 71.3105 112.968 71.7397 112.808C72.1647 112.647 72.5056 112.42 72.7581 112.12C73.0105 111.821 73.1368 111.467 73.1368 111.058C73.1368 110.514 72.9222 110.096 72.4972 109.801C72.0679 109.506 71.4704 109.362 70.6961 109.362H68.6973V108.561H70.6456C71.3021 108.561 71.8154 108.422 72.1858 108.139C72.5561 107.857 72.7412 107.469 72.7412 106.971C72.7412 106.419 72.5056 105.984 72.0343 105.668C71.563 105.352 70.9738 105.192 70.2585 105.192C69.8124 105.192 69.3663 105.255 68.9119 105.386C68.4574 105.516 68.0282 105.71 67.62 105.968L67.2875 105.154C68.2133 104.601 69.2106 104.327 70.2879 104.327C70.9191 104.327 71.4956 104.428 72.0216 104.635C72.5477 104.842 72.96 105.133 73.2672 105.516C73.5744 105.9 73.7259 106.351 73.7259 106.866C73.7259 107.363 73.5871 107.794 73.3135 108.156C73.04 108.519 72.6529 108.772 72.1521 108.924C72.7665 109.067 73.2504 109.341 73.5997 109.746Z" fill="#3A3A3A"/>
    <path d="M82.9543 111.306H77.7531L76.6337 113.807H75.6069L79.8739 104.449H80.846L85.113 113.807H84.0736L82.9543 111.306ZM82.5966 110.505L80.3579 105.478L78.115 110.505H82.5966Z" fill="#3A3A3A"/>
    <path d="M94.6526 104.449V113.807H93.6805V105.305H89.1695L89.0643 108.43C89.018 109.721 88.917 110.762 88.7529 111.551C88.5888 112.339 88.3363 112.926 87.9996 113.314C87.663 113.702 87.2127 113.896 86.653 113.896C86.4132 113.896 86.1649 113.866 85.9082 113.803L85.9882 112.921C86.1396 112.959 86.2869 112.976 86.43 112.976C86.8214 112.976 87.137 112.82 87.3852 112.508C87.6293 112.196 87.8145 111.715 87.9407 111.057C88.067 110.404 88.1511 109.535 88.1932 108.46L88.3279 104.449H94.6526Z" fill="#3A3A3A"/>
    <path d="M99.7823 113.267C99.0291 112.854 98.4442 112.285 98.0234 111.564C97.6026 110.843 97.3879 110.033 97.3879 109.13C97.3879 108.228 97.5983 107.418 98.0234 106.697C98.4442 105.976 99.0333 105.407 99.7823 104.993C100.531 104.58 101.373 104.374 102.295 104.374C103.22 104.374 104.054 104.58 104.794 104.989C105.535 105.398 106.12 105.968 106.549 106.693C106.978 107.418 107.189 108.232 107.189 109.13C107.189 110.029 106.974 110.843 106.549 111.568C106.124 112.293 105.539 112.863 104.794 113.272C104.049 113.681 103.216 113.887 102.295 113.887C101.369 113.887 100.531 113.681 99.7823 113.267ZM104.293 112.504C104.887 112.171 105.354 111.707 105.695 111.112C106.031 110.522 106.2 109.86 106.2 109.126C106.2 108.397 106.031 107.735 105.695 107.14C105.358 106.55 104.891 106.086 104.293 105.748C103.696 105.415 103.031 105.246 102.295 105.246C101.558 105.246 100.889 105.411 100.287 105.748C99.6856 106.086 99.2143 106.545 98.8734 107.14C98.5325 107.73 98.36 108.397 98.36 109.126C98.36 109.856 98.5325 110.518 98.8734 111.112C99.2143 111.703 99.6856 112.167 100.287 112.504C100.889 112.837 101.558 113.006 102.295 113.006C103.031 113.006 103.7 112.837 104.293 112.504Z" fill="#3A3A3A"/>
    <path d="M115.887 105.305H110.913L110.925 113.807H109.953V104.449H115.887V105.305Z" fill="#3A3A3A"/>
    <path d="M131.242 113.267C130.489 112.854 129.904 112.285 129.483 111.564C129.062 110.843 128.848 110.033 128.848 109.13C128.848 108.228 129.058 107.418 129.483 106.697C129.908 105.976 130.493 105.407 131.242 104.993C131.991 104.58 132.833 104.374 133.754 104.374C134.68 104.374 135.513 104.58 136.254 104.989C136.995 105.398 137.584 105.968 138.009 106.693C138.434 107.418 138.648 108.232 138.648 109.13C138.648 110.029 138.434 110.843 138.009 111.568C137.584 112.293 136.999 112.863 136.254 113.272C135.513 113.681 134.676 113.887 133.754 113.887C132.833 113.887 131.995 113.681 131.242 113.267ZM135.757 112.504C136.355 112.171 136.818 111.707 137.159 111.112C137.499 110.518 137.668 109.86 137.668 109.126C137.668 108.397 137.499 107.735 137.159 107.14C136.822 106.55 136.355 106.086 135.757 105.748C135.16 105.415 134.495 105.246 133.758 105.246C133.022 105.246 132.353 105.411 131.751 105.748C131.149 106.081 130.678 106.545 130.337 107.14C129.996 107.73 129.824 108.397 129.824 109.126C129.824 109.856 129.996 110.518 130.337 111.112C130.678 111.703 131.149 112.167 131.751 112.504C132.353 112.837 133.022 113.006 133.758 113.006C134.495 113.006 135.16 112.837 135.757 112.504Z" fill="#3A3A3A"/>
    <path d="M150.482 112.951V116H149.56V113.807H141.413V104.449H142.385V112.951H148.028V104.449H149V112.951H150.482Z" fill="#3A3A3A"/>
    <path d="M159.445 112.951V113.807H152.842V104.449H159.243V105.305H153.827V108.633H158.654V109.476H153.827V112.951H159.445Z" fill="#3A3A3A"/>
    <path d="M169.834 104.449V113.807H168.862V109.489H163.022V113.807H162.037V104.449H163.022V108.62H168.862V104.449H169.834Z" fill="#3A3A3A"/>
    <path d="M176.475 109.518H174.341V113.811H173.382V104.454H174.341V108.65H176.475L179.635 104.454H180.704L177.237 109L180.906 113.811H179.774L176.475 109.518Z" fill="#3A3A3A"/>
    <path d="M188.695 111.306H183.494L182.375 113.807H181.348L185.615 104.449H186.587L190.854 113.807H189.815L188.695 111.306ZM188.333 110.505L186.095 105.478L183.852 110.505H188.333Z" fill="#3A3A3A"/>
    <path fill-rule="evenodd" clip-rule="evenodd" d="M93.6721 48.7119C94.9934 48.7119 96.0707 47.6324 96.0707 46.304C96.0707 44.9798 94.9934 43.896 93.6721 43.896C92.3508 43.896 91.2693 44.9756 91.2693 46.304C91.2735 47.6281 92.3508 48.7119 93.6721 48.7119Z" fill="#C7AB8E"/>
    <path fill-rule="evenodd" clip-rule="evenodd" d="M92.355 2.44189H94.9892L93.6721 5.0818L92.355 2.44189Z" fill="#C7AB8E"/>
    <path d="M89.3117 2.62907L88.8723 2.67529L89.0924 4.77644L89.5318 4.73022L89.3117 2.62907Z" fill="#C7AB8E"/>
    <path d="M84.7834 3.32249L84.3512 3.41455L84.7895 5.48126L85.2217 5.38921L84.7834 3.32249Z" fill="#C7AB8E"/>
    <path d="M80.3445 4.48809L79.9243 4.625L80.5762 6.63425L80.9964 6.49733L80.3445 4.48809Z" fill="#C7AB8E"/>
    <path d="M76.056 6.11825L75.6523 6.29834L76.5098 8.22836L76.9134 8.04827L76.056 6.11825Z" fill="#C7AB8E"/>
    <path d="M68.1056 10.6616L67.7482 10.9219L68.9874 12.6311L69.3449 12.3708L68.1056 10.6616Z" fill="#C7AB8E"/>
    <path d="M64.5273 13.5367L64.199 13.833L65.6098 15.403L65.9381 15.1067L64.5273 13.5367Z" fill="#C7AB8E"/>
    <path d="M61.2663 16.774L60.9706 17.103L62.537 18.5169L62.8327 18.1879L61.2663 16.774Z" fill="#C7AB8E"/>
    <path d="M58.3647 20.3239L58.105 20.6821L59.8108 21.9238L60.0704 21.5655L58.3647 20.3239Z" fill="#C7AB8E"/>
    <path d="M53.7456 28.2493L53.5659 28.6538L55.4918 29.5131L55.6715 29.1086L53.7456 28.2493Z" fill="#C7AB8E"/>
    <path d="M52.0845 32.5301L51.9479 32.9512L53.9528 33.6042L54.0894 33.1831L52.0845 32.5301Z" fill="#C7AB8E"/>
    <path d="M50.1335 41.4971L50.0873 41.9375L52.1839 42.1583L52.2301 41.7179L50.1335 41.4971Z" fill="#C7AB8E"/>
    <path d="M137.204 41.4992L135.108 41.7197L135.154 42.1601L137.25 41.9395L137.204 41.4992Z" fill="#C7AB8E"/>
    <path d="M136.478 36.9592L134.416 37.3984L134.508 37.8316L136.57 37.3923L136.478 36.9592Z" fill="#C7AB8E"/>
    <path d="M135.255 32.5257L133.25 33.1787L133.386 33.5998L135.391 32.9468L135.255 32.5257Z" fill="#C7AB8E"/>
    <path d="M133.593 28.2523L131.667 29.1118L131.846 29.5163L133.772 28.6568L133.593 28.2523Z" fill="#C7AB8E"/>
    <path d="M128.98 20.3279L127.274 21.5698L127.534 21.928L129.24 20.6862L128.98 20.3279Z" fill="#C7AB8E"/>
    <path d="M126.07 16.776L124.503 18.1895L124.798 18.5185L126.365 17.1051L126.07 16.776Z" fill="#C7AB8E"/>
    <path d="M122.815 13.5306L121.404 15.1006L121.732 15.3969L123.143 13.8269L122.815 13.5306Z" fill="#C7AB8E"/>
    <path d="M119.245 10.6623L118.006 12.3716L118.363 12.6319L119.603 10.9227L119.245 10.6623Z" fill="#C7AB8E"/>
    <path d="M111.291 6.11469L110.433 8.04492L110.837 8.22501L111.694 6.29477L111.291 6.11469Z" fill="#C7AB8E"/>
    <path d="M107 4.49006L106.349 6.49951L106.769 6.63634L107.42 4.62688L107 4.49006Z" fill="#C7AB8E"/>
    <path d="M102.563 3.32754L102.125 5.39404L102.557 5.4861L102.995 3.4196L102.563 3.32754Z" fill="#C7AB8E"/>
    <path d="M98.0299 2.63176L97.8096 4.73291L98.249 4.77918L98.4693 2.67803L98.0299 2.63176Z" fill="#C7AB8E"/>
    <path fill-rule="evenodd" clip-rule="evenodd" d="M70.6454 8.97816L72.9262 7.6582L73.1029 10.606L70.6454 8.97816Z" fill="#C7AB8E"/>
    <path fill-rule="evenodd" clip-rule="evenodd" d="M130.918 23.228L132.239 25.5179L129.298 25.695L130.918 23.228Z" fill="#C7AB8E"/>
    <path fill-rule="evenodd" clip-rule="evenodd" d="M114.418 7.6582L116.699 8.97816L114.241 10.606L114.418 7.6582Z" fill="#C7AB8E"/>
    <path d="M50.8734 36.9663L50.7815 37.3994L52.8436 37.8387L52.9354 37.4056L50.8734 36.9663Z" fill="#C7AB8E"/>
    <path fill-rule="evenodd" clip-rule="evenodd" d="M55.1091 25.5179L56.4263 23.228L58.0464 25.695L55.1091 25.5179Z" fill="#C7AB8E"/>
    <path fill-rule="evenodd" clip-rule="evenodd" d="M111.472 32.9359C104.255 39.7549 101.844 41.6273 94.783 45.777L94.3706 45.2456C100.081 39.367 102.475 37.4735 110.807 32.0798L125.035 20.9087L125.704 21.7648L111.472 32.9359Z" fill="#C7AB8E"/>
    <path fill-rule="evenodd" clip-rule="evenodd" d="M79.4992 34.2178C80.2819 33.2859 81.6916 33.1847 82.6469 33.9943C83.6021 34.804 83.741 36.2125 82.9583 37.1445C82.1755 38.0765 80.7658 38.1735 79.8106 37.368C78.8554 36.5583 78.7165 35.1498 79.4992 34.2178ZM84.7467 37.7433C84.7467 37.7433 84.5615 37.659 84.3259 37.5831C84.2165 37.5494 84.1407 37.4777 84.0944 37.3722L83.8798 36.8788C84.3722 35.7487 84.0692 34.3612 83.055 33.5052C82.3986 32.9485 81.5696 32.725 80.7911 32.8262L74.6851 29.9923C74.6346 29.967 74.5757 29.9797 74.5379 30.026C74.5 30.0682 74.5 30.1315 74.5294 30.1779L78.3462 35.7318C78.3798 36.5204 78.7375 37.3006 79.3982 37.8572C80.3997 38.7006 81.7842 38.7765 82.811 38.1313L83.3875 38.2578C83.4885 38.2789 83.5684 38.3337 83.6231 38.4223C83.6947 38.5319 83.783 38.6627 83.863 38.7808C85.3232 40.8724 87.9448 43.1623 92.4938 46.1059L93.2849 45.1823C89.6912 41.1213 87.0359 38.8735 84.7467 37.7433Z" fill="#C7AB8E"/>
    <path fill-rule="evenodd" clip-rule="evenodd" d="M48.3424 49.4285C48.2709 48.3953 48.2246 47.3579 48.2246 46.3036C48.2246 33.7282 53.3122 22.342 61.5348 14.0976C69.7616 5.85732 81.1235 0.75884 93.672 0.75884C106.221 0.75884 117.582 5.85732 125.809 14.0976C134.032 22.3378 139.119 33.724 139.119 46.3036C139.119 47.3537 139.073 48.3953 139.002 49.4285H139.225C139.296 48.3953 139.342 47.3579 139.342 46.3036C139.342 33.6649 134.23 22.2239 125.965 13.9415C117.7 5.65912 106.284 0.539551 93.672 0.539551C81.0604 0.539551 69.6438 5.66334 61.3791 13.9457C53.1144 22.2281 48.0016 33.6692 48.0016 46.3078C48.0016 47.3579 48.0479 48.3995 48.1194 49.4327H48.3424V49.4285Z" fill="#C7AB8E"/>
    <path fill-rule="evenodd" clip-rule="evenodd" d="M52.2182 49.4288C52.1424 48.3956 52.0877 47.3582 52.0877 46.3039C52.0877 34.7954 56.7419 24.3791 64.2659 16.839C71.79 9.29876 82.1882 4.63464 93.6679 4.63464C105.152 4.63464 115.546 9.29876 123.07 16.839C130.594 24.3791 135.248 34.7996 135.248 46.3039C135.248 47.3539 135.198 48.3956 135.118 49.4288H135.341C135.416 48.3956 135.467 47.3582 135.467 46.3039C135.467 34.7364 130.787 24.2611 123.221 16.6829C115.655 9.10056 105.206 4.41113 93.6637 4.41113C82.1209 4.41113 71.668 9.10056 64.106 16.6829C56.5399 24.2653 51.8605 34.7364 51.8605 46.3039C51.8605 47.3539 51.911 48.3956 51.9867 49.4288H52.2182Z" fill="#C7AB8E"/>
    <path fill-rule="evenodd" clip-rule="evenodd" d="M50.1057 49.4287C50.0341 48.3955 49.9836 47.3581 49.9836 46.3039C49.9836 34.2134 54.8735 23.2658 62.7805 15.3461C70.6833 7.42212 81.6075 2.52185 93.6721 2.52185C105.737 2.52185 116.661 7.42212 124.564 15.3461C132.471 23.27 137.361 34.2134 137.361 46.3039C137.361 47.3539 137.31 48.3955 137.238 49.4287H137.462C137.533 48.3955 137.584 47.3581 137.584 46.3039C137.584 34.1544 132.669 23.1519 124.724 15.1858C116.775 7.22392 105.8 2.29834 93.6721 2.29834C81.5444 2.29834 70.5696 7.22392 62.6206 15.1858C54.6757 23.1477 49.7606 34.1502 49.7606 46.3039C49.7606 47.3539 49.8111 48.3955 49.8827 49.4287H50.1057Z" fill="#C7AB8E"/>
    <path fill-rule="evenodd" clip-rule="evenodd" d="M48.8811 49.4287C48.8096 48.3955 48.7633 47.3581 48.7633 46.3038C48.7633 40.2059 49.971 34.3905 52.1635 29.0896C54.44 23.5863 57.7728 18.6312 61.9178 14.4773C66.0628 10.3277 71.0073 6.98353 76.4989 4.70208C81.7884 2.50918 87.5872 1.29465 93.6763 1.29465C99.7612 1.29465 105.564 2.50496 110.854 4.70208C116.345 6.98353 121.29 10.3277 125.435 14.4773C129.576 18.627 132.913 23.5863 135.189 29.0896C137.377 34.3905 138.589 40.2017 138.589 46.3038C138.589 47.3539 138.539 48.3955 138.471 49.4287H139.772C139.839 48.3955 139.89 47.3581 139.89 46.3038C139.89 40.0372 138.644 34.0531 136.388 28.5962C134.045 22.9284 130.615 17.8257 126.356 13.558C122.098 9.29029 117.01 5.85335 111.35 3.50442C105.897 1.24826 99.9253 0 93.6721 0C87.4147 0 81.4476 1.24826 76.0023 3.50863C70.3466 5.85756 65.2548 9.29451 60.9962 13.5622C56.7376 17.8299 53.3081 22.9284 50.9641 28.6004C48.7086 34.0574 47.463 40.0372 47.463 46.3081C47.463 47.3581 47.5093 48.3997 47.5808 49.4329H48.8811V49.4287Z" fill="#C7AB8E"/>
    <path d="M193 98.5371H0.0252686V98.9546H193V98.5371Z" fill="#C7AB8E"/>
    <path d="M59.9857 104.451V113.809H60.4023V104.451H59.9857Z" fill="#C7AB8E"/>
    <path d="M122.583 104.449V113.807H123V104.449H122.583Z" fill="#C7AB8E"/>
</svg>
