<svg width="30" height="30" viewBox="0 0 30 30" fill="none" xmlns="http://www.w3.org/2000/svg">
    <g>
        <path d="M21.2183 19.8825L30 28.1696V14.0913C27.9421 15.4481 22.8784 18.7877 21.2183 19.8825Z" fill="white"/>
        <path d="M0 14.0913V28.1696L8.78176 19.8825C1.31835 14.9604 3.98659 16.7199 0 14.0913Z" fill="white"/>
        <path d="M15.4858 23.6632C15.1898 23.8577 14.8099 23.8577 14.514 23.6632L10.2946 20.8809L1.33813 29.3332H28.6617L19.7052 20.8809L15.4858 23.6632Z" fill="white"/>
        <path d="M3.16642 10.2554L0.71936 12.4518C2.35495 13.5303 1.79907 13.1638 3.16642 14.0648C3.16642 13.6843 3.16642 10.7137 3.16642 10.2554Z" fill="white"/>
        <path d="M15.3744 0.801463C15.1571 0.622169 14.8431 0.622169 14.6257 0.801463L11.9213 3.03264H18.0789L15.3744 0.801463Z" fill="white"/>
        <path d="M26.8335 10.2554V14.0648C28.1976 13.1661 27.644 13.5309 29.2806 12.4518L26.8335 10.2554Z" fill="white"/>
        <path d="M25.0689 15.2297V5.3856C25.0689 5.06072 24.8056 4.79736 24.4807 4.79736H5.51951C5.19463 4.79736 4.93127 5.06072 4.93127 5.3856V15.2297L15.0001 21.8697L25.0689 15.2297ZM13.1019 11.085C12.6148 11.085 12.2195 10.6897 12.2195 10.2027C12.2195 8.63966 13.5043 7.38501 15.0666 7.42266C16.553 7.45795 17.7448 8.64972 17.7795 10.1356C17.8069 11.2675 17.2715 11.8696 16.6489 12.4521C16.1719 12.891 15.8825 13.4919 15.8825 14.1921C15.8825 14.6771 15.4896 15.0744 15.0001 15.0744C14.5114 15.0744 14.1177 14.6779 14.1177 14.1921C14.1177 11.6238 16.0389 11.1491 16.0154 10.1774C16.003 9.64383 15.5583 9.19972 15.0248 9.18736C14.4542 9.17389 13.9842 9.6306 13.9842 10.2027C13.9842 10.6878 13.5921 11.085 13.1019 11.085ZM14.1183 17.2721C14.1177 17.2632 14.1177 17.2538 14.1177 17.245V16.6632C14.1177 16.1762 14.513 15.7809 15.0001 15.7809C15.4872 15.7809 15.8825 16.1762 15.8825 16.6632V17.245C15.8825 17.2538 15.8824 17.2632 15.8819 17.2721C15.8677 17.7468 15.4783 18.1274 15.0001 18.1274C14.5219 18.1274 14.1325 17.7468 14.1183 17.2721Z" fill="white"/>
    </g>
</svg>
