<svg width="60" height="60" viewBox="0 0 60 60" fill="none" xmlns="http://www.w3.org/2000/svg">
    <g clip-path="url(#clip0_52:1070)">
        <path d="M50 43.2358L47.4531 41.71C46.6767 41.2456 45.7885 41.0005 44.8837 41H41.0507C40.2661 40.9985 39.4848 41.0996 38.726 41.2998L27.1772 44.3999C25.9145 44.7485 24.9003 45.689 24.458 46.9219L14.2998 41.4263C13.476 40.9575 12.5117 40.7983 11.581 40.9771C11.2299 41.0391 10.8896 41.1509 10.5698 41.3091C9.84762 41.6548 9.2485 42.2134 8.85201 42.9092C8.50533 43.5151 8.3232 44.2012 8.3232 44.8989C8.31246 46.3237 9.06734 47.644 10.2998 48.3579L28.5058 59.251C29.2968 59.7407 30.208 60 31.1381 60H45.228C45.8574 60.0005 46.4809 59.8814 47.0659 59.6499L50 58.4912V60H60V40H50V43.2358ZM46.331 57.79C45.9809 57.9282 45.6074 57.9995 45.2309 58H31.1381C30.5747 57.9995 30.0224 57.8408 29.5449 57.542L11.3139 46.6362C10.6943 46.2783 10.3149 45.6152 10.3198 44.8999C10.3212 44.5493 10.4135 44.2046 10.5879 43.8999C10.7871 43.5547 11.0869 43.2778 11.4467 43.1069C11.6054 43.0298 11.7734 42.9751 11.9467 42.9448C12.0732 42.9214 12.2016 42.9092 12.33 42.9092C12.6738 42.9082 13.0117 42.998 13.31 43.1689L24.3252 49.1211C24.3378 49.1821 24.3378 49.2422 24.354 49.3032C24.8276 51.0488 26.4111 52.2612 28.2202 52.2632C28.7768 52.2124 29.3281 52.1138 29.8681 51.9692L40.2578 49.189L39.7421 47.2568L29.3862 50.0249C28.9301 50.1299 28.3418 50.25 28.2202 50.2603C27.3169 50.2617 26.5249 49.6582 26.2871 48.7871C26.2548 48.666 26.2358 48.542 26.229 48.417C26.229 48.417 26.2211 48.1748 26.229 48.0898C26.3051 47.2534 26.8911 46.5513 27.7002 46.3262L39.2441 43.2378C39.8334 43.0801 40.4409 43 41.0507 43H44.8837C45.4267 43 45.9594 43.1475 46.4248 43.4263L50 45.5669V56.3399L46.331 57.79ZM52 42H58V58H52V42Z" fill="#283D4C"/>
        <path d="M41.2441 7.99974L35.8799 2.63597C34.1958 0.942126 31.9043 -0.007093 29.5161 -0.000257064H16.9438C16.168 0.000719499 15.4028 0.181872 14.708 0.527575L12.4668 1.64867C12.0176 1.87474 11.5186 1.98265 11.0161 1.96263L10 1.92699V-0.000257064H0V21.9997H10V18.9997H11.7002L12.3052 19.3996C13.998 20.5237 15.9692 21.1584 18 21.2327V33.9997H60V7.99974H41.2441ZM8 19.9997H2V1.99974H8V19.9997ZM13.4121 17.7356L12.2998 16.9997H10V3.92797L10.9429 3.96166C11.7803 3.99144 12.6113 3.81127 13.3608 3.43773L15.6001 2.31664C16.0171 2.10814 16.4775 1.99974 16.9438 1.99974H29.5161C31.3735 1.99437 33.1562 2.73265 34.4658 4.04955L38.416 7.99974H30.1641L27.7368 5.57299L26.3232 6.98656L33.3872 14.051C34.1719 14.8323 34.1743 16.1018 33.3931 16.8869C32.6113 17.6716 31.3418 17.6741 30.5571 16.8928L24.6572 10.9929L23.957 11.593C22.0239 13.2346 19.1982 13.2766 17.2168 11.6926L16.6372 11.2229L15.377 12.7766L15.9629 13.2517C16.5757 13.7414 17.2637 14.1291 18 14.3996V19.2317C16.3633 19.1589 14.7769 18.6418 13.4121 17.7356ZM27.6372 16.7995L29.146 18.3088C30.7124 19.8518 33.2271 19.8542 34.7959 18.3137C33.3281 20.5867 33.9072 23.6116 36.1108 25.1814C38.3145 26.7512 41.3628 26.3103 43.0312 24.1809C44.6997 22.051 44.3984 18.9856 42.3467 17.2219C40.2954 15.4582 37.2192 15.6199 35.3643 17.5886C36.0474 16.5159 36.1694 15.1789 35.6919 13.9997H49.083C49.5132 16.5159 51.4839 18.4866 54 18.9167V23.0828C51.4839 23.5129 49.5132 25.4836 49.083 27.9997H28.917C28.4868 25.4836 26.5161 23.5129 24 23.0828V18.9167C25.4292 18.676 26.7217 17.9236 27.6372 16.7995ZM36 20.9997C36 19.343 37.3433 17.9997 39 17.9997C40.6567 17.9997 42 19.343 42 20.9997C42 22.6565 40.6567 23.9997 39 23.9997C37.3433 23.9997 36 22.6565 36 20.9997ZM58 31.9997H20V14.8186C21.5854 14.9377 23.166 14.5334 24.5 13.6687L26.2061 15.3747C25.4556 16.3943 24.2661 16.9973 23 16.9997H22V24.9997H23C25.209 24.9997 27 26.7908 27 28.9997V29.9997H51V28.9997C51 26.7908 52.791 24.9997 55 24.9997H56V16.9997H55C52.791 16.9997 51 15.2087 51 12.9997V11.9997H34.1641L32.1641 9.99974H58V31.9997Z" fill="#283D4C"/>
    </g>
    <defs>
        <clipPath id="clip0_52:1070">
            <rect width="60" height="60" fill="white"/>
        </clipPath>
    </defs>
</svg>
