<svg width="30" height="30" viewBox="0 0 30 30" fill="none" xmlns="http://www.w3.org/2000/svg">
    <path d="M12.4226 17.5774C9.55912 14.714 8.91257 11.8506 8.76671 10.7033C8.72595 10.3861 8.83511 10.068 9.06205 9.84262L11.3793 7.52642C11.7202 7.18576 11.7807 6.65485 11.5252 6.24624L7.83568 0.517278C7.55301 0.0648202 6.97263 -0.0984763 6.4955 0.140209L0.572572 2.92969C0.186741 3.11968 -0.0402002 3.52962 0.0036067 3.95745C0.313952 6.90573 1.5993 14.1533 8.72171 21.2762C15.8441 28.3992 23.0907 29.684 26.0405 29.9943C26.4683 30.0382 26.8783 29.8112 27.0683 29.4254L29.8577 23.5024C30.0955 23.0264 29.9333 22.4475 29.4827 22.1643L23.7538 18.4759C23.3454 18.2201 22.8145 18.2802 22.4736 18.6207L20.1574 20.938C19.932 21.1649 19.6139 21.2741 19.2967 21.2333C18.1495 21.0874 15.286 20.4409 12.4226 17.5774Z" fill="white"/>
    <path d="M23.793 16.0344C23.2217 16.0344 22.7586 15.5713 22.7586 14.9999C22.7537 10.717 19.2829 7.24617 14.9999 7.24133C14.4286 7.24133 13.9655 6.77817 13.9655 6.20685C13.9655 5.63552 14.4286 5.17236 14.9999 5.17236C20.4251 5.17835 24.8215 9.57481 24.8275 14.9999C24.8275 15.5713 24.3644 16.0344 23.793 16.0344Z" fill="white"/>
    <path d="M28.9655 16.0345C28.3942 16.0345 27.931 15.5713 27.931 15C27.923 7.8617 22.1383 2.07695 14.9999 2.06897C14.4286 2.06897 13.9655 1.60581 13.9655 1.03448C13.9655 0.463154 14.4286 0 14.9999 0C23.2804 0.009122 29.9908 6.71951 30 15C30 15.2744 29.891 15.5375 29.697 15.7315C29.503 15.9255 29.2398 16.0345 28.9655 16.0345Z" fill="white"/>
</svg>
