<svg width="18" height="18" viewBox="0 0 18 18" fill="none" xmlns="http://www.w3.org/2000/svg">
    <path d="M7.45363 10.5466C5.73556 8.8285 5.34763 7.11043 5.26011 6.42208C5.23566 6.23175 5.30115 6.04088 5.43732 5.90567L6.82766 4.51595C7.03218 4.31155 7.06848 3.99301 6.91518 3.74784L4.70149 0.310464C4.53189 0.0389897 4.18366 -0.0589881 3.89739 0.0842229L0.343629 1.75791C0.11213 1.8719 -0.0240347 2.11787 0.00224947 2.37457C0.188456 4.14353 0.959663 8.49208 5.23311 12.7658C9.50656 17.0396 13.8545 17.8105 15.6244 17.9967C15.8811 18.023 16.127 17.8868 16.241 17.6553L17.9147 14.1016C18.0574 13.8159 17.9601 13.4686 17.6897 13.2987L14.2523 11.0856C14.0073 10.9322 13.6888 10.9682 13.4842 11.1725L12.0945 12.5629C11.9593 12.699 11.7684 12.7645 11.5781 12.7401C10.8898 12.6526 9.1717 12.2646 7.45363 10.5466Z" fill="#283D4C"/>
    <path d="M14.2759 9.62076C13.9331 9.62076 13.6553 9.34286 13.6553 9.00007C13.6523 6.43029 11.5699 4.3478 9.00008 4.34489C8.65729 4.34489 8.37939 4.067 8.37939 3.72421C8.37939 3.38141 8.65729 3.10352 9.00008 3.10352C12.2552 3.10711 14.893 5.74498 14.8966 9.00007C14.8966 9.34286 14.6187 9.62076 14.2759 9.62076Z" fill="#283D4C"/>
    <path d="M17.3794 9.62069C17.0366 9.62069 16.7587 9.3428 16.7587 9C16.7539 4.71702 13.2831 1.24617 9.00009 1.24138C8.65729 1.24138 8.37939 0.963487 8.37939 0.62069C8.37939 0.277892 8.65729 0 9.00009 0C13.9684 0.0054732 17.9946 4.03171 18.0001 9C18.0001 9.16462 17.9347 9.32249 17.8183 9.4389C17.7019 9.5553 17.544 9.62069 17.3794 9.62069Z" fill="#283D4C"/>
</svg>
