<svg width="80" height="56" viewBox="0 0 80 56" fill="none" xmlns="http://www.w3.org/2000/svg">
    <path d="M73.3333 0H6.66667C2.98667 0.00433333 0.00433333 2.98667 0 6.66667V49.3333C0.00433333 53.0133 2.98667 55.9957 6.66667 56H73.3333C73.7075 56.0015 74.081 55.9688 74.4493 55.9027C77.6575 55.3657 80.0062 52.5862 80 49.3333V6.66667C79.9957 2.9865 77.0133 0.00433333 73.3333 0ZM6.66667 53.3333C4.59417 53.333 2.865 51.7498 2.68267 49.6853L29.2667 32.304L56.3013 53.3333H6.66667ZM77.3333 49.3333C77.3355 51.2903 75.918 52.9602 73.9867 53.276C73.771 53.3148 73.5523 53.334 73.3333 53.3333H60.644L42.9787 39.5853L58.776 26.9533L77.3333 38.088V49.3333ZM77.3333 34.9787L59.3533 24.1907C58.8753 23.9032 58.269 23.9437 57.8333 24.292L40.8107 37.9053L30.1507 29.6147C29.7015 29.2657 29.0805 29.2398 28.604 29.5507L2.66667 46.5093V6.66667C2.66667 4.4575 4.4575 2.66667 6.66667 2.66667H73.3333C75.5425 2.66667 77.3333 4.4575 77.3333 6.66667V34.9787Z" fill="white"/>
    <path d="M40 8C35.5817 8 32 11.5817 32 16C32.0043 20.4165 35.5835 23.9957 40 24C44.4183 24 48 20.4183 48 16C48 11.5817 44.4183 8 40 8ZM40 21.3333C37.0545 21.3333 34.6667 18.9455 34.6667 16C34.6667 13.0545 37.0545 10.6667 40 10.6667C42.9455 10.6667 45.3333 13.0545 45.3333 16C45.3333 18.9455 42.9455 21.3333 40 21.3333Z" fill="white"/>
</svg>
