<svg width="30" height="30" viewBox="0 0 30 30" fill="none" xmlns="http://www.w3.org/2000/svg">
    <path d="M15 30C6.72867 30 0 23.2713 0 15C0 6.72867 6.72867 0 15 0C23.2713 0 30 6.72867 30 15C30 23.2713 23.2713 30 15 30ZM15 1.875C7.76253 1.875 1.875 7.76253 1.875 15C1.875 22.2375 7.76253 28.125 15 28.125C22.2375 28.125 28.125 22.2375 28.125 15C28.125 7.76253 22.2375 1.875 15 1.875Z" fill="#CE5555"/>
    <path d="M10.3601 20.5775C10.12 20.5775 9.87993 20.4864 9.69751 20.3026C9.3313 19.9364 9.3313 19.3427 9.69751 18.9765L18.9787 9.69507C19.3451 9.32886 19.9388 9.32886 20.305 9.69507C20.6713 10.0613 20.6713 10.655 20.305 11.0214L11.0237 20.3026C10.8387 20.4864 10.5988 20.5775 10.3601 20.5775Z" fill="#CE5555"/>
    <path d="M19.64 20.5773C19.4001 20.5773 19.16 20.4862 18.9776 20.3024L9.69646 11.0224C9.33002 10.6561 9.33002 10.0624 9.69646 9.69622C10.0627 9.32978 10.6564 9.32978 11.0226 9.69622L20.3038 18.9774C20.6702 19.3436 20.6702 19.9373 20.3038 20.3035C20.1202 20.4862 19.8801 20.5773 19.64 20.5773Z" fill="#CE5555"/>
</svg>
