<svg width="21" height="22" viewBox="0 0 21 22" fill="none" xmlns="http://www.w3.org/2000/svg">
<path d="M20.7486 7.66475L17.2087 4.71714L20.7472 1.76814C20.9716 1.57999 21.0566 1.27199 20.9549 0.99465C20.856 0.720097 20.5953 0.536133 20.3013 0.536133H9.15191C8.76726 0.536133 8.45508 0.848315 8.45508 1.23297V17.957C8.45508 18.3417 8.76726 18.6538 9.15191 18.6538C9.53657 18.6538 9.84875 18.3417 9.84875 17.957V8.89815H20.3013C20.5953 8.89815 20.856 8.71418 20.9563 8.43824C21.0566 8.16229 20.973 7.8529 20.7486 7.66475Z" fill="#DF1C24"/>
<path d="M11.2451 14.5703V15.9779C14.725 16.3235 16.7417 17.4468 16.8197 17.9541C16.7278 18.5618 13.9279 20.0474 9.15455 20.0474C4.38263 20.0474 1.58135 18.5618 1.48937 17.9597C1.56742 17.4482 3.58406 16.3235 7.06405 15.9779V14.5703C3.07119 14.9341 0.0957031 16.311 0.0957031 17.9569C0.0957031 19.8816 4.15128 21.4411 9.15455 21.4411C14.1578 21.4411 18.2134 19.8816 18.2134 17.9569C18.2134 16.3096 15.2379 14.9327 11.2451 14.5703Z" fill="#DF1C24"/>
</svg>
