<svg width="13" height="14" viewBox="0 0 13 14" fill="none" xmlns="http://www.w3.org/2000/svg">
    <path d="M12.3701 5.16509L8.79964 4.58853L7.20355 0.993219C7.15995 0.894781 7.08823 0.815094 6.99964 0.766656C6.77745 0.644781 6.50745 0.746344 6.39636 0.993219L4.80027 4.58853L1.2298 5.16509C1.13136 5.18072 1.04136 5.23228 0.972453 5.31041C0.889149 5.40554 0.843245 5.53353 0.844827 5.66625C0.846409 5.79897 0.895348 5.92557 0.980891 6.01822L3.56417 8.81666L2.95386 12.7682C2.93955 12.8601 2.9487 12.9547 2.98029 13.0411C3.01187 13.1276 3.06462 13.2024 3.13255 13.2572C3.20048 13.3121 3.28088 13.3446 3.36462 13.3513C3.44837 13.3579 3.53211 13.3383 3.60636 13.2948L6.79995 11.4292L9.99355 13.2948C10.0807 13.3463 10.182 13.3635 10.279 13.3448C10.5237 13.2979 10.6882 13.0401 10.646 12.7682L10.0357 8.81666L12.619 6.01822C12.6893 5.94166 12.7357 5.84166 12.7498 5.73228C12.7878 5.45884 12.6162 5.20572 12.3701 5.16509Z" fill="#FEA250"/>
</svg>
