<svg width="30" height="30" viewBox="0 0 30 30" fill="none" xmlns="http://www.w3.org/2000/svg">
    <g>
        <path d="M29.8889 14.6447C29.6526 14.3009 23.975 5.24951 14.9999 5.24951C7.29854 5.24951 0.43593 14.2547 0.147175 14.5959C-0.0490584 14.8284 -0.0490584 15.1697 0.147175 15.4034C0.43593 15.7447 7.29854 24.7498 14.9999 24.7498C22.7013 24.7498 29.5639 15.7447 29.8526 15.4034C30.0339 15.1884 30.0501 14.8772 29.8889 14.6447ZM14.9999 23.4998C8.8261 23.4998 2.95597 16.6122 1.46473 14.9997C2.95351 13.3859 8.81737 6.49957 14.9999 6.49957C22.2238 6.49957 27.3226 13.3784 28.5676 14.9659C27.1301 16.5272 21.2263 23.4998 14.9999 23.4998Z"
              fill="black"/>
        <path d="M15.0001 10C12.2425 10 10 12.2425 10 15.0001C10 17.7576 12.2425 20.0001 15.0001 20.0001C17.7576 20.0001 20.0001 17.7576 20.0001 15.0001C20.0001 12.2425 17.7576 10 15.0001 10ZM15.0001 18.7502C12.9325 18.7502 11.25 17.0676 11.25 15.0001C11.25 12.9326 12.9325 11.2501 15.0001 11.2501C17.0676 11.2501 18.7501 12.9326 18.7501 15.0001C18.7501 17.0676 17.0676 18.7502 15.0001 18.7502Z"
              fill="black"/>
    </g>
</svg>
