<svg width="30" height="30" viewBox="0 0 30 30" fill="none" xmlns="http://www.w3.org/2000/svg">
    <path d="M19.8756 0H10.1242L8.09558 4.7182C8.7499 4.27805 9.44599 3.90123 10.1794 3.59103C11.7072 2.94486 13.329 2.61721 14.9999 2.61721C16.6708 2.61721 18.2926 2.94486 19.8204 3.59103C20.5538 3.90123 21.2499 4.27805 21.9043 4.7182L19.8756 0Z" fill="white"/>
    <path d="M19.8205 26.4089C18.2927 27.0551 16.6709 27.3827 15 27.3827C13.3291 27.3827 11.7072 27.0551 10.1795 26.4089C9.44605 26.0987 8.74996 25.7219 8.09558 25.2817L10.1243 29.9999H19.8757L21.9043 25.2817C21.2499 25.7219 20.5539 26.0987 19.8205 26.4089Z" fill="white"/>
    <path d="M15 4.375C9.13193 4.375 4.375 9.13193 4.375 15C4.375 20.868 9.13199 25.625 15 25.625C20.868 25.625 25.625 20.868 25.625 15C25.625 9.13193 20.868 4.375 15 4.375ZM14.1211 7.49998H15.8789V13.4777L19.9732 11.1138L20.8521 12.6361L15.4394 15.7611L14.1211 15V7.49998ZM8.94426 19.5111L8.06535 17.9888L10.2304 16.7389L11.1093 18.2611L8.94426 19.5111ZM10.2304 13.2612L8.06535 12.0112L8.94426 10.4889L11.1093 11.7389L10.2304 13.2612ZM15.8789 22.5H14.1211V20H15.8789V22.5ZM21.0557 19.5111L18.8907 18.2611L19.7696 16.7389L21.9346 17.9888L21.0557 19.5111Z" fill="white"/>
</svg>
