<svg width="60" height="60" viewBox="0 0 60 60" fill="none" xmlns="http://www.w3.org/2000/svg">
    <g clip-path="url(#clip0_52:1073)">
        <path d="M28.1254 45.9375C36.9134 45.9375 44.0629 38.7879 44.0629 30C44.0629 21.2121 36.9134 14.0625 28.1254 14.0625C19.3374 14.0625 12.1879 21.2121 12.1879 30C12.1879 38.7879 19.3374 45.9375 28.1254 45.9375ZM27.1879 15.9695V17.8125C27.1879 18.3302 27.6076 18.75 28.1254 18.75C28.6431 18.75 29.0629 18.3302 29.0629 17.8125V15.9695C36.0714 16.4332 41.6922 22.0539 42.1559 29.0625H40.3129C39.7951 29.0625 39.3754 29.4823 39.3754 30C39.3754 30.5177 39.7951 30.9375 40.3129 30.9375H42.1559C41.6922 37.9461 36.0714 43.5669 29.0629 44.0305V42.1875C29.0629 41.6698 28.6431 41.25 28.1254 41.25C27.6076 41.25 27.1879 41.6698 27.1879 42.1875V44.0305C20.1794 43.5668 14.5586 37.9461 14.0949 30.9375H15.9379C16.4556 30.9375 16.8754 30.5177 16.8754 30C16.8754 29.4823 16.4556 29.0625 15.9379 29.0625H14.0949C14.5585 22.0539 20.1792 16.4331 27.1879 15.9695Z" fill="#283D4C"/>
        <path d="M49.9222 25.3125H48.2127C48.0373 24.5604 47.8195 23.8245 47.5641 23.1063L48.8762 22.3491C50.1073 21.6397 50.5315 20.0603 49.8212 18.8273L48.6492 16.7975C47.9365 15.5633 46.3615 15.1413 45.1267 15.8545L43.8057 16.6175C43.5197 16.2829 43.223 15.9575 42.9164 15.6418L41.4802 7.74258C41.2748 6.61242 40.3533 5.76961 39.2351 5.64328L38.6862 2.34996C38.4592 0.988359 37.2925 0 35.912 0H20.3387C18.9581 0 17.7914 0.98836 17.5645 2.35008L17.0156 5.64328C15.8974 5.76961 14.9759 6.61242 14.7706 7.74234L13.3342 15.6417C5.54871 23.6597 5.56102 36.3529 13.3342 44.3582L14.7706 52.2573C14.9759 53.3875 15.8974 54.2303 17.0156 54.3566L17.5645 57.6499C17.7914 59.0116 18.9581 60 20.3387 60H35.912C37.2926 60 38.4593 59.0116 38.6862 57.6499L39.2351 54.3566C40.3533 54.2303 41.2748 53.3875 41.4802 52.2575L42.9165 44.3582C43.2231 44.0425 43.5198 43.7171 43.8059 43.3825C45.1254 44.1446 45.5513 44.4925 46.4128 44.4925C47.3026 44.4925 48.1691 44.034 48.6493 43.2023L49.8217 41.1718C50.5315 39.9397 50.1074 38.3603 48.8768 37.6513L47.5641 36.8937C47.8195 36.1755 48.0373 35.4396 48.2127 34.6875H49.9222C51.3438 34.6875 52.5004 33.531 52.5004 32.1094V27.8906C52.5004 26.469 51.3438 25.3125 49.9222 25.3125ZM46.0645 17.4782C46.3992 17.2845 46.83 17.3965 47.0255 17.735L48.1969 19.7639C48.3906 20.1002 48.2754 20.531 47.9395 20.7246L46.8482 21.3545C46.3191 20.2133 45.6895 19.1279 44.9694 18.1106L46.0645 17.4782ZM19.414 2.6584C19.4897 2.20453 19.8785 1.875 20.3387 1.875H35.912C36.3722 1.875 36.7611 2.20453 36.8367 2.6584L37.3311 5.625H18.9196L19.414 2.6584ZM17.3066 7.5H38.9441C39.2838 7.5 39.5746 7.74293 39.6354 8.07797L40.6431 13.62C33.2481 7.95516 22.9966 7.95984 15.6076 13.62L16.6153 8.07773C16.6761 7.74293 16.9669 7.5 17.3066 7.5ZM28.1254 11.25C38.4641 11.25 46.8754 19.6611 46.8754 30C46.8754 40.3389 38.4641 48.75 28.1254 48.75C17.7866 48.75 9.37535 40.3389 9.37535 30C9.37535 19.6611 17.7866 11.25 28.1254 11.25ZM36.8367 57.3416C36.761 57.7955 36.3722 58.125 35.912 58.125H20.3387C19.8785 58.125 19.4896 57.7955 19.414 57.3416L18.9196 54.375H37.3311L36.8367 57.3416ZM38.9441 52.5C36.5858 52.5 19.6632 52.5 17.3066 52.5C16.9669 52.5 16.6761 52.2571 16.6153 51.922L15.6076 46.38C23.0026 52.0448 33.2541 52.0402 40.6431 46.38L39.6354 51.9223C39.5745 52.2571 39.2837 52.5 38.9441 52.5ZM47.9401 39.2755C48.2755 39.4688 48.3907 39.8995 48.1975 40.235L47.0257 42.2646C46.8308 42.602 46.4011 42.7161 46.0647 42.5216L44.9695 41.889C45.6897 40.8718 46.3193 39.7864 46.8483 38.6453L47.9401 39.2755ZM50.6254 32.1094C50.6254 32.4971 50.31 32.8125 49.9222 32.8125H48.5578C48.8143 30.9396 48.8148 29.0636 48.5578 27.1875H49.9222C50.31 27.1875 50.6254 27.5029 50.6254 27.8906V32.1094Z" fill="#283D4C"/>
        <path d="M27.4624 30.6629C27.8286 31.029 28.4221 31.0289 28.7882 30.6629L36.2882 23.1629C36.6544 22.7967 36.6544 22.2033 36.2882 21.8371C35.9221 21.4711 35.3285 21.4711 34.9624 21.8371L28.1254 28.6743L24.1008 24.6496C23.7347 24.2836 23.1411 24.2836 22.7751 24.6496C22.4088 25.0158 22.4088 25.6092 22.7751 25.9754L27.4624 30.6629Z" fill="#283D4C"/>
    </g>
    <defs>
        <clipPath id="clip0_52:1073">
            <rect width="60" height="60" fill="white"/>
        </clipPath>
    </defs>
</svg>
