<svg width="20" height="20" viewBox="0 0 20 20" fill="none" xmlns="http://www.w3.org/2000/svg">
    <g clip-path="url(#clip0)">
        <path d="M14.5892 11.9226L14.5817 11.9851C12.7492 11.0717 12.5575 10.9501 12.3208 11.3051C12.1567 11.5509 11.6783 12.1084 11.5342 12.2734C11.3883 12.4359 11.2433 12.4484 10.9958 12.3359C10.7458 12.2109 9.94332 11.9484 8.99332 11.0984C8.25332 10.4359 7.75666 9.62339 7.60999 9.37339C7.36582 8.95173 7.87666 8.89173 8.34166 8.01173C8.42499 7.83673 8.38249 7.69923 8.32082 7.57506C8.25832 7.45006 7.76082 6.22506 7.55249 5.73673C7.35249 5.25006 7.14666 5.31173 6.99249 5.31173C6.51249 5.27006 6.16166 5.27673 5.85249 5.59839C4.50749 7.07673 4.84666 8.60173 5.99749 10.2234C8.25916 13.1834 9.46416 13.7284 11.6675 14.4851C12.2625 14.6742 12.805 14.6476 13.2342 14.5859C13.7125 14.5101 14.7067 13.9851 14.9142 13.3976C15.1267 12.8101 15.1267 12.3226 15.0642 12.2101C15.0025 12.0976 14.8392 12.0351 14.5892 11.9226Z"
              fill="#C7AB90"/>
        <path d="M17.1 2.87392C10.6925 -3.32025 0.0883333 1.17225 0.0841666 9.91058C0.0841666 11.6572 0.541666 13.3606 1.41333 14.8648L0 19.9998L5.27916 18.6231C11.8667 22.1814 19.9967 17.4564 20 9.91558C20 7.26892 18.9667 4.77808 17.0875 2.90642L17.1 2.87392ZM18.335 9.88808C18.33 16.2489 11.3475 20.2214 5.825 16.9748L5.525 16.7964L2.4 17.6089L3.2375 14.5714L3.03833 14.2589C-0.398333 8.78808 3.55 1.63808 10.06 1.63808C12.2717 1.63808 14.3475 2.50058 15.9108 4.06308C17.4733 5.61225 18.335 7.68808 18.335 9.88808Z"
              fill="#C7AB90"/>
    </g>
    <defs>
        <clipPath id="clip0">
            <rect width="20" height="20" fill="#C7AB90"/>
        </clipPath>
    </defs>
</svg>
